<svg width="175" height="93" viewBox="0 0 175 93" fill="none" xmlns="http://www.w3.org/2000/svg">
<g clip-path="url(#clip0)">
<path d="M155.617 49.5829C158.319 82.7055 94.0632 73.0042 77.5044 73.0042C57.2466 73.0042 18.2608 76.9954 18.2608 42.312C18.2608 24.8138 75.604 13.2283 92.1628 13.2283C116.627 13.2283 153.574 24.5391 155.617 49.5829Z" fill="#FFF2C4"/>
<path d="M41.7878 42.7608L52.1699 31.5158H57.5423L45.4846 44.2759L57.6114 59.7013H52.2217L42.617 47.1602L41.7878 48.0364V59.7013H37.7628V31.5158H41.7878V42.7608Z" fill="url(#paint0_linear)"/>
<path d="M65.4272 41.9211V59.7013H61.5404V41.9211H65.4272ZM60.953 34.5278C60.953 33.8098 61.2006 33.1892 61.6959 32.6658C62.1911 32.1425 62.7842 31.8809 63.4752 31.8809C64.1777 31.8809 64.7765 32.1425 65.2717 32.6658C65.7669 33.177 66.0145 33.8037 66.0145 34.5461C66.0145 35.2885 65.7669 35.9213 65.2717 36.4446C64.788 36.9679 64.1949 37.2296 63.4924 37.2296C62.7899 37.2296 62.1911 36.9679 61.6959 36.4446C61.2006 35.9213 60.953 35.2824 60.953 34.5278Z" fill="url(#paint1_linear)"/>
<path d="M71.4119 41.9211H75.2987V43.5092C76.0127 42.7182 76.6461 42.1766 77.1989 41.8845C77.7632 41.5803 78.4312 41.4282 79.2028 41.4282C80.2277 41.4282 81.2988 41.7811 82.4159 42.487L80.6366 46.2475C79.8995 45.6876 79.1797 45.4077 78.4772 45.4077C76.3582 45.4077 75.2987 47.0993 75.2987 50.4826V59.7013H71.4119V41.9211Z" fill="url(#paint2_linear)"/>
<path d="M97.8671 41.9211H101.771V59.7013H97.8671V57.8393C96.2663 59.4214 94.5446 60.2124 92.7019 60.2124C90.3756 60.2124 88.4523 59.324 86.9322 57.5472C85.4235 55.7339 84.6692 53.4703 84.6692 50.7564C84.6692 48.0912 85.4235 45.8702 86.9322 44.0934C88.4408 42.3166 90.3295 41.4282 92.5983 41.4282C94.5561 41.4282 96.3123 42.2801 97.8671 43.9839V41.9211ZM88.6424 50.7564C88.6424 52.4602 89.0742 53.8476 89.938 54.9185C90.8247 56.0016 91.9418 56.5432 93.2893 56.5432C94.7288 56.5432 95.892 56.0199 96.7788 54.9733C97.6655 53.8902 98.1089 52.515 98.1089 50.8477C98.1089 49.1804 97.6655 47.8052 96.7788 46.7221C95.892 45.6633 94.7403 45.1339 93.3238 45.1339C91.9879 45.1339 90.8708 45.6694 89.9725 46.7403C89.0858 47.8235 88.6424 49.1621 88.6424 50.7564Z" fill="url(#paint3_linear)"/>
<path d="M111.625 28.8688V47.6713L117.101 41.9211H122.318L115.011 49.3873L122.854 59.7013H117.81L112.247 52.1985L111.625 52.8557V59.7013H107.739V28.8688H111.625Z" fill="url(#paint4_linear)"/>
<path d="M130.411 41.9211V52.1255C130.411 55.0706 131.51 56.5432 133.71 56.5432C135.91 56.5432 137.01 55.0706 137.01 52.1255V41.9211H140.896V52.2168C140.896 53.6407 140.729 54.8698 140.395 55.9043C140.073 56.8292 139.514 57.6628 138.72 58.4052C137.407 59.61 135.737 60.2124 133.71 60.2124C131.695 60.2124 130.031 59.61 128.718 58.4052C127.912 57.6628 127.341 56.8292 127.007 55.9043C126.685 55.0767 126.524 53.8476 126.524 52.2168V41.9211H130.411Z" fill="url(#paint5_linear)"/>
<path d="M122.822 16.0195C106.651 10.9317 43.5475 10.6811 20.8627 33.8141C12.8133 41.1861 16.7422 62.7995 39.7684 73.1712C60.2579 79.2722 117.569 76.7413 127.336 75.2048C140.264 73.1712 155.929 68.0829 157.827 51.3093C159.824 33.65 136.673 19.2815 122.822 16.0195Z" stroke="#D67924"/>
<path d="M114.016 29.1584C113.764 27.6409 112.967 23 111.42 23C111.049 23 110.717 23.1568 110.438 23.3702C110.168 23.5746 109.839 23.6853 109.5 23.6853C109.161 23.6853 108.832 23.5746 108.563 23.3702C108.283 23.1587 107.952 23 107.58 23C106.034 23 105.237 27.6398 104.984 29.1579C106.015 29.4908 107.474 29.7692 109.5 29.7692C111.526 29.7692 112.986 29.4913 114.016 29.1584ZM117.812 28.1753C117.733 28.1223 117.638 28.0974 117.543 28.1046C117.447 28.1118 117.357 28.1507 117.287 28.215C117.261 28.2387 114.597 30.6154 109.5 30.6154C104.431 30.6154 101.737 28.2372 101.71 28.2134C101.639 28.15 101.55 28.112 101.455 28.1053C101.36 28.0987 101.266 28.1238 101.187 28.1766C101.109 28.2295 101.05 28.307 101.021 28.3969C100.991 28.4868 100.993 28.5839 101.026 28.6727C101.045 28.7261 103.08 34 109.5 34C115.92 34 117.954 28.7261 117.974 28.6727C118.007 28.5837 118.009 28.4863 117.979 28.3961C117.95 28.3059 117.891 28.2282 117.812 28.1753H117.812Z" fill="#EFAA43"/>
<path d="M104.808 29.8077L104.996 29.1518C106.495 29.4095 110.429 29.864 114.025 29.1518L114.188 29.8856C111.811 30.6352 107.962 31.0494 104.808 29.8077Z" fill="#FFE4AF"/>
</g>
<defs>
<linearGradient id="paint0_linear" x1="88.9581" y1="66.1505" x2="88.9582" y2="22.2592" gradientUnits="userSpaceOnUse">
<stop stop-color="#66310B"/>
<stop offset="1" stop-color="#B0713D" stop-opacity="0.48"/>
</linearGradient>
<linearGradient id="paint1_linear" x1="88.9581" y1="66.1505" x2="88.9582" y2="22.2592" gradientUnits="userSpaceOnUse">
<stop stop-color="#66310B"/>
<stop offset="1" stop-color="#B0713D" stop-opacity="0.48"/>
</linearGradient>
<linearGradient id="paint2_linear" x1="88.9581" y1="66.1505" x2="88.9582" y2="22.2592" gradientUnits="userSpaceOnUse">
<stop stop-color="#66310B"/>
<stop offset="1" stop-color="#B0713D" stop-opacity="0.48"/>
</linearGradient>
<linearGradient id="paint3_linear" x1="88.9581" y1="66.1505" x2="88.9582" y2="22.2592" gradientUnits="userSpaceOnUse">
<stop stop-color="#66310B"/>
<stop offset="1" stop-color="#B0713D" stop-opacity="0.48"/>
</linearGradient>
<linearGradient id="paint4_linear" x1="88.9581" y1="66.1505" x2="88.9582" y2="22.2592" gradientUnits="userSpaceOnUse">
<stop stop-color="#66310B"/>
<stop offset="1" stop-color="#B0713D" stop-opacity="0.48"/>
</linearGradient>
<linearGradient id="paint5_linear" x1="88.9581" y1="66.1505" x2="88.9582" y2="22.2592" gradientUnits="userSpaceOnUse">
<stop stop-color="#66310B"/>
<stop offset="1" stop-color="#B0713D" stop-opacity="0.48"/>
</linearGradient>
<clipPath id="clip0">
<rect width="175" height="93" fill="white"/>
</clipPath>
</defs>
</svg>
