<svg xmlns="http://www.w3.org/2000/svg" viewBox="0 0 500 500"><path fill="#e0e0e0" d="M0 382.4h500v.3H0zM388.3 398.1h44.9v.3h-44.9zM373.1 398.1h8.7v.3h-8.7zM280 394.6h19.4v.3H280zM80.9 394.5h43.2v.3H80.9zM65.7 394.5H72v.3h-6.3zM189.3 388.6H283v.3h-93.7zM237 337.8H44a5.7 5.7 0 01-5.8-5.7V60.7A5.7 5.7 0 0144 55H237a5.7 5.7 0 015.7 5.7v271.4a5.7 5.7 0 01-5.7 5.7zM44 55.2a5.5 5.5 0 00-5.5 5.5V332a5.5 5.5 0 005.4 5.4H237a5.5 5.5 0 005.5-5.4V60.7a5.5 5.5 0 00-5.5-5.5zM453.3 337.8h-193a5.7 5.7 0 01-5.8-5.7V60.7a5.7 5.7 0 015.7-5.7h193.1a5.7 5.7 0 015.7 5.7V332a5.7 5.7 0 01-5.7 5.7zm-193-282.6a5.5 5.5 0 00-5.6 5.5V332a5.5 5.5 0 005.5 5.4h193.1a5.5 5.5 0 005.5-5.4V60.7a5.5 5.5 0 00-5.5-5.5z"/><path fill="#e6e6e6" d="M115.5 118.1h119.6v264.4H115.5z"/><path fill="#f0f0f0" d="M121.2 118.1h113.9v264.4H121.2z"/><path fill="#ebebeb" d="M229 124.1v252.4H127.1V124.1z"/><path fill="#e6e6e6" d="M229 124.2v252.4h-1.5V124z"/><circle cx="215.4" cy="239.4" r="5.1" fill="#e6e6e6"/><circle cx="217.4" cy="238.3" r="5.1" fill="#fafafa"/><path fill="#e0e0e0" d="M287.6 85.6h135.7v203.1H287.6z"/><path fill="#f0f0f0" d="M290.6 85.6h135.7v203.1H290.6z"/><path fill="#fafafa" d="M420.8 91.6v190.9H296v-191z"/><path fill="#e0e0e0" d="M420.8 91.7v190.9h-2.3v-191z"/><path fill="#f0f0f0" d="M292.8 151.2H424v8.2H292.8z"/><path d="M432.2 75.5H281.7a.8.8 0 00-.9.8.8.8 0 00.9.9h150.5a.8.8 0 00.8-.9.8.8 0 00-.8-.8z" fill="#e0e0e0"/><path d="M437.2 76.3a4.2 4.2 0 11-4.2-4.1 4.2 4.2 0 014.2 4.1zM288.7 81a1.1 1.1 0 01-1.1-1.1v-2.4a1.1 1.1 0 011-1.2 1.1 1.1 0 011.2 1.2v2.4a1.1 1.1 0 01-1.1 1.1zM419.6 81a1.1 1.1 0 01-1.1-1.1v-2.4a1.1 1.1 0 011.1-1.2 1.1 1.1 0 011.1 1.2v2.4a1.1 1.1 0 01-1 1.1z" fill="#e0e0e0"/><path fill="#e0e0e0" opacity=".4" d="M292.8 76.3h139.1v58.3H292.8z"/><path d="M306.3 76.3a4.2 4.2 0 11-4.2-4.1 4.2 4.2 0 014.1 4.1z" fill="#e0e0e0"/><path fill="#e6e6e6" d="M282 319.3h26.8v59.4H282z"/><path fill="#e6e6e6" d="M287.1 378.6h132.1v3.8H287.1z"/><path fill="#f0f0f0" d="M424.3 378.6H308.7v-59.4h115.6z"/><path fill="#e6e6e6" d="M413.8 346h-94.5v-19.5h94.5zM413.8 371.3h-94.5v-19.5h94.5z"/><rect x="353.3" y="335" width="26.4" height="2.7" rx="1.2" fill="#f0f0f0"/><rect x="353.3" y="360.3" width="26.4" height="2.7" rx="1.2" fill="#f0f0f0"/><circle cx="342.1" cy="304.6" r="5.9" fill="#f0f0f0"/><circle cx="351.4" cy="303.5" r="5.9" fill="#f0f0f0"/><path d="M385.9 306.2a5.9 5.9 0 11-6-5.9 5.9 5.9 0 016 6zM370.6 309a6 6 0 11-5.9-6 5.9 5.9 0 016 6z" fill="#f0f0f0"/><path d="M325 305.7s1 13.6 37.6 13.6 37.6-13.6 37.6-13.6zM43.6 298.3h18.2v79.1H43.6zM47.1 377.4H137v5H47.1z" fill="#e6e6e6"/><path fill="#f0f0f0" d="M140.5 377.4H61.8v-79h78.7z"/><path fill="#e6e6e6" d="M133.3 334H69v-26h64.3zM133.3 367.7H69v-26h64.3z"/><path d="M108.3 322.8H94a1.8 1.8 0 01-1.8-1.8 1.8 1.8 0 011.8-1.8h14.4a1.8 1.8 0 011.8 1.8 1.8 1.8 0 01-1.8 1.8zM108.3 356.5H94a1.8 1.8 0 01-1.8-1.8 1.8 1.8 0 011.8-1.8h14.4a1.8 1.8 0 011.8 1.8 1.8 1.8 0 01-1.8 1.8zM97.4 283.1s-15-25.9 5.8-46.5c0 0 5.4 3.5 5.3 8.3s-5.8 6-4.6 10 6.7 7.9 3.1 11.2.6 6.2.4 10.2-10 6.8-10 6.8z" fill="#f0f0f0"/><path d="M75.5 279s.5 19.3 19.6 19.3 19.7-19.3 19.7-19.3z" fill="#e6e6e6"/><path d="M98.5 285.5s6.1-29.3-20.2-42.3c0 0-4 5-2.5 9.6s7.5 3.8 7.5 8-3.8 9.5.6 11.5 1.4 6.1 3 9.9 11.6 3.3 11.6 3.3z" fill="#e6e6e6"/><path fill="#e0e0e0" d="M59.4 140.9h30v75.5h-30z"/><path fill="#f0f0f0" d="M63.6 140.9h31.9v75.5H63.6z"/><path fill="#fafafa" d="M90.6 145.8v65.8h-22v-65.8z"/><g><ellipse cx="250" cy="416.2" rx="193.9" ry="11.3" fill="#f5f5f5"/></g><g><path d="M366.7 195.4a94.4 94.4 0 01-2.4 16 75.7 75.7 0 01-5.3 15.5 13.1 13.1 0 01-3.3 4 28.3 28.3 0 01-3.6 2.6 56.7 56.7 0 01-7.3 3.8 103.5 103.5 0 01-15 5.1l-1.3-3.7a154.9 154.9 0 0013.7-6.7 60 60 0 006.2-4 23.1 23.1 0 002.6-2.1 6.9 6.9 0 001.6-2 63.3 63.3 0 002.3-6.9 123.4 123.4 0 003.9-22z" fill="#e58a7b"/><path d="M361.3 186c-3.2.8-5.5 14-5.5 14l8.8 6s8.5-13.3 6-16.8c-2.5-3.7-4.7-4.4-9.3-3.2z" fill="#fff2c3"/><path d="M361.3 186c-3.2.8-5.5 14-5.5 14l8.8 6s8.5-13.3 6-16.8c-2.5-3.7-4.7-4.4-9.3-3.2z" opacity=".5"/><path fill="#fff2c3" d="M361.6 188.9L359 202l5 3.4-2.5-16.6z"/><path opacity=".7" d="M361.6 188.9L359 202l5 3.4-2.5-16.6z"/><path d="M330.3 238.5l-5.5-5.6-.7 7.9s4.1 2.8 7 1.3z" fill="#e58a7b"/><path fill="#e58a7b" d="M318.4 232.1l-.3 6.6 6 2 .8-7.8-6.5-.8zM378.5 406.9h-7.7l-.5-18h7.7l.5 18zM446.8 371l-5.9 5-13.5-12.1 6-5 13.4 12z"/><path d="M439.3 375.4l5.7-6.6a.6.6 0 01.8-.1l5.8 3.8a1.2 1.2 0 01.2 1.8l-5.6 6.1-5.7 7c-2.1 2.5-4.7.5-4-.7 3-5.5 2.2-7.4 2.3-10a2 2 0 01.5-1.3zM370.5 406h8.7a.6.6 0 01.6.5l1 7a1.2 1.2 0 01-1.2 1.3c-3 0-4.5-.3-8.3-.3l-10.5.3c-3.3 0-3.4-3.2-2-3.5 6-1.3 8.4-3.1 10.4-4.8a2 2 0 011.3-.5z" fill="#263238"/><path fill="#cf6f64" d="M370.3 389l.2 9.2h7.8l-.3-9.2h-7.7zM433.3 358.9l-5.9 5 7 6.2 5.9-5-7-6.2z"/><path d="M361.3 186s-3.7 1.3 3.7 46.7h31.4c-.5-12.8-.5-20.7 5.6-47a92.3 92.3 0 00-13.4-1.7 98.5 98.5 0 00-14.3 0c-6 .5-13 2-13 2z" fill="#fff2c3"/><path d="M361.3 186s-3.7 1.3 3.7 46.7h31.4c-.5-12.8-.5-20.7 5.6-47a92.3 92.3 0 00-13.4-1.7 98.5 98.5 0 00-14.3 0c-6 .5-13 2-13 2z" opacity=".5"/><path d="M379 187.3l2.8 5.8s12-3.7 10.4-9l-4-.4z" fill="#fff2c3"/><path d="M379 187.3l2.8 5.8s12-3.7 10.4-9l-4-.4z" fill="#fafafa" opacity=".6"/><path d="M378.8 186.7l-4 6s-8.5-3.7-2.7-8.7l2.5-.3z" fill="#fff2c3"/><path d="M378.8 186.7l-4 6s-8.5-3.7-2.7-8.7l2.5-.3z" fill="#fafafa" opacity=".6"/><path d="M391.6 144c3.6-3.5.1-20.1 9.8-14.6 12.2 7 20.2-2.2 16-5.7 8.7.6 7.9 10.5 4.3 15.7-9.1 13.4-27.5.7-27.6 7.5s-2.6-2.9-2.6-2.9z" fill="#263238"/><path d="M386.3 141.6c4.2-3.3 18.5-.5 8.7 12.9z" fill="#fff2c3"/><path d="M386.3 141.6c4.2-3.3 18.5-.5 8.7 12.9z" opacity=".3"/><path d="M388.5 147.8c12.2 1.9 13 21.8-6 24.9z" fill="#263238"/><path d="M387.2 168c-.9 4.5-1.8 13 1.4 16 0 0-1.2 4.6-9.8 4.6-9.3 0-4.5-4.6-4.5-4.6 5.2-1.3 5-5 4.1-8.6z" fill="#e58a7b"/><path d="M383.6 171l-5.2 4.4a13.4 13.4 0 01.5 2.6c2-.3 4.6-2.5 4.9-4.5a6.8 6.8 0 00-.2-2.5z" fill="#cf6f64"/><path d="M367.9 162.6c-4.3-5.5-9.8-19.5 6.7-20.9z" fill="#263238"/><path d="M386.9 156.2c1 7.6 1.6 10.8-1.4 15.4-4.6 7-14.2 6.5-17.5-.6-2.9-6.5-4-17.8 2.7-22.3a10.5 10.5 0 0116.2 7.5z" fill="#e58a7b"/><path d="M365 232.7s-6.1 59.6-5.6 83.2c.5 24.5 9.5 80.5 9.5 80.5h10.5s-1.7-54.5-.7-78.6c1-26.3 9.3-85.1 9.3-85.1z" fill="#fff2c3"/><path d="M365 232.7s-6.1 59.6-5.6 83.2c.5 24.5 9.5 80.5 9.5 80.5h10.5s-1.7-54.5-.7-78.6c1-26.3 9.3-85.1 9.3-85.1z" fill="#fafafa" opacity=".6"/><path fill="#fff2c3" d="M380.3 396.8H368l-1-4 13.8-.4-.5 4.4z"/><path fill="#fafafa" opacity=".4" d="M380.3 396.8H368l-1-4 13.8-.4-.5 4.4z"/><path d="M378.5 247.5c-7.7 15.5-1.5 43.9 1.2 54.4 1.4-15.8 3.8-35.2 5.6-49.4-1.2-8-3.2-12.2-6.8-5z" fill="#fff2c3"/><path d="M378.5 247.5c-7.7 15.5-1.5 43.9 1.2 54.4 1.4-15.8 3.8-35.2 5.6-49.4-1.2-8-3.2-12.2-6.8-5z" fill="#fafafa" opacity=".4"/><path d="M373.3 232.7s7 62 12.5 81.8c6.3 23.7 46 55.5 46 55.5l8-6.9s-28.7-34.5-33.6-47c-10.4-26.5-1.5-66.1-9.8-83.5z" fill="#fff2c3"/><path d="M373.3 232.7s7 62 12.5 81.8c6.3 23.7 46 55.5 46 55.5l8-6.9s-28.7-34.5-33.6-47c-10.4-26.5-1.5-66.1-9.8-83.5z" fill="#fafafa" opacity=".6"/><path fill="#fff2c3" d="M441.1 362.8l-10 8.4-3.7-2.2 11.3-10.5 2.4 4.3z"/><path fill="#fafafa" opacity=".4" d="M441.1 362.8l-10 8.4-3.7-2.2 11.3-10.5 2.4 4.3z"/><path d="M375.9 160.5c.1.6-.1 1.2-.5 1.3s-.8-.4-1-1 .2-1.2.6-1.3.8.4.9 1zM369 161.9c.1.6-.1 1.2-.5 1.3s-.8-.4-1-1 .2-1.2.6-1.3.8.4.9 1z" fill="#263238"/><path d="M368.2 161l-1.5-.2s1 1 1.5.1z" fill="#263238"/><path d="M371 162.6a16.8 16.8 0 01-1.4 4.3 2.7 2.7 0 002.2 0z" fill="#df5753"/><path d="M374.5 168.9a.2.2 0 010-.4 5 5 0 003.5-2.6.2.2 0 11.4.1 5.2 5.2 0 01-3.9 2.9zM368 151.4s6.5 9.9 18.5 11.2c0 0 12.4-11.3 4.8-19-12.4-12.7-27 3.4-23.3 7.8z" fill="#263238"/><path d="M389.5 162a5.5 5.5 0 01-1.7 4c-1.5 1.3-3 .3-3.5-1.6-.3-1.6 0-4.3 1.9-5a2.5 2.5 0 013.3 2.7z" fill="#e58a7b"/><path d="M377.5 157.9a.4.4 0 01-.3 0 3 3 0 00-2.5-.8.4.4 0 01-.5-.3.4.4 0 01.3-.5 3.6 3.6 0 013.2 1 .4.4 0 010 .5.4.4 0 01-.2.1zM365.1 159.3a.3.3 0 01-.1 0 .4.4 0 01-.2-.4 3.6 3.6 0 012.5-2.3.3.3 0 01.4.3.4.4 0 01-.3.5 3 3 0 00-2 1.7.4.4 0 01-.3.2z" fill="#263238"/><path d="M413 224.3v-.9c0-1.2-.2-2.3-.3-3.5a86.8 86.8 0 00-2.9-13.2 119.9 119.9 0 00-4.4-12.7l-7.4 3a226.7 226.7 0 016 18c.4 2 1 4 1.3 6l.2 1.3-2.1-.8c-3.8-1.6-7.7-3.6-11.5-5.5l-2.2 3.3a72.8 72.8 0 0011 7.8 27.8 27.8 0 003.1 1.6 13.8 13.8 0 002 .7 8.9 8.9 0 001.2.2 6.4 6.4 0 001.6 0 4.8 4.8 0 002.4-1 4.7 4.7 0 001.8-2.6 6.3 6.3 0 00.2-1.7zm-5.4-1.5h0z" fill="#e58a7b"/><path d="M402 185.7c3.1 1 7 11.8 7 11.8l-12.3 8.8s-4.4-9-3.1-13.2c1.3-4.2 4.8-8.5 8.4-7.4z" fill="#fff2c3"/><path d="M402 185.7c3.1 1 7 11.8 7 11.8l-12.3 8.8s-4.4-9-3.1-13.2c1.3-4.2 4.8-8.5 8.4-7.4z" opacity=".5"/><path d="M437.2 379a1 1 0 01-.8-.3.6.6 0 01-.2-.7c.3-.9 3-1.7 3.3-1.8a.2.2 0 01.2.1.2.2 0 010 .2c-.5 1-1.4 2.5-2.4 2.6zm2-2.3c-1 .4-2.5 1-2.6 1.5a.2.2 0 000 .2.7.7 0 00.7.3c.5 0 1.2-.8 1.9-2z" fill="#fff2c3"/><path d="M438.3 376.8a3.2 3.2 0 01-2.2-.7.6.6 0 010-.8 1 1 0 01.7-.4c1-.1 2.8 1.3 2.8 1.4a.2.2 0 01.1.2.2.2 0 01-.1.1 4.3 4.3 0 01-1.3.2zm-1.3-1.5h-.2a.6.6 0 00-.4.2c-.1.2 0 .3 0 .4.3.4 1.9.6 2.8.4a4.7 4.7 0 00-2.2-1zM367.6 407.3a2.9 2.9 0 01-1.9-.4 1 1 0 01-.3-1 .6.6 0 01.3-.4c1-.5 4 1 4.4 1.2a.2.2 0 01.1.2.2.2 0 01-.1.2 12.5 12.5 0 01-2.5.2zm-1.4-1.6a.7.7 0 00-.3.1.2.2 0 00-.1.2.6.6 0 00.2.6c.5.4 1.7.5 3.5.2a10 10 0 00-3.3-1z" fill="#fff2c3"/><path d="M370 407c-1-.4-2.8-2-2.7-3 0-.1.2-.4.7-.5a1.3 1.3 0 011 .4c1 .8 1.2 2.9 1.2 3a.2.2 0 01-.1.1.2.2 0 01-.1 0zm-1.8-3h-.1l-.4.1c-.1.6 1.1 1.9 2 2.4a4.2 4.2 0 00-1-2.3 1 1 0 00-.5-.3z" fill="#fff2c3"/><path d="M393 217l-2.6-8-4.1 6.7s2.4 4.3 5.6 4.2z" fill="#e58a7b"/><path fill="#e58a7b" d="M385 205.3l-3.2 5.8 4.4 4.6 4.2-6.7-5.4-3.7z"/><path d="M375.1 159.6l-1.5-.2s1 1 1.5.2zM396.9 230.8l.8 2.8c0 .2-.2.5-.5.5h-32.4c-.3 0-.5-.2-.5-.3l-.3-2.8c0-.2.2-.4.5-.4h31.9a.6.6 0 01.5.2z" fill="#263238"/><path d="M392.6 234.4h.8c.2 0 .4-.1.3-.2l-.4-3.7s-.1-.2-.3-.2h-.8c-.2 0-.3.1-.3.2l.4 3.7s.1.2.3.2z" fill="#fff2c3"/><path d="M392.6 234.4h.8c.2 0 .4-.1.3-.2l-.4-3.7s-.1-.2-.3-.2h-.8c-.2 0-.3.1-.3.2l.4 3.7s.1.2.3.2z" fill="#fafafa" opacity=".6"/><path d="M367.2 234.4h.9c.1 0 .3-.1.2-.2l-.3-3.7-.4-.2h-.8c-.2 0-.3.1-.3.2l.4 3.7s.1.2.3.2z" fill="#fff2c3"/><path d="M367.2 234.4h.9c.1 0 .3-.1.2-.2l-.3-3.7-.4-.2h-.8c-.2 0-.3.1-.3.2l.4 3.7s.1.2.3.2z" fill="#fafafa" opacity=".6"/><path d="M379.9 234.4h.9c.1 0 .3-.1.2-.2l-.4-3.7s-.1-.2-.3-.2h-.8c-.2 0-.3.1-.3.2l.4 3.7a.3.3 0 00.3.2z" fill="#fff2c3"/><path d="M379.9 234.4h.9c.1 0 .3-.1.2-.2l-.4-3.7s-.1-.2-.3-.2h-.8c-.2 0-.3.1-.3.2l.4 3.7a.3.3 0 00.3.2z" fill="#fafafa" opacity=".6"/><path d="M279.6 416.2h66.2a11 11 0 0011.1-12L341.1 178a13.1 13.1 0 00-12.9-12h-66.1a11 11 0 00-11.2 12l15.9 226.3a13.1 13.1 0 0012.8 12z" fill="#fff2c3"/><path d="M279.6 416.2h66.2a11 11 0 0011.1-12L341.1 178a13.1 13.1 0 00-12.9-12h-66.1a11 11 0 00-11.2 12l15.9 226.3a13.1 13.1 0 0012.8 12z" opacity=".2"/><path fill="#fff2c3" d="M243.7 247.9l1-.1 1 15.7-1 .1z"/><path opacity=".5" d="M243.7 247.9l1-.1 1 15.7-1 .1z"/><path d="M271 416.2h66a11 11 0 0011.2-12L332.4 178a13.1 13.1 0 00-12.8-12h-66.2a11 11 0 00-11.1 12L258 404.2a13.1 13.1 0 0012.8 12z" fill="#fff2c3"/><path d="M271 416.2h66a11 11 0 0011.2-12L332.4 178a13.1 13.1 0 00-12.8-12h-66.2a11 11 0 00-11.1 12L258 404.2a13.1 13.1 0 0012.8 12z" opacity=".5"/><path d="M283.2 238h12.3a2 2 0 002-2.2l-2.9-41.9a2.4 2.4 0 00-2.4-2.2H280a2 2 0 00-2 2.2l2.9 42a2.4 2.4 0 002.3 2.2z" fill="#fff2c3"/><path d="M283.2 238h12.3a2 2 0 002-2.2l-2.9-41.9a2.4 2.4 0 00-2.4-2.2H280a2 2 0 00-2 2.2l2.9 42a2.4 2.4 0 002.3 2.2z" opacity=".2"/></g><g><path d="M208.3 416.2H142a11 11 0 01-11.2-12L146.8 178a13.1 13.1 0 0112.8-12h66.2a11 11 0 0111.1 12l-15.8 226.2a13.1 13.1 0 01-12.8 12z" fill="#fff2c3"/><path d="M208.3 416.2H142a11 11 0 01-11.2-12L146.8 178a13.1 13.1 0 0112.8-12h66.2a11 11 0 0111.1 12l-15.8 226.2a13.1 13.1 0 01-12.8 12z" opacity=".5"/><path fill="#fff2c3" d="M176.7 162.5h3.7v1h-3.7z"/><path opacity=".3" d="M176.7 162.5h3.7v1h-3.7z"/><path fill="#fff2c3" d="M158.3 162.5H170v1h-11.7z"/><path opacity=".3" d="M158.3 162.5H170v1h-11.7z"/><path d="M199.6 416.2h-66.2a11 11 0 01-11.1-12L138 178a13.1 13.1 0 0112.8-12h66.2a11 11 0 0111.1 12l-15.8 226.2a13.1 13.1 0 01-12.8 12z" fill="#fff2c3"/><path d="M199.6 416.2h-66.2a11 11 0 01-11.1-12L138 178a13.1 13.1 0 0112.8-12h66.2a11 11 0 0111.1 12l-15.8 226.2a13.1 13.1 0 01-12.8 12z" opacity=".3"/><path d="M209.5 403.2h-87a1.5 1.5 0 01-1.6-1.6l15.4-220.4a1.5 1.5 0 011.5-1.4H225a1.5 1.5 0 011.5 1.6L211 401.8a1.5 1.5 0 01-1.5 1.4z" fill="#fff2c3"/><path d="M209.5 403.2h-87a1.5 1.5 0 01-1.6-1.6l15.4-220.4a1.5 1.5 0 011.5-1.4H225a1.5 1.5 0 011.5 1.6L211 401.8a1.5 1.5 0 01-1.5 1.4z" fill="#fafafa" opacity=".9"/><path d="M207.4 202.3h-56.6a6.2 6.2 0 00-6 5.7l-6 84.2a5.2 5.2 0 005.4 5.7h3.9l-2 6.2a17.7 17.7 0 0011.9-6.2h42.7a6.2 6.2 0 006-5.7l6-84.2a5.3 5.3 0 00-5.3-5.7z" fill="#fff2c3"/><path d="M207.4 202.3h-56.6a6.2 6.2 0 00-6 5.7l-6 84.2a5.2 5.2 0 005.4 5.7h3.9l-2 6.2a17.7 17.7 0 0011.9-6.2h42.7a6.2 6.2 0 006-5.7l6-84.2a5.3 5.3 0 00-5.3-5.7z" fill="#fafafa" opacity=".6"/><path d="M143 314.9h56.5a5.2 5.2 0 015.3 5.6l-2.5 36.2a6.2 6.2 0 01-6 5.7h-4l1 6.2a15.2 15.2 0 01-11-6.2h-42.6a5.2 5.2 0 01-5.3-5.7l2.5-36.2a6.2 6.2 0 016.1-5.6z" fill="#fff2c3"/><path d="M143 314.9h56.5a5.2 5.2 0 015.3 5.6l-2.5 36.2a6.2 6.2 0 01-6 5.7h-4l1 6.2a15.2 15.2 0 01-11-6.2h-42.6a5.2 5.2 0 01-5.3-5.7l2.5-36.2a6.2 6.2 0 016.1-5.6z" fill="#fafafa" opacity=".6"/><path d="M194 172.3a2 2 0 01-2 2 1.7 1.7 0 01-1.7-2 2 2 0 012-1.9 1.7 1.7 0 011.8 2z" fill="#fff2c3"/><path d="M194 172.3a2 2 0 01-2 2 1.7 1.7 0 01-1.7-2 2 2 0 012-1.9 1.7 1.7 0 011.8 2z" opacity=".5"/><path d="M184.3 174.2h-13.2a1.8 1.8 0 01-1.7-1.9 2 2 0 012-1.9h13.2a1.8 1.8 0 011.7 2 2 2 0 01-2 1.8z" fill="#fff2c3"/><path d="M184.3 174.2h-13.2a1.8 1.8 0 01-1.7-1.9 2 2 0 012-1.9h13.2a1.8 1.8 0 011.7 2 2 2 0 01-2 1.8z" opacity=".5"/><path d="M113.9 217.7l1.6 3 1.6 3.2 3.6 6a77.2 77.2 0 008.1 11.1c.8.8 1.6 1.7 2.1 2a16.1 16.1 0 002.3 1.7 41.2 41.2 0 006 2.6 123.3 123.3 0 0013.8 3.6l-.3 5.5a66.8 66.8 0 01-15.6-.9 40.5 40.5 0 01-8-2.2 22.5 22.5 0 01-4-2.2 17 17 0 01-2-1.4l-1.6-1.4a71 71 0 01-10-12.3 92.8 92.8 0 01-7.7-13.6z" fill="#e58a7b"/><path d="M151 251l4.5-3.2 2.3 9s-4 1.5-6.9-.5z" fill="#e58a7b"/><path fill="#e58a7b" d="M161.6 245.7l1.6 7.6-5.4 3.6-2.4-9.1 6.2-2z"/><path d="M189.9 237.7l-1.2-.2a8.3 8.3 0 00-3.8.2l-3.5 1a21 21 0 001.9-11.8c-.4-3-2.7-2.4-2.7-2.4s-3.4 12.8-10.4 17.6l-2.2 1.6 3.1 22.4 2.6-.3h10.4a7.2 7.2 0 005.5-2.9 15.3 15.3 0 003-8.6l.7-10.4c.2-3-1.3-5.8-3.4-6.2z" fill="#fff2c3"/><path d="M189.9 237.7l-1.2-.2a8.3 8.3 0 00-3.8.2l-3.5 1a21 21 0 001.9-11.8c-.4-3-2.7-2.4-2.7-2.4s-3.4 12.8-10.4 17.6l-2.2 1.6 3.1 22.4 2.6-.3h10.4a7.2 7.2 0 005.5-2.9 15.3 15.3 0 003-8.6l.7-10.4c.2-3-1.3-5.8-3.4-6.2z" fill="#fafafa" opacity=".9"/><path d="M161.4 271.3l9.9-2.2c.7-.1 1.3-1.2 1.2-2.3l-2.6-25.7c-.1-1.1-.8-1.9-1.6-1.7l-9.9 2.1c-.7.2-1.3 1.2-1.2 2.4l2.6 25.6c.1 1.2.8 2 1.6 1.8z" fill="#fff2c3"/><path d="M142.4 186.7c-.1.5.1 1 .5 1.2s.8-.4.9-1 0-1-.5-1.2-.8.4-.9 1z" fill="#263238"/><path d="M142.5 187.8a21.4 21.4 0 001.7 5.5 3.4 3.4 0 01-2.9 0z" fill="#df5753"/><path d="M144 183.1a.3.3 0 01-.2 0 2.8 2.8 0 00-2.5-.1.3.3 0 01-.5-.2.3.3 0 01.2-.4 3.4 3.4 0 013.2 0 .3.3 0 010 .6.3.3 0 01-.2.1z" fill="#263238"/><path d="M121.8 188.5c1 5.4 2.1 15.2-1.6 18.8 0 0 1.5 5.5 11.4 5.5 11 0 5.3-5.5 5.3-5.5-6-1.4-5.8-5.8-4.8-10z" fill="#e58a7b"/><path d="M118.7 208.9c-.8-1.8-.6-5-.1-5 2-.2 13.2-.3 16.8 1.1a3.8 3.8 0 012.5 5zM94.1 410a9.3 9.3 0 01-1.9-.2.2.2 0 01-.1-.1.2.2 0 010-.2c.1 0 2.2-1.5 3.2-1.2a.8.8 0 01.6.4.7.7 0 010 .8 2.4 2.4 0 01-1.8.5zm-1.4-.5c1.1.2 2.6.2 3-.2v-.4a.5.5 0 00-.4-.3 4.7 4.7 0 00-2.6 1z" fill="#fff2c3"/><path d="M92.3 409.8h-.1a.2.2 0 01-.1-.1c0-.1.2-2.3 1-3a1 1 0 01.7-.2.6.6 0 01.6.5c.1.8-1.3 2.4-2 2.8zm1.4-3a.6.6 0 00-.4.2 4 4 0 00-.8 2.3c.7-.6 1.7-1.8 1.6-2.3l-.3-.2z" fill="#fff2c3"/><path fill="#e58a7b" d="M83.8 409.6H91l6.8-17h-7.4l-6.7 17z"/><path d="M91.7 408.8h-8.3a.7.7 0 00-.6.5l-1.4 6.5a1 1 0 001 1.3l8-.2 9.9.2c3 0 3.5-3 2.2-3.3-5.7-1.2-7.8-3-9.6-4.6a1.8 1.8 0 00-1.2-.4z" fill="#263238"/><path d="M151.5 214.5l6.5 12.1 6.4 12.2 1.6 3a13.7 13.7 0 001.2 2.1 14.2 14.2 0 004 3.3 55.6 55.6 0 0011.7 5l-.7 5.5a35.5 35.5 0 01-3.7-.1 36 36 0 01-3.7-.4 35 35 0 01-7.5-2 21.8 21.8 0 01-7.3-4.6 19.6 19.6 0 01-2.7-3.6l-2-3-7-12c-2.3-4.2-4.5-8.2-6.6-12.4z" fill="#e58a7b"/><path d="M101.5 213.4c-3 6.4 6.6 26.7 6.6 26.7l16.4-7.6a117.3 117.3 0 00-6.6-16.8c-4.3-8.5-13.3-8.8-16.4-2.3z" fill="#fff2c3"/><path d="M101.5 213.4c-3 6.4 6.6 26.7 6.6 26.7l16.4-7.6a117.3 117.3 0 00-6.6-16.8c-4.3-8.5-13.3-8.8-16.4-2.3z" fill="#fafafa" opacity=".8"/><path d="M110.3 214.7l-3.7 22c1 2 1.5 3.4 1.5 3.4l16.4-7.6s-7.4-12.8-14.2-17.8z" fill="#fff2c3"/><path d="M110.3 214.7l-3.7 22c1 2 1.5 3.4 1.5 3.4l16.4-7.6s-7.4-12.8-14.2-17.8z" fill="#fafafa" opacity=".7"/><path d="M148.2 209.4s7.8 8.8.4 63.5h-39.3c-.2-6 3.5-35.5-2.3-64a102.6 102.6 0 0113.2-1.6 145.3 145.3 0 0116.7 0 75 75 0 0111.3 2z" fill="#fff2c3"/><path d="M148.2 209.4s7.8 8.8.4 63.5h-39.3c-.2-6 3.5-35.5-2.3-64a102.6 102.6 0 0113.2-1.6 145.3 145.3 0 0116.7 0 75 75 0 0111.3 2z" fill="#fafafa" opacity=".8"/><path d="M151.3 222.4l-6 15 6 8.8a158 158 0 000-23.8z" fill="#fff2c3"/><path d="M151.3 222.4l-6 15 6 8.8a158 158 0 000-23.8z" fill="#fafafa" opacity=".7"/><path d="M138.6 214.2c-2.4 6.6 7.3 26.6 7.3 26.6l17.6-8.8a90 90 0 00-8.6-17.2c-5.3-7.7-13.6-7.8-16.3-.6z" fill="#fff2c3"/><path d="M138.6 214.2c-2.4 6.6 7.3 26.6 7.3 26.6l17.6-8.8a90 90 0 00-8.6-17.2c-5.3-7.7-13.6-7.8-16.3-.6z" fill="#fafafa" opacity=".8"/><path d="M181.4 252.5l7.2-2.9 2 8.7s-5.7 2-9.9-1z" fill="#e58a7b"/><path fill="#e58a7b" d="M196.6 249.7l-1.2 7.8-4.8.8-2-8.7 8 .1z"/><path fill="#cf6f64" d="M90.5 392.6H98L93 405l-6.8-1.4 4.3-10.9z"/><path d="M123.3 181.4c-1 7.2-2 11.4.8 15.8 4.3 6.6 13.8 5.2 17-1.6 2.8-6 4-16.8-2.3-21.1a10 10 0 00-15.5 6.9z" fill="#e58a7b"/><path d="M151 169.3c-6.2-5.8-1.2-7.2-1.2-7.2s-6.9-2.9-4.2 3.2c3.8 8.4-6.8 5.8-11.8 0-3.1-3.6-11.4 0-11 3.6s-12.5.8-6.6 8.4c.1 8 3.2 15.8 7.3 18 7.1 3.5 12.4-6.6 14.4-14.7 10.7 5.2 19.6-5.4 13.2-11.3z" fill="#263238"/><path d="M132.5 185.5a8.3 8.3 0 001.8 5c1.5 1.8 3.2.8 3.6-1.3.4-2 0-5.2-1.9-6.3s-3.5.4-3.5 2.6z" fill="#e58a7b"/><path d="M116.3 169.8a13.5 13.5 0 018.8 3s-1.8-7.8-8.8-3z" fill="#263238"/><path d="M131.4 272.9s1.5 29.7 7 56A31 31 0 01134 353c-14.3 20.4-37 47.6-37 47.6l-11.9-1.3s19.3-35.7 29.2-53.4c2.2-4 4.2-7.7 2.5-12-16.3-41.5-7.5-61-7.5-61z" fill="#fff2c3"/><path d="M131.4 272.9s1.5 29.7 7 56A31 31 0 01134 353c-14.3 20.4-37 47.6-37 47.6l-11.9-1.3s19.3-35.7 29.2-53.4c2.2-4 4.2-7.7 2.5-12-16.3-41.5-7.5-61-7.5-61z" opacity=".3"/><path d="M133.6 298.6L122.2 285c-.4 6 3.3 28.9 16 42.9a349 349 0 01-4.6-29.3z" fill="#fff2c3"/><path d="M133.6 298.6L122.2 285c-.4 6 3.3 28.9 16 42.9a349 349 0 01-4.6-29.3z" opacity=".4"/><path fill="#fff2c3" d="M100.4 398.8l-2.3 4.8-14.4-3.7 1.2-4.4 15.5 3.3z"/><path opacity=".1" d="M100.4 398.8l-2.3 4.8-14.4-3.7 1.2-4.4 15.5 3.3z"/><path fill="#e58a7b" d="M143 409.6h7.4l2.2-17h-7.4l-2.1 17z"/><path d="M153.7 410a12.3 12.3 0 01-2.3-.2.2.2 0 01-.1-.1.2.2 0 010-.2c.2 0 2.7-1.5 4-1.2a.9.9 0 01.5.4.7.7 0 010 .8c-.3.4-1.2.5-2.2.5zm-1.7-.5c1.3.2 3.2.2 3.5-.3v-.3a.5.5 0 00-.3-.3c-.8-.2-2.3.5-3.2 1z" fill="#fff2c3"/><path d="M151.4 409.8a.2.2 0 01-.2-.1c0-.1.3-2.1 1.2-2.9a1.3 1.3 0 011-.3c.5 0 .6.3.6.5.2.8-1.6 2.4-2.5 2.8zm1.8-3a1 1 0 00-.6.2 4.1 4.1 0 00-1 2.3c1-.5 2.1-1.8 2-2.3l-.3-.2z" fill="#fff2c3"/><path d="M150.6 408.8h-8a.6.6 0 00-.6.5l-1.4 6.5a1 1 0 001 1.3l10.7-.2 13 .2c3 0 3.8-3 2.5-3.3-5.7-1.2-10.4-1.4-15.4-4.4a3.3 3.3 0 00-1.8-.6z" fill="#263238"/><path fill="#cf6f64" d="M145.2 392.6h7.4L151 405l-7.2-1 1.4-11.4z"/><path d="M148.6 272.9s6.2 20.5 16.3 47a36.9 36.9 0 012.3 24.1c-7.1 22.6-13.3 56.6-13.3 56.6l-12.2-1.3s-.5-34.7 3.9-52.6c2.2-9.1 1.4-12.5-.9-15.5-31.2-41.5-22.8-58.3-22.8-58.3z" fill="#fff2c3"/><path d="M148.6 272.9s6.2 20.5 16.3 47a36.9 36.9 0 012.3 24.1c-7.1 22.6-13.3 56.6-13.3 56.6l-12.2-1.3s-.5-34.7 3.9-52.6c2.2-9.1 1.4-12.5-.9-15.5-31.2-41.5-22.8-58.3-22.8-58.3z" opacity=".3"/><path fill="#fff2c3" d="M156 398.5l-.6 5L141 401l-.4-4.5 15.6 2z"/><path opacity=".1" d="M156 398.5l-.6 5L141 401l-.4-4.5 15.6 2z"/></g><g><path fill="#fff2c3" d="M249.8 148.7h12.5v1h-12.5z"/><path opacity=".2" d="M249.8 148.7h12.5v1h-12.5z"/><path d="M225.8 107.5h67.8a6.8 6.8 0 016.8 6.8v25.1a6.8 6.8 0 01-6.8 6.8h-4.7l1.8 7.4a19.6 19.6 0 01-13.6-7.4h-51.3a6.8 6.8 0 01-6.8-6.8v-25.1a6.8 6.8 0 016.8-6.8z" fill="#fff2c3"/><path d="M225.8 107.5h67.8a6.8 6.8 0 016.8 6.8v25.1a6.8 6.8 0 01-6.8 6.8h-4.7l1.8 7.4a19.6 19.6 0 01-13.6-7.4h-51.3a6.8 6.8 0 01-6.8-6.8v-25.1a6.8 6.8 0 016.8-6.8z" opacity=".2"/><path fill="#fff2c3" d="M262.2 72.2h1v8.3h-1z"/><path fill="#fafafa" opacity=".1" d="M262.2 72.2h1v8.3h-1z"/><path d="M252.9 61.2h-67.7a6.8 6.8 0 00-6.8 6.8v25.2a6.8 6.8 0 006.8 6.8h4.7l-1.9 7.4a19.6 19.6 0 0013.7-7.4h51.2a6.8 6.8 0 006.8-6.8V68a6.8 6.8 0 00-6.8-6.8z" fill="#fff2c3"/><path d="M252.9 61.2h-67.7a6.8 6.8 0 00-6.8 6.8v25.2a6.8 6.8 0 006.8 6.8h4.7l-1.9 7.4a19.6 19.6 0 0013.7-7.4h51.2a6.8 6.8 0 006.8-6.8V68a6.8 6.8 0 00-6.8-6.8z" fill="#fafafa" opacity=".1"/></g></svg>