<svg width="440" height="400" viewBox="0 0 440 400" fill="none" xmlns="http://www.w3.org/2000/svg">
<g clip-path="url(#clip0)">
<path d="M352.633 309.755C349.05 309.755 345.547 308.728 342.568 306.804C339.589 304.88 337.267 302.146 335.896 298.946C334.525 295.746 334.166 292.226 334.865 288.829C335.564 285.432 337.289 282.312 339.823 279.864C342.356 277.415 345.584 275.747 349.099 275.071C352.613 274.396 356.255 274.743 359.566 276.068C362.876 277.393 365.705 279.638 367.696 282.517C369.687 285.397 370.749 288.782 370.749 292.245C370.744 296.888 368.833 301.338 365.437 304.621C362.041 307.904 357.436 309.75 352.633 309.755Z" fill="#CCCCCC"/>
<path d="M360.994 291.572H353.33V283.153C353.33 282.975 353.256 282.803 353.126 282.677C352.995 282.551 352.818 282.48 352.633 282.48C352.448 282.48 352.271 282.551 352.14 282.677C352.01 282.803 351.936 282.975 351.936 283.153V291.572H344.272C344.087 291.572 343.91 291.643 343.779 291.769C343.648 291.895 343.575 292.067 343.575 292.245C343.575 292.424 343.648 292.595 343.779 292.721C343.91 292.848 344.087 292.919 344.272 292.919H351.936V301.337C351.936 301.516 352.01 301.687 352.14 301.813C352.271 301.94 352.448 302.01 352.633 302.01C352.818 302.01 352.995 301.94 353.126 301.813C353.256 301.687 353.33 301.516 353.33 301.337V292.919H360.994C361.179 292.919 361.356 292.848 361.487 292.721C361.617 292.595 361.691 292.424 361.691 292.245C361.691 292.067 361.617 291.895 361.487 291.769C361.356 291.643 361.179 291.572 360.994 291.572Z" fill="white"/>
<path d="M422.398 391.809L414.432 391.809L410.644 362.111L422.4 362.112L422.398 391.809Z" fill="#FFB8B8"/>
<path d="M408.742 389.608H424.104V398.957H399.07C399.07 397.73 399.32 396.514 399.806 395.38C400.292 394.245 401.005 393.215 401.903 392.347C402.801 391.479 403.867 390.79 405.041 390.32C406.214 389.85 407.472 389.608 408.742 389.608Z" fill="#2F2E41"/>
<path d="M390.694 391.809L382.729 391.809L378.941 362.111L390.697 362.112L390.694 391.809Z" fill="#FFB8B8"/>
<path d="M377.039 389.608H392.401V398.957H367.367C367.367 397.73 367.617 396.514 368.103 395.38C368.589 394.245 369.301 393.215 370.2 392.347C371.098 391.479 372.164 390.79 373.338 390.32C374.511 389.85 375.769 389.608 377.039 389.608Z" fill="#2F2E41"/>
<path d="M428.534 289.139C427.893 288.454 427.415 287.642 427.134 286.76C426.852 285.878 426.774 284.947 426.906 284.032C427.037 283.118 427.374 282.242 427.893 281.467C428.413 280.692 429.101 280.037 429.911 279.547L427.444 265.315L436.026 261.756L439.219 281.902C439.98 283.272 440.195 284.863 439.823 286.375C439.451 287.888 438.519 289.216 437.202 290.108C435.885 291 434.275 291.394 432.677 291.215C431.08 291.036 429.606 290.298 428.534 289.139Z" fill="#FFB8B8"/>
<path d="M361.339 282.414C362.088 281.841 362.698 281.117 363.126 280.291C363.555 279.466 363.79 278.56 363.817 277.637C363.844 276.714 363.661 275.797 363.282 274.95C362.902 274.103 362.335 273.346 361.62 272.734L366.486 259.091L358.629 254.211L352.038 273.571C351.053 274.8 350.569 276.335 350.677 277.886C350.785 279.436 351.478 280.895 352.624 281.985C353.771 283.075 355.291 283.721 356.897 283.8C358.503 283.879 360.084 283.386 361.339 282.414Z" fill="#FFB8B8"/>
<path d="M402.135 181.906C411.586 181.906 419.248 174.5 419.248 165.365C419.248 156.229 411.586 148.824 402.135 148.824C392.683 148.824 385.021 156.229 385.021 165.365C385.021 174.5 392.683 181.906 402.135 181.906Z" fill="#FFB8B8"/>
<path d="M360.81 272.207C360.516 272.207 360.224 272.167 359.942 272.088L354.954 270.704C354.157 270.481 353.484 269.963 353.081 269.263C352.678 268.563 352.578 267.737 352.802 266.965L363.096 231.836L377.451 197.775C378.879 194.389 381.861 192.168 385.234 191.98C386.775 191.907 388.304 192.268 389.637 193.018C390.97 193.768 392.049 194.876 392.744 196.207C393.516 197.632 393.94 199.208 393.983 200.816C394.026 202.424 393.687 204.02 392.993 205.481L376.676 239.97L363.705 270.332C363.469 270.886 363.067 271.361 362.552 271.694C362.036 272.028 361.43 272.206 360.81 272.207Z" fill="#3F3D56"/>
<path d="M411.792 179.236L402.284 179.4C401.293 179.419 400.312 179.212 399.419 178.797C398.527 178.382 397.747 177.77 397.144 177.011C396.541 176.251 396.131 175.366 395.947 174.425C395.763 173.484 395.81 172.514 396.085 171.594C396.289 170.93 396.441 170.252 396.542 169.566C396.649 168.817 396.67 168.06 396.605 167.307C396.544 166.553 396.221 165.842 395.687 165.289C395.154 164.736 394.442 164.375 393.668 164.265C392.894 164.154 392.104 164.302 391.428 164.682C390.752 165.062 390.23 165.654 389.947 166.359C388.349 166.381 384.943 165.877 383.344 165.899C379.949 157.487 387.347 146.481 395.31 142.346C403.428 138.132 413.966 142.42 417.078 151.204C421.397 151.279 424.906 155.396 425.463 160.03C426.019 164.665 424.046 169.504 421.029 173.056C418.011 176.608 414.049 179.198 411.792 179.236Z" fill="#2F2E41"/>
<path d="M380.536 389.037C379.766 389.032 379.024 388.755 378.451 388.257C377.878 387.76 377.514 387.076 377.428 386.336L373.9 271.688L418.345 274.746L418.379 275.022C428.423 356.285 424.99 384.415 424.954 384.689C424.929 385.105 424.816 385.511 424.622 385.883C424.427 386.255 424.155 386.584 423.824 386.849C423.492 387.115 423.107 387.311 422.693 387.427C422.279 387.542 421.845 387.574 421.417 387.52L411.595 387.747C410.851 387.666 410.161 387.329 409.651 386.798C409.141 386.268 408.845 385.578 408.816 384.854L399.638 301.816C399.582 301.6 399.448 301.41 399.261 301.28C399.075 301.15 398.846 301.088 398.617 301.104C398.38 301.104 398.151 301.182 397.968 301.327C397.785 301.471 397.66 301.673 397.614 301.897L394.068 385.207C394.106 385.981 393.835 386.739 393.311 387.324C392.787 387.909 392.05 388.278 391.253 388.353L380.848 389.021C380.745 389.031 380.641 389.037 380.536 389.037Z" fill="#2F2E41"/>
<path d="M398.979 285.387C398.713 285.387 398.448 285.383 398.181 285.375C385.401 285.003 375.402 275.658 372.643 272.802C372.291 272.438 372.038 271.995 371.907 271.514C371.775 271.032 371.769 270.527 371.889 270.043L379.262 239.895L377.306 213.686C376.999 210.048 377.492 206.389 378.754 202.95C380.016 199.51 382.017 196.367 384.626 193.729C386.8 191.509 389.442 189.767 392.374 188.621C395.306 187.474 398.458 186.95 401.618 187.085C414.059 187.659 423.874 198.407 423.962 211.553C424.1 231.916 423.48 233.315 423.276 233.774C417.067 247.78 420.458 267.44 421.645 273.133C421.751 273.641 421.721 274.166 421.558 274.66C421.395 275.153 421.105 275.598 420.714 275.953C413.885 282.215 406.576 285.387 398.979 285.387Z" fill="#3F3D56"/>
<path d="M431.076 277.724C430.366 277.723 429.678 277.49 429.124 277.063C428.57 276.635 428.182 276.039 428.023 275.37L420.417 243.342L410.223 206.734C409.787 205.182 409.726 203.554 410.043 201.975C410.361 200.397 411.048 198.909 412.053 197.627C412.967 196.426 414.22 195.506 415.663 194.979C417.106 194.452 418.675 194.34 420.182 194.657C423.477 195.382 426.039 198.048 426.868 201.616L435.198 237.464L439.352 273.791C439.441 274.588 439.201 275.387 438.684 276.013C438.167 276.639 437.414 277.043 436.591 277.135L431.435 277.704C431.316 277.717 431.196 277.724 431.076 277.724Z" fill="#3F3D56"/>
<path d="M21.4827 281.178C22.3853 280.58 23.1412 279.798 23.6973 278.887C24.2533 277.976 24.5959 276.958 24.701 275.905C24.8061 274.852 24.6711 273.79 24.3055 272.793C23.9399 271.796 23.3526 270.889 22.5849 270.135L25.4885 207.491L10.7061 209.094L11.5649 270.37C10.3403 271.7 9.66307 273.418 9.66162 275.199C9.66018 276.98 10.3346 278.699 11.5571 280.031C12.7796 281.364 14.4652 282.216 16.2946 282.427C18.124 282.639 19.9699 282.194 21.4827 281.178Z" fill="#FFB8B8"/>
<path d="M48.4494 387.221L56.8629 388.651L65.1782 357.965L54.1546 355.855L48.4494 387.221Z" fill="#FFB8B8"/>
<path d="M71.7151 398.959L45.2734 394.466L47.0694 384.591L63.295 387.348C64.6366 387.576 65.9186 388.057 67.0678 388.764C68.217 389.471 69.2109 390.39 69.9928 391.468C70.7747 392.546 71.3292 393.762 71.6247 395.048C71.9202 396.333 71.9509 397.662 71.7151 398.959Z" fill="#2F2E41"/>
<path d="M25.3569 391.291H33.8994L37.9629 359.444L25.3555 359.445L25.3569 391.291Z" fill="#FFB8B8"/>
<path d="M50.3741 398.957L23.5269 398.959L23.5264 388.933L40.0009 388.932C42.7519 388.932 45.3903 389.988 47.3356 391.868C49.281 393.748 50.374 396.298 50.3741 398.957Z" fill="#2F2E41"/>
<path d="M61.6957 382.571C61.5624 382.571 61.4292 382.563 61.2968 382.548L51.2424 381.748C50.7846 381.696 50.3425 381.555 49.9431 381.332C49.5436 381.11 49.195 380.812 48.9185 380.455C48.6421 380.099 48.4435 379.692 48.3348 379.259C48.2261 378.826 48.2096 378.376 48.2863 377.937L57.5706 327.641L51.2972 295.669C51.246 295.409 51.0994 295.176 50.8844 295.013C50.6693 294.849 50.4004 294.767 50.1272 294.78C49.854 294.793 49.5949 294.901 49.3977 295.084C49.2005 295.268 49.0785 295.514 49.0542 295.777L41.2115 381.057C41.1254 381.912 40.6987 382.702 40.0215 383.26C39.3442 383.817 38.4695 384.099 37.5816 384.045L28.1092 383.704C27.279 383.647 26.4992 383.298 25.9168 382.724C25.3345 382.149 24.9899 381.388 24.9483 380.585L24.3115 278.374L73.4209 272.441L76.8515 323.652L76.8379 323.706L64.9992 380.059C64.8188 380.775 64.3953 381.411 63.7964 381.866C63.1974 382.322 62.4577 382.57 61.6957 382.571Z" fill="#2F2E41"/>
<path d="M40.5028 166.896C49.9543 166.896 57.6163 159.49 57.6163 150.355C57.6163 141.22 49.9543 133.814 40.5028 133.814C31.0513 133.814 23.3893 141.22 23.3893 150.355C23.3893 159.49 31.0513 166.896 40.5028 166.896Z" fill="#FFB8B8"/>
<path d="M56.6279 285.845C53.9514 285.86 51.3263 285.134 49.0631 283.753C40.7733 278.745 31.3577 280.736 26.4829 282.368C25.9991 282.532 25.4834 282.588 24.9741 282.531C24.4649 282.475 23.9754 282.309 23.5421 282.044C23.1139 281.784 22.752 281.434 22.4835 281.02C22.2151 280.606 22.0472 280.138 21.9922 279.652L13.1275 203.129C11.642 190.308 19.6325 178.253 32.1269 174.466C32.5963 174.324 33.0736 174.189 33.5589 174.062C37.447 173.043 41.519 172.86 45.4882 173.525C49.4574 174.191 53.2274 175.69 56.5329 177.916C59.8999 180.166 62.7158 183.102 64.7824 186.517C66.8489 189.933 68.116 193.744 68.4943 197.684L75.957 274.72C76.0078 275.219 75.9382 275.722 75.7535 276.19C75.5689 276.659 75.2743 277.079 74.8929 277.419C72.2769 279.758 64.6841 285.844 56.6279 285.845Z" fill="#FFF2C3"/>
<path d="M29.6341 219.539L9.63438 217.413C9.06533 217.353 8.51645 217.175 8.02513 216.891C7.53382 216.607 7.11161 216.224 6.78724 215.768C6.46287 215.312 6.24398 214.794 6.14548 214.248C6.04697 213.703 6.07117 213.144 6.21641 212.609L11.3071 193.855C11.6437 191.043 13.1204 188.475 15.4133 186.713C17.7063 184.951 20.6283 184.141 23.5389 184.458C26.4494 184.776 29.1109 186.196 30.9397 188.408C32.7685 190.619 33.6154 193.441 33.2947 196.255L34.0504 215.567C34.0719 216.12 33.9698 216.671 33.7511 217.182C33.5324 217.694 33.2023 218.153 32.7832 218.53C32.3641 218.907 31.8658 219.192 31.3224 219.366C30.779 219.54 30.2031 219.599 29.6341 219.539V219.539Z" fill="#FFF2C3"/>
<path d="M75.8769 278.495C76.6984 277.796 77.3513 276.932 77.7897 275.963C78.2281 274.994 78.4413 273.944 78.4144 272.886C78.3875 271.829 78.121 270.79 77.6337 269.843C77.1465 268.896 76.4503 268.064 75.5943 267.405L70.6661 204.879L56.1812 208.03L64.6838 268.921C63.634 270.384 63.176 272.169 63.3966 273.937C63.6171 275.705 64.501 277.333 65.8807 278.513C67.2604 279.694 69.0401 280.344 70.8824 280.34C72.7248 280.337 74.5019 279.68 75.8769 278.495Z" fill="#FFB8B8"/>
<path d="M50.6279 215.608C50.2086 215.231 49.8784 214.772 49.6597 214.26C49.441 213.749 49.3391 213.198 49.3608 212.645L50.1166 193.333C49.7959 190.519 50.6428 187.697 52.4716 185.486C54.3004 183.274 56.9618 181.854 59.8724 181.536C62.7829 181.219 65.705 182.03 67.9979 183.791C70.2909 185.553 71.7676 188.121 72.1042 190.933L77.1949 209.687C77.3401 210.222 77.3643 210.781 77.2658 211.327C77.1673 211.872 76.9484 212.39 76.624 212.846C76.2997 213.302 75.8775 213.685 75.3861 213.969C74.8948 214.253 74.3459 214.431 73.7769 214.491L53.7772 216.617C53.2081 216.678 52.6321 216.619 52.0886 216.445C51.5451 216.271 51.0468 215.985 50.6279 215.608Z" fill="#FFF2C3"/>
<path d="M39.4849 167.519C39.1807 167.519 38.8776 167.485 38.5815 167.417L38.4945 167.397C23.4481 165.172 20.1229 156.748 19.393 153.231C18.6375 149.588 19.4978 146.073 21.4416 144.707C20.3818 141.473 20.552 138.605 21.9484 136.18C24.3839 131.95 29.6694 130.52 30.3782 130.345C34.5994 127.335 39.6498 129.344 40.5687 129.752C48.7338 126.832 51.8547 129.263 52.4191 129.805C56.069 130.439 58.2937 131.802 59.0323 133.856C60.4196 137.716 56.0324 142.517 55.845 142.72L55.7477 142.825L49.2118 143.126C48.5917 143.154 47.9846 143.308 47.4301 143.578C46.8756 143.848 46.386 144.228 45.993 144.693C45.6001 145.157 45.3125 145.696 45.1491 146.275C44.9857 146.854 44.95 147.46 45.0443 148.053C45.2212 148.819 45.4447 149.573 45.7135 150.313C46.8298 153.685 47.6661 156.565 46.5874 157.66C46.343 157.872 46.0418 158.013 45.7183 158.067C45.3948 158.121 45.0621 158.087 44.7582 157.966C43.7363 157.703 43.0425 157.758 42.6968 158.131C42.1601 158.71 42.3239 160.175 43.1581 162.257C43.4199 162.915 43.4903 163.63 43.3619 164.324C43.2334 165.018 42.9109 165.665 42.4294 166.194C42.0668 166.608 41.6158 166.94 41.1075 167.169C40.5992 167.398 40.0456 167.517 39.4849 167.519Z" fill="#2F2E41"/>
<path d="M98.2449 400H0.696773C0.511977 400 0.334739 399.929 0.204069 399.803C0.0733986 399.676 0 399.505 0 399.327C0 399.148 0.0733986 398.977 0.204069 398.85C0.334739 398.724 0.511977 398.653 0.696773 398.653H98.2449C98.4297 398.653 98.607 398.724 98.7376 398.85C98.8683 398.977 98.9417 399.148 98.9417 399.327C98.9417 399.505 98.8683 399.676 98.7376 399.803C98.607 399.929 98.4297 400 98.2449 400Z" fill="#CCCCCC"/>
<path d="M438.27 400H340.722C340.537 400 340.36 399.929 340.229 399.803C340.099 399.676 340.025 399.505 340.025 399.327C340.025 399.148 340.099 398.977 340.229 398.85C340.36 398.724 340.537 398.653 340.722 398.653H438.27C438.455 398.653 438.632 398.724 438.763 398.85C438.893 398.977 438.967 399.148 438.967 399.327C438.967 399.505 438.893 399.676 438.763 399.803C438.632 399.929 438.455 400 438.27 400Z" fill="#CCCCCC"/>
<path d="M298.715 285.55H130.096C123.631 285.543 117.432 283.058 112.86 278.639C108.288 274.22 105.717 268.228 105.709 261.979V23.5714C105.717 17.322 108.288 11.3307 112.86 6.91173C117.432 2.49277 123.631 0.00709252 130.096 0H298.715C305.181 0.00709252 311.38 2.49277 315.951 6.91173C320.523 11.3307 323.095 17.322 323.102 23.5714V261.979C323.095 268.228 320.523 274.22 315.951 278.639C311.38 283.058 305.181 285.543 298.715 285.55Z" fill="white"/>
<path d="M272.238 189.264H156.574C144.759 189.209 144.71 171.814 156.574 171.754L272.238 171.754C284.045 171.808 284.109 189.204 272.238 189.264Z" fill="#CCCCCC"/>
<path d="M272.238 49.1432H156.574C144.759 49.0882 144.71 31.6927 156.574 31.6331L272.238 31.6331C284.045 31.6865 284.109 49.0834 272.238 49.1432Z" fill="#CCCCCC"/>
<path d="M272.238 221.591H156.574C144.759 221.536 144.71 204.14 156.574 204.081L272.238 204.081C284.045 204.134 284.109 221.531 272.238 221.591Z" fill="#CCCCCC"/>
<path d="M272.238 253.917H156.574C144.759 253.862 144.71 236.467 156.574 236.407L272.238 236.407C284.045 236.46 284.109 253.857 272.238 253.917Z" fill="#CCCCCC"/>
<path d="M270.148 150.742H158.664C155.616 150.738 152.694 149.567 150.538 147.483C148.383 145.4 147.171 142.576 147.167 139.63V79.2871C147.171 76.341 148.383 73.5165 150.538 71.4333C152.694 69.3501 155.616 68.1783 158.664 68.1749H270.148C273.196 68.1783 276.118 69.3501 278.273 71.4333C280.428 73.5165 281.641 76.341 281.644 79.2871V139.63C281.641 142.576 280.428 145.4 278.273 147.483C276.118 149.567 273.196 150.738 270.148 150.742Z" fill="#FFF2C3"/>
<path d="M298.715 285.55H130.096C123.631 285.543 117.432 283.058 112.86 278.639C108.288 274.22 105.717 268.228 105.709 261.979V23.5714C105.717 17.322 108.288 11.3307 112.86 6.91173C117.432 2.49277 123.631 0.00709252 130.096 0H298.715C305.181 0.00709252 311.38 2.49277 315.951 6.91173C320.523 11.3307 323.095 17.322 323.102 23.5714V261.979C323.095 268.228 320.523 274.22 315.951 278.639C311.38 283.058 305.181 285.543 298.715 285.55ZM130.096 4.04081C124.739 4.04666 119.603 6.10622 115.815 9.76764C112.027 13.4291 109.896 18.3933 109.89 23.5714V261.979C109.896 267.157 112.027 272.121 115.815 275.783C119.603 279.444 124.739 281.504 130.096 281.509H298.715C304.073 281.504 309.209 279.444 312.997 275.783C316.785 272.121 318.916 267.157 318.922 261.979V23.5714C318.916 18.3933 316.785 13.4291 312.997 9.76762C309.209 6.1062 304.073 4.04665 298.715 4.04081H130.096Z" fill="#E6E6E6"/>
</g>
<defs>
<clipPath id="clip0">
<rect width="440" height="400" fill="white"/>
</clipPath>
</defs>
</svg>
