<svg xmlns="http://www.w3.org/2000/svg" viewBox="0 0 500 500"><ellipse cx="249.1" cy="342.7" rx="236.5" ry="140.3" fill="#ebebeb"/><ellipse cx="316.6" cy="426.2" rx="61.6" ry="35.6" opacity=".1"/><path d="M458.8 308.9c-17.4-7.5-45-7.5-61.8 0s-16.8 19.6 0 27.1 44.4 7.5 61.8 0 17.3-19.6 0-27.1zM354.4 340.6l-103-59.4 43.7-25.2c2.1-1.3 2.1-3.3 0-4.6L256 229a8.8 8.8 0 00-8 0L21.7 359.7c-2.2 1.2-2.2 3.3 0 4.6l39 22.4a8.8 8.8 0 007.9 0L88 375.6 191 435z" opacity=".1"/><path d="M202.5 341.5L236 322c3.5-2 5.2-4.6 5.2-7.2v-4.6l-34.7-19.6a7.3 7.3 0 01-3.4-5.8v-41.4l-58.4 33.7v41.5a7.3 7.3 0 003.3 5.8l29.5 17c7 4 18.1 4 25 0z" fill="#fff2c3"/><path d="M202.5 341.5L236 322c3.5-2 5.2-4.6 5.2-7.2v-4.6l-34.7-19.6a7.3 7.3 0 01-3.4-5.8v-41.4l-58.4 33.7v41.5a7.3 7.3 0 003.3 5.8l29.5 17c7 4 18.1 4 25 0z" opacity=".4"/><path d="M158.7 326v4.6l-10.7-6.2a7.4 7.4 0 01-3.3-5.7v-41.5l11.1-6.4.7 8.6-7.8 4.5v32.4a7.3 7.3 0 003.3 5.8z" opacity=".2"/><path d="M148.7 316.4a7.4 7.4 0 003.3 5.7l25.5 14.7c7 4 18.1 4 25 0l33.5-19.3c6.9-4 6.9-10.5 0-14.4l-25.5-14.8a7.4 7.4 0 01-3.4-5.7V250L148.7 284z" fill="#fff2c3"/><path d="M148.7 316.4a7.4 7.4 0 003.3 5.7l25.5 14.7c7 4 18.1 4 25 0l33.5-19.3c6.9-4 6.9-10.5 0-14.4l-25.5-14.8a7.4 7.4 0 01-3.4-5.7V250L148.7 284z" opacity=".3"/><path d="M217.3 292.3l-6.8-4a7.4 7.4 0 01-3.4-5.7V250L148.7 284v32.5a7.4 7.4 0 003.3 5.7l6.7 3.9z" opacity=".1"/><path d="M241.2 310.3v4.6c0 2.6-1.8 5.2-5.2 7.2l-33.5 19.4a25.1 25.1 0 01-12 3v-4.7a25.1 25.1 0 0012-3l33.5-19.3c3.4-2 5.2-4.6 5.2-7.2z" fill="#fff2c3"/><path d="M241.2 310.3v4.6c0 2.6-1.8 5.2-5.2 7.2l-33.5 19.4a25.1 25.1 0 01-12 3v-4.7a25.1 25.1 0 0012-3l33.5-19.3c3.4-2 5.2-4.6 5.2-7.2z" opacity=".2"/><path d="M54.8 355.5c2.2 1.2 5.8 2.1 8 .8L289 225.8c2.3-1.4 4.2-9.4 4.2-12v-179a9 9 0 00-4-7 9 9 0 00-8 .1L55 158.5a9.2 9.2 0 00-4.2 7.2v182.7a9 9 0 004 7z" fill="#455a64"/><path d="M62.3 361a9 9 0 01-7.5-.1c-3.2-1.9-3.9-5.4-3.9-8V337l7.8 4.5v16.9c0 2.4 1.6 3.4 3.6 2.6z" fill="#fff2c3"/><path d="M62.3 361a9 9 0 01-7.5-.1c-3.2-1.9-3.9-5.4-3.9-8V337l7.8 4.5v16.9c0 2.4 1.6 3.4 3.6 2.6z" opacity=".4"/><path d="M62.9 356.3L289 225.8c2.3-1.4 4.2-9.4 4.2-12v-179c0-2.6-1.9-3.7-4.2-2.4L62.9 163a9.2 9.2 0 00-4.2 7.2V353c0 2.7 1.9 4.7 4.2 3.4z" fill="#37474f"/><path d="M58.7 341.5v16.8c0 2.7 1.9 3.7 4.2 2.4L289 230.2a9.2 9.2 0 004.2-7.2V206z" fill="#fff2c3"/><path d="M58.7 341.5v16.8c0 2.7 1.9 3.7 4.2 2.4L289 230.2a9.2 9.2 0 004.2-7.2V206z" opacity=".3"/><path d="M66.5 320.6V172.8a5.5 5.5 0 012.5-4.4L282.8 45c1.4-.8 2.5-.1 2.5 1.4v147.9a5.5 5.5 0 01-2.5 4.3L69 322c-1.3.8-2.5.2-2.5-1.4z" fill="#fff2c3"/><path d="M66.5 320.6V172.8a5.5 5.5 0 012.5-4.4L282.8 45c1.4-.8 2.5-.1 2.5 1.4v147.9a5.5 5.5 0 01-2.5 4.3L69 322c-1.3.8-2.5.2-2.5-1.4z" fill="#fff2c3"/><path d="M66.5 320.6V172.8a5.5 5.5 0 012.5-4.4L282.8 45c1.4-.8 2.5-.1 2.5 1.4v147.9a5.5 5.5 0 01-2.5 4.3L69 322c-1.3.8-2.5.2-2.5-1.4z" fill="#fff" opacity=".5"/><path d="M176 279.8a7.6 7.6 0 00-3.5 6c0 2.2 1.5 3 3.4 2a7.6 7.6 0 003.5-6c0-2.2-1.6-3.1-3.5-2z" fill="#455a64"/><path d="M60 166a8.9 8.9 0 00-1.2 4.2v171.3l-7.9-4.5V165.7a8.6 8.6 0 011.2-4.1z" fill="#263238"/><path fill="#ebebeb" d="M251.4 83.5L92 175.6v133.2l-.6.3-.9.6-2.3 1.4V173.4l159.5-92.1 3 1.7.8.5z"/><path fill="#f0f0f0" d="M251.4 83.5v133.2L97.6 305.5l-3.8 2.2-1 .6-.9.5V175.6l159.5-92.1z"/><path fill="#fafafa" d="M247.6 81.3l3.8 2.2L92 175.6l-3.8-2.2 159.5-92.1z"/><path fill="#fff2c3" d="M252.8 82.7l-1.4.8L92 175.6l-.6.3v133.2l-.9.6V175.4l.6-.3L250.5 83l1.4-.8.9.5z"/><path opacity=".1" d="M252.8 82.7l-1.4.8L92 175.6l-.6.3v133.2l-.9.6V175.4l.6-.3L250.5 83l1.4-.8.9.5z"/><path d="M251.4 83.5L92 175.6l-.6.3v133.2l.6-.3 1-.5 1-.6 3.7-2.1 153.8-88.9 1.4-.7V82.7z" fill="#fff2c3"/><path d="M251.4 83.5L92 175.6l-.6.3v133.2l.6-.3 1-.5 1-.6 3.7-2.1 153.8-88.9 1.4-.7V82.7z" opacity=".1"/><path fill="#fff2c3" d="M251.9 82.2l.9.5L91.3 176l-.9-.5L252 82.2z"/><path fill="#fff" opacity=".4" d="M251.9 82.2l.9.5L91.3 176l-.9-.5L252 82.2z"/><path fill="#fff2c3" d="M254.3 83.6l-1.5.9-1.4.8-46.6 26.9-112 64.6v131.5l-.9.5V176.3l159.5-92.1 1.4-.8.6-.4.9.6z"/><path opacity=".1" d="M254.3 83.6l-1.5.9-1.4.8-46.6 26.9-112 64.6v131.5l-.9.5V176.3l159.5-92.1 1.4-.8.6-.4.9.6z"/><path d="M252.8 84.5l-1.4.8-46.6 26.9-112 64.6v131.5l1-.6 3.8-2.2 153.8-88.8 1.4-.7 1.5-1V83.7z" fill="#fff2c3"/><path fill="#fff2c3" d="M253.3 83l1 .6-161.5 93.2-.9-.5L253.3 83z"/><path fill="#fff" opacity=".4" d="M253.3 83l1 .6-161.5 93.2-.9-.5L253.3 83z"/><path fill="#ebebeb" d="M257.1 86.8l-2.8 1.7-1.5.8-1.4.8L97.6 179v126.6l-3.8 2.2v-131l157.6-91 1.4-.8.5-.3 1 .6 2.8 1.6z"/><path fill="#fafafa" d="M253.3 84.6l3.8 2.2-159.5 92.1-3.8-2.2 159.5-92.1z"/><path fill="#e0e0e0" d="M97.6 179v126.5l159.5-92V86.7L97.6 179z"/><g><path d="M268.5 181.9l-11.4-95-159.5 92 11.6 95.9A248 248 0 00190.5 430l.5.4 159.5-92a247.9 247.9 0 01-82-156.6z" fill="#f5f5f5"/><path d="M105.3 179.6c1-.7 2-.2 2 1.1a4.4 4.4 0 01-2 3.5c-1.1.6-2 0-2-1.2a4.4 4.4 0 012-3.4z" fill="#37474f"/><path d="M99.7 163.6c-2.2-1.2-4.3-1.4-5.9-.5s-2.5 2.9-2.5 5.4a12.2 12.2 0 00.4 2.8l1.3-.8a10.5 10.5 0 01-.2-2c0-2 .6-3.4 1.7-4.1s2.7-.5 4.4.5a15.2 15.2 0 016.9 12 6.2 6.2 0 01-.6 2.7 3.1 3.1 0 01-1.2 1.3 4.2 4.2 0 00-.7 1.8 4.2 4.2 0 001.5-.6 4.7 4.7 0 002-2.6 8.1 8.1 0 00.5-2.7 16.8 16.8 0 00-7.6-13.2z" fill="#fff2c3"/><path d="M115 174c1.1-.6 2-.1 2 1.1a4.4 4.4 0 01-2 3.5c-1.1.6-2 .1-2-1.1a4.4 4.4 0 012-3.5z" fill="#37474f"/><path d="M109.3 158c-2.1-1.3-4.2-1.4-5.8-.5s-2.5 2.8-2.5 5.3a12.2 12.2 0 00.3 2.9l1.4-.8a10.4 10.4 0 01-.2-2c0-2 .6-3.4 1.7-4s2.7-.6 4.4.4a15.2 15.2 0 016.9 12 6 6 0 01-.6 2.7 3.2 3.2 0 01-1.2 1.3 4.1 4.1 0 00-.7 1.8 4.2 4.2 0 001.5-.5 4.7 4.7 0 002-2.7 8.1 8.1 0 00.5-2.7 16.8 16.8 0 00-7.7-13.2z" fill="#fff2c3"/><path d="M124.7 168.4c1-.7 2-.2 2 1.1a4.4 4.4 0 01-2 3.5c-1.2.6-2 0-2-1.2a4.4 4.4 0 012-3.4z" fill="#37474f"/><path d="M119 152.4c-2.2-1.2-4.3-1.4-5.9-.5s-2.4 2.9-2.4 5.4a12.2 12.2 0 00.3 2.8l1.3-.8a10.5 10.5 0 01-.2-2c0-2 .7-3.4 1.8-4s2.7-.6 4.4.4a15.2 15.2 0 016.8 12 6 6 0 01-.5 2.7 3.2 3.2 0 01-1.2 1.3h-.1a4.3 4.3 0 00-.7 1.8 4 4 0 001.5-.5 4.7 4.7 0 002-2.7 8.1 8.1 0 00.5-2.7 16.8 16.8 0 00-7.6-13.2z" fill="#fff2c3"/><path d="M134.3 162.8c1.1-.7 2-.2 2 1.1a4.4 4.4 0 01-2 3.5c-1 .6-2 .1-2-1.2a4.4 4.4 0 012-3.4z" fill="#37474f"/><path d="M128.7 146.8c-2.1-1.2-4.2-1.4-5.8-.5s-2.5 2.9-2.5 5.4a12.2 12.2 0 00.3 2.8l1.4-.8a10.4 10.4 0 01-.3-2c0-2 .7-3.4 1.8-4s2.7-.5 4.4.5a15.2 15.2 0 016.9 11.8 6 6 0 01-.6 2.8 3.2 3.2 0 01-1.2 1.2l-.1.1a4.3 4.3 0 00-.6 1.8 4.2 4.2 0 001.4-.6 4.7 4.7 0 002.1-2.6 8.1 8.1 0 00.4-2.7 16.8 16.8 0 00-7.6-13.2z" fill="#fff2c3"/><path d="M144 157.2c1.1-.7 2-.2 2 1.1a4.4 4.4 0 01-2 3.5c-1.1.6-2 .1-2-1.2a4.4 4.4 0 012-3.4z" fill="#37474f"/><path d="M138.4 141.3c-2.2-1.3-4.2-1.5-5.8-.6s-2.5 2.9-2.5 5.4a12.2 12.2 0 00.3 2.8l1.3-.8a10.5 10.5 0 01-.2-2c0-2 .7-3.4 1.8-4s2.7-.5 4.4.4a15.2 15.2 0 016.9 12 6 6 0 01-.6 2.7 3.2 3.2 0 01-1.2 1.3h-.1a4.5 4.5 0 00-.6 1.8 4 4 0 001.4-.5 4.7 4.7 0 002.1-2.6 8.1 8.1 0 00.4-2.8 16.8 16.8 0 00-7.6-13.1z" fill="#fff2c3"/><path d="M153.7 151.6c1.1-.7 2-.1 2 1.1a4.4 4.4 0 01-2 3.5c-1 .6-2 .1-2-1.2a4.4 4.4 0 012-3.4z" fill="#37474f"/><path d="M148.1 135.7c-2.2-1.3-4.2-1.5-5.8-.5s-2.5 2.8-2.5 5.3a12.7 12.7 0 00.3 2.8l1.3-.8a10.4 10.4 0 01-.2-2c0-2 .7-3.4 1.8-4s2.7-.5 4.4.5a15.2 15.2 0 016.8 11.9 6 6 0 01-.5 2.7 3.2 3.2 0 01-1.2 1.3l-.1.1a4.4 4.4 0 00-.7 1.7 4.3 4.3 0 001.5-.5 4.7 4.7 0 002.1-2.6 8.1 8.1 0 00.4-2.7 16.9 16.9 0 00-7.6-13.2z" fill="#fff2c3"/><path d="M163.4 146c1.1-.6 2-.1 2 1.1a4.4 4.4 0 01-2 3.5c-1 .7-2 .1-2-1.1a4.4 4.4 0 012-3.5z" fill="#37474f"/><path d="M157.8 130c-2.2-1.2-4.3-1.4-5.9-.4s-2.5 2.8-2.5 5.3a12.8 12.8 0 00.4 2.8l1.3-.7a11.3 11.3 0 01-.2-2.1c0-2 .7-3.4 1.8-4s2.7-.5 4.4.4a15.2 15.2 0 016.8 12 6 6 0 01-.5 2.7 3.2 3.2 0 01-1.2 1.3h-.1a4.4 4.4 0 00-.7 1.8 4.1 4.1 0 001.5-.5 4.7 4.7 0 002.1-2.6 8.1 8.1 0 00.4-2.7 16.9 16.9 0 00-7.6-13.2z" fill="#fff2c3"/><path d="M173.1 140.4c1.1-.7 2-.1 2 1.1a4.4 4.4 0 01-2 3.5c-1 .6-2 .1-2-1.2a4.4 4.4 0 012-3.4z" fill="#37474f"/><path d="M167.5 124.5c-2.2-1.3-4.3-1.5-5.9-.5s-2.5 2.8-2.5 5.3a12.7 12.7 0 00.4 2.8l1.3-.7a11.2 11.2 0 01-.2-2.1c0-2 .6-3.4 1.8-4s2.7-.5 4.4.5a15.2 15.2 0 016.8 12 6 6 0 01-.5 2.7 3 3 0 01-1.2 1.3h-.1a4.4 4.4 0 00-.7 1.8 4.3 4.3 0 001.5-.6 4.7 4.7 0 002-2.6 8.1 8.1 0 00.5-2.7 16.9 16.9 0 00-7.6-13.2z" fill="#fff2c3"/><path d="M182.8 134.8c1.1-.6 2-.1 2 1.1a4.4 4.4 0 01-2 3.5c-1.1.6-2 .1-2-1.1a4.4 4.4 0 012-3.5z" fill="#37474f"/><path d="M177.2 118.9c-2.2-1.3-4.3-1.5-5.9-.5s-2.5 2.8-2.5 5.3a12.8 12.8 0 00.4 2.8l1.3-.7a11.3 11.3 0 01-.2-2.1c0-2 .6-3.4 1.8-4s2.7-.5 4.4.4a15.2 15.2 0 016.8 12 6 6 0 01-.5 2.7 3.2 3.2 0 01-1.2 1.3h-.2a4.4 4.4 0 00-.6 1.8 4.1 4.1 0 001.5-.5 4.7 4.7 0 002-2.6 8.1 8.1 0 00.5-2.7 16.9 16.9 0 00-7.6-13.2z" fill="#fff2c3"/><path d="M192.5 129.2c1-.6 2-.1 2 1.1a4.4 4.4 0 01-2 3.5c-1.1.6-2 .1-2-1.2a4.4 4.4 0 012-3.4z" fill="#37474f"/><path d="M186.9 113.3c-2.2-1.3-4.3-1.4-5.9-.5s-2.5 2.8-2.5 5.3a12.7 12.7 0 00.4 2.8l1.3-.7a11.2 11.2 0 01-.2-2.1c0-2 .6-3.4 1.8-4s2.6-.5 4.3.5a15.2 15.2 0 016.9 11.9 6 6 0 01-.6 2.7 3.2 3.2 0 01-1.2 1.3 4.4 4.4 0 00-.7 1.8 4.3 4.3 0 001.5-.5 4.8 4.8 0 002-2.6 8.4 8.4 0 00.5-2.7 16.9 16.9 0 00-7.6-13.2z" fill="#fff2c3"/><path d="M202.2 123.6c1-.6 2-.1 2 1.1a4.4 4.4 0 01-2 3.5c-1.1.7-2 .1-2-1.1a4.4 4.4 0 012-3.5z" fill="#37474f"/><path d="M196.6 107.7c-2.2-1.3-4.3-1.5-5.9-.5s-2.5 2.8-2.5 5.3a12.8 12.8 0 00.4 2.8l1.3-.7a11.3 11.3 0 01-.2-2c0-2 .6-3.5 1.7-4.2s2.7-.4 4.4.6a15.2 15.2 0 016.9 11.9 6 6 0 01-.6 2.7 3.1 3.1 0 01-1.1 1.3h-.2a4.4 4.4 0 00-.6 1.8 4.3 4.3 0 001.5-.5 4.7 4.7 0 002-2.6 8.1 8.1 0 00.5-2.7 16.9 16.9 0 00-7.6-13.2z" fill="#fff2c3"/><path d="M211.9 118c1-.6 2-.1 2 1.1a4.4 4.4 0 01-2 3.5c-1.1.6-2 .1-2-1.1a4.4 4.4 0 012-3.5z" fill="#37474f"/><path d="M206.2 102c-2.1-1.2-4.2-1.3-5.8-.4s-2.5 2.8-2.5 5.3a12.9 12.9 0 00.3 2.8l1.4-.7a11.3 11.3 0 01-.2-2c0-2 .6-3.5 1.7-4.1s2.7-.5 4.4.5a15.2 15.2 0 016.9 11.9 6 6 0 01-.6 2.7 3.1 3.1 0 01-1.2 1.3v.1a4.4 4.4 0 00-.7 1.7 4.3 4.3 0 001.5-.5 4.8 4.8 0 002-2.6 8.3 8.3 0 00.5-2.7 16.9 16.9 0 00-7.7-13.2z" fill="#fff2c3"/><path d="M221.6 112.4c1-.6 2-.1 2 1.2a4.4 4.4 0 01-2 3.4c-1.1.7-2 .1-2-1.1a4.4 4.4 0 012-3.5z" fill="#37474f"/><path d="M216 96.5c-2.2-1.3-4.3-1.4-6-.5s-2.4 2.8-2.4 5.3a12.7 12.7 0 00.3 2.8l1.4-.7a11.3 11.3 0 01-.2-2c0-2 .6-3.5 1.7-4.1s2.7-.5 4.4.5a15.2 15.2 0 016.9 11.9 6 6 0 01-.6 2.7 3 3 0 01-1.2 1.3l-.1.1a4.5 4.5 0 00-.6 1.7 4.6 4.6 0 001.5-.5 4.7 4.7 0 002-2.6 8.1 8.1 0 00.5-2.7 16.9 16.9 0 00-7.7-13.2z" fill="#fff2c3"/><path d="M231.2 106.8c1.1-.6 2-.1 2 1.2a4.4 4.4 0 01-2 3.4c-1 .7-2 .1-2-1.1a4.4 4.4 0 012-3.5z" fill="#37474f"/><path d="M225.6 90.9c-2.1-1.3-4.2-1.4-5.8-.5s-2.5 2.8-2.5 5.3a12.8 12.8 0 00.3 2.9l1.4-.8a10.4 10.4 0 01-.3-2c0-2 .7-3.4 1.8-4s2.7-.5 4.4.4a15.2 15.2 0 016.9 12 6.2 6.2 0 01-.6 2.7 3.2 3.2 0 01-1.2 1.3h-.1a4.3 4.3 0 00-.6 1.8 4.4 4.4 0 001.4-.5 4.8 4.8 0 002.1-2.7 8.3 8.3 0 00.4-2.7 16.9 16.9 0 00-7.6-13.2z" fill="#fff2c3"/><path d="M241 101.2c1-.6 2-.1 2 1.2a4.4 4.4 0 01-2 3.4c-1.2.7-2 .2-2-1.1a4.4 4.4 0 012-3.5z" fill="#37474f"/><path d="M235.3 85.3c-2.2-1.2-4.2-1.4-5.8-.5s-2.5 2.8-2.5 5.3a12.7 12.7 0 00.3 2.9l1.4-.8a10.5 10.5 0 01-.2-2c0-2 .6-3.5 1.7-4.1s2.7-.5 4.4.5a15.2 15.2 0 016.9 11.9 6.2 6.2 0 01-.6 2.7 3.3 3.3 0 01-1.2 1.3v.1a4.3 4.3 0 00-.7 1.7 4.6 4.6 0 001.5-.5 4.7 4.7 0 002-2.6 8.4 8.4 0 00.5-2.7 16.8 16.8 0 00-7.7-13.2z" fill="#fff2c3"/><path d="M250.6 95.6c1.1-.6 2 0 2 1.2a4.4 4.4 0 01-2 3.4c-1 .7-2 .2-2-1.1a4.4 4.4 0 012-3.5z" fill="#37474f"/><path d="M245 79.7c-2.2-1.2-4.3-1.4-5.9-.5s-2.5 2.8-2.5 5.3a12.3 12.3 0 00.4 2.9l1.3-.8a10.4 10.4 0 01-.2-2c0-2 .6-3.4 1.8-4s2.7-.5 4.4.4a15.2 15.2 0 016.8 12 6.2 6.2 0 01-.5 2.7 3.2 3.2 0 01-1.2 1.3h-.1a4.3 4.3 0 00-.7 1.8 4.4 4.4 0 001.5-.5 4.7 4.7 0 002-2.6 8 8 0 00.5-2.8 16.8 16.8 0 00-7.6-13.2z" fill="#fff2c3"/><path d="M245 79.7c-2.2-1.2-4.3-1.4-5.9-.5s-2.5 2.8-2.5 5.3a11.3 11.3 0 00.2 1.8 13 13 0 00-1.5-1c-2.2-1.2-4.3-1.4-5.9-.5s-2.4 2.8-2.4 5.3a11.5 11.5 0 00.2 1.9 12 12 0 00-1.5-1c-2.2-1.3-4.3-1.5-5.9-.6s-2.5 2.9-2.5 5.4a11.3 11.3 0 00.2 1.8 12.3 12.3 0 00-1.5-1c-2.2-1.3-4.3-1.5-5.9-.5s-2.5 2.8-2.5 5.3a11.5 11.5 0 00.2 1.8 11.4 11.4 0 00-1.5-1c-2.2-1.2-4.3-1.4-5.9-.5s-2.5 2.8-2.5 5.4a11.3 11.3 0 00.2 1.8 11.1 11.1 0 00-1.5-1c-2.2-1.3-4.3-1.5-5.9-.6s-2.5 2.9-2.5 5.4a11.3 11.3 0 00.2 1.8 12.3 12.3 0 00-1.5-1c-2.2-1.3-4.3-1.4-5.9-.5s-2.5 2.8-2.5 5.3a11.5 11.5 0 00.2 1.8 10.4 10.4 0 00-1.5-1c-2.2-1.2-4.2-1.4-5.9-.5s-2.4 2.8-2.4 5.3a11.3 11.3 0 00.1 1.9 12.3 12.3 0 00-1.5-1c-2.2-1.3-4.2-1.5-5.8-.5s-2.5 2.8-2.5 5.3a11.4 11.4 0 00.1 1.8 11.3 11.3 0 00-1.5-1c-2.1-1.3-4.2-1.4-5.8-.5s-2.5 2.8-2.5 5.3a11.3 11.3 0 00.1 1.8 12.3 12.3 0 00-1.5-1c-2.1-1.2-4.2-1.4-5.8-.5s-2.5 2.8-2.5 5.3a11.4 11.4 0 00.2 1.9 11.3 11.3 0 00-1.6-1c-2.1-1.3-4.2-1.5-5.8-.5s-2.5 2.8-2.5 5.3a11.3 11.3 0 00.2 1.8 12.3 12.3 0 00-1.5-1c-2.2-1.3-4.3-1.4-5.9-.5s-2.5 2.8-2.5 5.3a11.4 11.4 0 00.2 1.8 11.3 11.3 0 00-1.5-1c-2.2-1.2-4.3-1.4-5.9-.5s-2.5 2.9-2.5 5.4a11.3 11.3 0 00.2 1.8 12.3 12.3 0 00-1.5-1c-2.2-1.3-4.3-1.5-5.9-.5s-2.5 2.8-2.5 5.3a11.4 11.4 0 00.2 1.8 11.3 11.3 0 00-1.5-1c-2.2-1.2-4.3-1.4-5.9-.5s-2.5 2.8-2.5 5.3a12.2 12.2 0 00.4 2.9l1.3-.8a10.5 10.5 0 01-.2-2c0-2 .6-3.5 1.8-4.1s2.6-.5 4.3.5a15.2 15.2 0 017 11.9 6.2 6.2 0 01-.6 2.8 3.1 3.1 0 01-1.2 1.3h-.1a4.2 4.2 0 00-.7 1.7 4.2 4.2 0 001.5-.5 4.7 4.7 0 002-2.6 8.1 8.1 0 00.5-2.7c0-4-2.2-8.6-5.3-11.5l.7-.4a10.4 10.4 0 01-.2-2c0-2 .6-3.4 1.8-4s2.6-.5 4.3.4a15.2 15.2 0 017 12 6 6 0 01-.6 2.7 3.2 3.2 0 01-1.2 1.3h-.2a4.1 4.1 0 00-.6 1.8 4.2 4.2 0 001.5-.5 4.7 4.7 0 002-2.6 8.1 8.1 0 00.5-2.8c0-3.9-2.3-8.5-5.3-11.4l.7-.5a10.5 10.5 0 01-.2-2c0-2 .6-3.4 1.7-4s2.7-.5 4.4.4a15.2 15.2 0 017 12 6 6 0 01-.7 2.7 3.2 3.2 0 01-1.1 1.3h-.2a4.3 4.3 0 00-.6 1.8 4 4 0 001.5-.5 4.7 4.7 0 002-2.6 8.1 8.1 0 00.5-2.8c0-3.9-2.3-8.5-5.4-11.4l.8-.5a10.4 10.4 0 01-.2-2c0-2 .6-3.4 1.7-4s2.7-.5 4.4.5A15.2 15.2 0 01135 160a6 6 0 01-.6 2.8 3.2 3.2 0 01-1.2 1.2l-.1.1a4.3 4.3 0 00-.6 1.8 4.2 4.2 0 001.4-.6 4.7 4.7 0 002.1-2.6 8.1 8.1 0 00.4-2.7c0-4-2.2-8.6-5.3-11.5l.7-.4a10.5 10.5 0 01-.2-2c0-2 .7-3.5 1.8-4.1s2.7-.5 4.4.5a15.2 15.2 0 016.9 11.9 6 6 0 01-.6 2.8 3.2 3.2 0 01-1.2 1.3h-.1a4.4 4.4 0 00-.6 1.7 4.1 4.1 0 001.4-.5 4.7 4.7 0 002.1-2.6 8.1 8.1 0 00.4-2.7c0-4-2.2-8.6-5.3-11.5l.7-.4a10.4 10.4 0 01-.2-2c0-2 .7-3.5 1.8-4s2.7-.5 4.4.4a15.2 15.2 0 016.8 12 6 6 0 01-.5 2.7 3.2 3.2 0 01-1.2 1.3h-.1a4.4 4.4 0 00-.7 1.8 4.3 4.3 0 001.5-.5 4.7 4.7 0 002.1-2.6 8.1 8.1 0 00.4-2.7c0-4-2.2-8.6-5.3-11.5l.7-.4a11.3 11.3 0 01-.2-2.1c0-2 .7-3.4 1.8-4s2.7-.5 4.4.4a15.2 15.2 0 016.8 12 6 6 0 01-.5 2.7 3.2 3.2 0 01-1.2 1.3h-.1a4.4 4.4 0 00-.7 1.8 4.1 4.1 0 001.5-.5 4.7 4.7 0 002.1-2.6 8.1 8.1 0 00.4-2.7c0-4-2.2-8.6-5.3-11.5l.7-.4a11.2 11.2 0 01-.2-2c0-2 .7-3.5 1.8-4s2.7-.6 4.4.4a15.2 15.2 0 016.8 12 6 6 0 01-.5 2.7 3 3 0 01-1.2 1.3h-.1a4.4 4.4 0 00-.7 1.8 4.3 4.3 0 001.5-.5 4.7 4.7 0 002-2.7 8.1 8.1 0 00.5-2.7c0-3.9-2.2-8.5-5.3-11.4l.7-.5a11.3 11.3 0 01-.2-2c0-2 .6-3.4 1.8-4s2.7-.6 4.4.4a15.2 15.2 0 016.8 12 6 6 0 01-.5 2.7 3.2 3.2 0 01-1.2 1.3h-.1a4.4 4.4 0 00-.7 1.8 4.1 4.1 0 001.5-.5 4.7 4.7 0 002-2.6 8.1 8.1 0 00.5-2.8c0-3.9-2.2-8.5-5.3-11.4l.7-.5a11.2 11.2 0 01-.2-2c0-2 .6-3.4 1.8-4s2.7-.5 4.4.5a15.2 15.2 0 016.8 11.8 6 6 0 01-.6 2.7 3.2 3.2 0 01-1.2 1.3 4.4 4.4 0 00-.7 1.8 4.3 4.3 0 001.5-.5 4.8 4.8 0 002-2.6 8.4 8.4 0 00.5-2.7c0-4-2.3-8.6-5.4-11.5l.8-.4a11.3 11.3 0 01-.2-2c0-2 .6-3.5 1.7-4.2s2.7-.4 4.4.6a15.2 15.2 0 016.9 11.9 6 6 0 01-.6 2.7 3.1 3.1 0 01-1.2 1.3 4.4 4.4 0 00-.7 1.8 4.3 4.3 0 001.5-.5 4.7 4.7 0 002-2.6 8.1 8.1 0 00.5-2.7c0-4-2.3-8.6-5.4-11.5l.8-.4a11.3 11.3 0 01-.2-2c0-2 .6-3.5 1.7-4.1s2.7-.5 4.4.5a15.2 15.2 0 016.9 11.9 6 6 0 01-.6 2.7 3.1 3.1 0 01-1.2 1.3l-.1.1a4.4 4.4 0 00-.6 1.7 4.3 4.3 0 001.5-.5 4.8 4.8 0 002-2.6 8.3 8.3 0 00.4-2.7c0-4-2.2-8.6-5.3-11.5l.7-.4a11.3 11.3 0 01-.2-2c0-2 .7-3.5 1.8-4.1s2.7-.5 4.4.5a15.2 15.2 0 016.9 11.9 6 6 0 01-.6 2.7 3 3 0 01-1.2 1.3l-.1.1a4.5 4.5 0 00-.6 1.7 4.6 4.6 0 001.4-.5 4.7 4.7 0 002.1-2.6 8.1 8.1 0 00.4-2.7c0-4-2.2-8.6-5.3-11.5l.7-.4a10.4 10.4 0 01-.2-2c0-2 .7-3.4 1.8-4s2.7-.6 4.4.4a15.2 15.2 0 016.9 12 6.2 6.2 0 01-.6 2.7 3.2 3.2 0 01-1.2 1.3h-.1a4.3 4.3 0 00-.6 1.8 4.4 4.4 0 001.4-.5 4.8 4.8 0 002.1-2.7 8.3 8.3 0 00.4-2.7c0-3.9-2.2-8.5-5.3-11.4l.7-.5a10.5 10.5 0 01-.2-2c0-2 .6-3.4 1.8-4s2.7-.6 4.4.4a15.2 15.2 0 016.8 12 6.2 6.2 0 01-.5 2.7 3.3 3.3 0 01-1.2 1.3h-.1a4.3 4.3 0 00-.7 1.8 4.6 4.6 0 001.5-.5 4.7 4.7 0 002.1-2.6 8.4 8.4 0 00.4-2.8c0-3.9-2.2-8.5-5.3-11.4l.7-.5a10.4 10.4 0 01-.2-2c0-2 .6-3.4 1.8-4s2.7-.5 4.4.5A15.2 15.2 0 01251 93a6.2 6.2 0 01-.5 2.7 3.2 3.2 0 01-1.2 1.3l-.1.1a4.3 4.3 0 00-.7 1.7 4.4 4.4 0 001.5-.5 4.7 4.7 0 002-2.6 8 8 0 00.5-2.7 16.8 16.8 0 00-7.6-13.3z" opacity=".4"/><path d="M114.2 191.5l131.3-75.8c2.3-1.3 4.4-.2 4.7 2.4l2.2 18a7.9 7.9 0 01-3.6 7.2l-131.2 75.6c-2.3 1.4-4.4.3-4.8-2.3l-2.2-18a7.8 7.8 0 013.6-7z" fill="#fff2c3"/><path d="M126 205.8l-1.8 1.4-2.4-11.6-.5 11.5 1.2-.4v1.3l-3.5 2v-1.2l1.2-1 .5-12.1-1.1.3v-1.2l3.6-2 2.2 10.5 2.3-13.2 3.6-2-.1 1.3-1 .8.3 11.8 1.2-.5-.1 1.3-4 2.2v-1.2l1.1-1-.2-11.4zM133.8 206.2c-.8.5-1.3.2-1.3-.7a2.9 2.9 0 011.2-2.5l.2.6c.1.4.2.7.6.5s.5-.8.8-1.7l.5-2.2-.3.2c-.6.4-1 .2-1.3-.5a15.2 15.2 0 01-.7-5.7v-1.6c0-.5-.1-.5-.3-.4a3.7 3.7 0 00-.7.7l-.3-1a6.7 6.7 0 011.8-1.7c1-.6 1.2 0 1.2 1.2v1.6a17 17 0 00.5 5c.2.5.4.5.6.4l1.5-6.3c.3-1.3.1-1.5-.3-1.5h-.5a2.8 2.8 0 011-2.7c.7-.4 1.2 0 1.2 1.2a25.2 25.2 0 01-1 5l-1.7 7c-.6 2.4-1.2 4.3-2.7 5.1zM144.4 194.6l.4-14.2-1.1.2v-1.2l2.5-1.4.2.1-.2 7.1-.4 5.2h.1l.6-3.2c.5-3.3 1-4.9 2.4-5.7 1.5-.8 2.1.6 2.1 3.4 0 4.4-1.4 7.7-3.6 9a5 5 0 01-3 .7zm2.5-5l-.5 3a1.2 1.2 0 001-.2c1.3-.8 1.7-3.7 1.7-6.2 0-1.3 0-3-.6-2.6s-1 2-1.6 6zM152.3 175.6l.1-1.2 2.5-1.4.2.1-.3 14c0 .5 0 .8.4.6a2.7 2.7 0 00.7-.9l.3.9a6 6 0 01-1.8 2.1c-.9.5-1.3.1-1.3-1.4l.3-13zM160.5 174.8c2.1-1.2 3 .5 3 3.6s-1 6.7-3.4 8c-2 1.2-3-.2-3-3.4s.9-6.7 3.4-8.2zm1.2 4.7c0-2.3-.2-3.8-1.2-3.2-1.3.7-1.5 3.2-1.5 5.6s.3 3.7 1.3 3.1c1.2-.7 1.4-3 1.4-5.5zM169.9 175l-.3 1.8c-.6 3.5-1.1 4.9-2.3 5.6-1.6.9-2.2-.9-2.2-3.4 0-4 1.3-7.5 3.3-8.7a3.3 3.3 0 011.7-.5l.9-1 .5-.1-.2 9.3c0 3.6-1.4 7.4-4.1 9-1.1.7-2.3.7-2.3-.9a2.6 2.6 0 011-2.2.7.7 0 011 0l-.2.7c-.2 1 0 1.4.7 1 1.4-.8 2.2-3.2 2.3-6.5l.3-4zm-.7-.7l.5-2.9a1.1 1.1 0 00-1 .2c-1.3.8-1.8 3.5-1.8 6.4 0 1.9 0 2.8.7 2.5s.9-1.7 1.6-6.3zM245.6 129.9v.2a5.5 5.5 0 01-2.5 5l-61.7 35.6a2 2 0 01-3.3-1.7v-.2a5.5 5.5 0 012.5-5l61.7-35.6a2 2 0 013.3 1.7z" fill="#fafafa"/><path d="M238 138l5.1-3a5.5 5.5 0 002.5-5v-.2a2 2 0 00-3.3-1.6l-5 3z" fill="#455a64"/><path d="M144.3 212.6a3.9 3.9 0 01-1.8 3.5L116.8 231a1.4 1.4 0 01-2.4-1.1 3.9 3.9 0 011.8-3.5l25.8-15a1.4 1.4 0 012.3 1.2zM204.1 178.1a3.9 3.9 0 01-1.8 3.5L151.6 211a1.4 1.4 0 01-2.3-1.2 3.9 3.9 0 011.8-3.5l50.7-29.2a1.4 1.4 0 012.3 1.1zM252.1 152.9l-40.7 23.5a1.4 1.4 0 01-2.3-1.2 3.9 3.9 0 011.8-3.5l40.7-23.5a1.4 1.4 0 012.3 1.1 3.9 3.9 0 01-1.8 3.6zM135.8 229.4a3.9 3.9 0 01-1.8 3.5l-15.8 9.1a1.5 1.5 0 01-2.4-1 3.7 3.7 0 011.7-3.6l16-9.1a1.4 1.4 0 012.3 1.1zM185.5 200.7a3.9 3.9 0 01-1.8 3.5l-40.6 23.5a1.4 1.4 0 01-2.4-1.2 3.9 3.9 0 011.8-3.5l40.7-23.4a1.4 1.4 0 012.3 1zM253.5 164L193 199a1.4 1.4 0 01-2.4-1.2 3.9 3.9 0 011.8-3.5l60.6-35a1.5 1.5 0 012.4 1 3.7 3.7 0 01-1.8 3.6zM157 228.8a3.9 3.9 0 01-1.8 3.5L119.6 253a1.5 1.5 0 01-2.5-1 3.5 3.5 0 011.7-3.4l35.8-20.8a1.4 1.4 0 012.4 1.1zM221.7 191.4a3.9 3.9 0 01-1.8 3.6l-55 31.7a1.4 1.4 0 01-2.4-1.1 3.9 3.9 0 011.8-3.5l55-31.8a1.4 1.4 0 012.4 1.1zM254.9 174.8l-26 15a1.4 1.4 0 01-2.3-1.2 3.9 3.9 0 011.8-3.5l25.7-14.8a1.5 1.5 0 012.5 1 3.6 3.6 0 01-1.7 3.5zM178.2 228a3.9 3.9 0 01-1.8 3.5l-55.5 32a1.6 1.6 0 01-2.5-1 3.4 3.4 0 011.6-3.4l55.8-32.2a1.4 1.4 0 012.4 1.1zM208 210.8a3.9 3.9 0 01-1.8 3.5l-20.7 12a1.4 1.4 0 01-2.4-1.2 3.9 3.9 0 011.8-3.5l20.7-12a1.4 1.4 0 012.4 1.2zM256.2 185.4L216 208.6a1.4 1.4 0 01-2.4-1 3.9 3.9 0 011.8-3.6l40-23a1.6 1.6 0 012.5 1 3.4 3.4 0 01-1.7 3.4zM129.8 268a3.8 3.8 0 01-1.8 3.5l-5.6 3.2a1.7 1.7 0 01-2.6-1 3.3 3.3 0 011.5-3.3l6-3.5a1.5 1.5 0 012.5 1.1zM157 252.3a3.8 3.8 0 01-1.7 3.5l-18 10.4a1.5 1.5 0 01-2.5-1 3.8 3.8 0 011.8-3.5l18-10.5a1.5 1.5 0 012.4 1.1zM194.3 230.8a3.7 3.7 0 01-1.7 3.4l-28.2 16.3a1.5 1.5 0 01-2.4-1 3.8 3.8 0 011.7-3.5l28.2-16.3a1.5 1.5 0 012.4 1zM146.5 271.3a3.5 3.5 0 01-1.6 3.5l-20.4 11.7a1.7 1.7 0 01-2.7-.9 3.1 3.1 0 011.5-3.3l20.7-12a1.6 1.6 0 012.5 1zM176.4 254.1a3.5 3.5 0 01-1.7 3.4l-12.6 7.3-8 4.6a1.6 1.6 0 01-2.4-1 3.5 3.5 0 011.6-3.4l20.6-12a1.6 1.6 0 012.5 1.1zM196.3 242.6a3.5 3.5 0 01-1.6 3.4l-10.6 6.2a1.6 1.6 0 01-2.5-1 3.5 3.5 0 011.6-3.5l10.7-6.1a1.5 1.5 0 012.4 1zM164 274a3.3 3.3 0 01-1.5 3.4L127 297.9a1.8 1.8 0 01-2.8-.9 3 3 0 011.4-3.3l35.9-20.6a1.6 1.6 0 012.6.9zM198.7 254a3.3 3.3 0 01-1.5 3.4L171.6 272a1.6 1.6 0 01-2.6-1 3.3 3.3 0 011.6-3.4l25.6-14.7a1.6 1.6 0 012.5 1zM147 296.6a3.1 3.1 0 01-1.4 3.3l-15.6 9a1.8 1.8 0 01-2.8-.9 2.8 2.8 0 011.3-3.2l15.9-9.2a1.7 1.7 0 012.7 1zM175.5 282.6l-20.8 12a1.7 1.7 0 01-2.7-1 3.1 3.1 0 011.5-3.2l20.8-12a1.7 1.7 0 012.7.9 3 3 0 01-1.5 3.3zM201.5 265.1a3.1 3.1 0 01-1.4 3.3l-15.5 9a1.7 1.7 0 01-2.7-1 3.1 3.1 0 011.5-3.3l15.5-9a1.7 1.7 0 012.6 1zM170.4 295.6a3 3 0 01-1.4 3.3l-35.6 20.6a2 2 0 01-2.9-.9 2.7 2.7 0 011.3-3.2l35.8-20.6a1.8 1.8 0 012.8.8zM204.9 275.7a2.9 2.9 0 01-1.4 3.3l-25.4 14.7a1.8 1.8 0 01-2.8-1 2.9 2.9 0 011.4-3.2l25.4-14.6a1.8 1.8 0 012.8.8z" fill="#455a64" opacity=".4"/><path d="M194 294.4a2.8 2.8 0 01-1.3 3.2l-55.6 32a2 2 0 01-3-.7 2.6 2.6 0 011.3-3.2l55.7-32.2a1.9 1.9 0 012.9.9z" fill="#fff2c3"/><path d="M233.9 271.3a2.7 2.7 0 01-1.3 3.3l-31.1 18a2 2 0 01-3-.9 2.7 2.7 0 011.4-3.2l31.1-18a1.9 1.9 0 012.9.8zM272.5 251.6l-31.2 18a2 2 0 01-2.8-.9 2.7 2.7 0 011.2-3.2l31-18a2 2 0 013 .9 2.6 2.6 0 01-1.2 3.2zM158.2 327.2a2.6 2.6 0 01-1.2 3.2l-15.7 9a2 2 0 01-3-.7 2.5 2.5 0 011.1-3.1l15.9-9.2a2 2 0 013 .8zM213 295.6a2.6 2.6 0 01-1.2 3.2L166.2 325a2 2 0 01-3-.8 2.6 2.6 0 011.2-3.2l45.7-26.3a2 2 0 013 .8zM255.5 271a2.6 2.6 0 01-1.2 3.2L221 293.6a2 2 0 01-3-.8 2.7 2.7 0 011.3-3.2l33.2-19.2a2 2 0 013 .8zM276.6 261.4l-13 7.5a2 2 0 01-3-.7 2.7 2.7 0 011.2-3.2l13-7.5a2 2 0 013 .7 2.5 2.5 0 01-1.2 3.2zM182.6 325.2a2.5 2.5 0 01-1.1 3.1L145.8 349a2.2 2.2 0 01-3.1-.7 2.4 2.4 0 011-3l35.9-20.7a2.1 2.1 0 013 .7zM232.5 296.4a2.5 2.5 0 01-1.1 3.1L190.6 323a2.1 2.1 0 01-3-.7 2.5 2.5 0 011.1-3.1l40.8-23.5a2.1 2.1 0 013 .7zM281 270.8l-40.5 23.5a2.1 2.1 0 01-3-.8 2.5 2.5 0 011-3.1l40.6-23.4a2.1 2.1 0 013 .7 2.4 2.4 0 01-1 3.1zM157.4 351.6a2.4 2.4 0 01-1 3l-5.9 3.4a2.3 2.3 0 01-3.1-.7 2.3 2.3 0 011-3l5.9-3.4a2.2 2.2 0 013.1.7zM207.2 322.8a2.3 2.3 0 01-1 3.1l-40.7 23.5a2.2 2.2 0 01-3-.7 2.4 2.4 0 011-3.1L204 322a2.2 2.2 0 013 .7zM257 294a2.3 2.3 0 01-1 3.1l-40.7 23.5a2.2 2.2 0 01-3.1-.7 2.4 2.4 0 011-3l40.7-23.5a2.2 2.2 0 013.1.7zM285.9 280l-20.7 11.9a2.2 2.2 0 01-3.1-.7 2.4 2.4 0 011-3.1l20.7-12a2.2 2.2 0 013 .7 2.3 2.3 0 01-1 3.1zM182.3 348.9a2.2 2.2 0 01-1 3l-25.7 14.8a2.4 2.4 0 01-3.2-.6 2.2 2.2 0 011-3l25.7-14.9a2.3 2.3 0 013.2.7zM232.2 320a2.3 2.3 0 01-1 3.1l-40.6 23.5a2.3 2.3 0 01-3.2-.7 2.3 2.3 0 011-3l40.6-23.5a2.3 2.3 0 013.2.7zM291 288.6l-50.5 29.2a2.3 2.3 0 01-3.2-.7 2.3 2.3 0 011-3l50.4-29.1a2.3 2.3 0 013.2.6 2.2 2.2 0 01-1 3zM207.5 345.8a2.1 2.1 0 01-.9 3L161 375.2a2.5 2.5 0 01-3.2-.6 2.1 2.1 0 01.8-3l45.8-26.4a2.4 2.4 0 013.2.6zM257.3 317a2.2 2.2 0 01-1 3l-40.5 23.5a2.4 2.4 0 01-3.2-.6 2.1 2.1 0 01.9-3l40.6-23.5a2.4 2.4 0 013.2.7zM296.2 297l-30.6 17.7a2.4 2.4 0 01-3.2-.6 2.1 2.1 0 01.9-3l30.6-17.7a2.4 2.4 0 013.2.7 2.1 2.1 0 01-.9 3z" fill="#455a64" opacity=".4"/><path d="M271.1 241.5L211.3 276l-.8-2.4-.2-.6-.8-2.4a276.3 276.3 0 01-10.3-45.4l59.7-34.5a250.8 250.8 0 008.2 38.3 176 176 0 002.1 6.7l2 5.8z" fill="#fff2c3"/><path d="M271.1 241.5L211.3 276l-.8-2.4-.2-.6-.8-2.4a276.3 276.3 0 01-10.3-45.4l59.7-34.5a250.8 250.8 0 008.2 38.3 176 176 0 002.1 6.7l2 5.8z" opacity=".5"/><path d="M271.1 241.5L211.3 276l-.8-2.4-.2-.6-.8-2.4a96 96 0 01-.8-2.4l9.8-40.2 33.4 18.8-6.8-6.8 5.4-17.5 16.6 6.5 1 3.7 1 3 2 5.8zM238.6 209.8c2.3-1.3 4.5 0 5 3s-.6 6.2-2.9 7.5-4.5 0-5.1-2.9.8-6.3 3-7.6z" fill="#fff2c3"/></g><g><path d="M457 242c-16.3-6-42.4-6-58.1 0s-15.8 15.8 0 21.8 41.8 6 58.1 0 16.3-15.7 0-21.7z" fill="#733232"/><path d="M470 222.3h-83.7l6.3 98.7c.4 3.6 3.8 7.1 10.2 9.9a74 74 0 0050.2 0c6.6-2.8 10.1-6.3 10.5-9.9h.1z" fill="#fafafa"/><path d="M386.2 222.4l1.3 20a37.4 37.4 0 007 3.7c18.1 7.5 48 7.5 66.7 0l2.2-1a42.9 42.9 0 005.3-3l1.3-19.9z" fill="#ebebeb"/><path d="M475.3 225.2v-15h-9.8a43.1 43.1 0 00-4.3-2 101.6 101.6 0 00-66.7 0 45 45 0 00-4 2h-9.6v15c0 5 4.6 9.8 13.6 13.6 18.1 7.5 48 7.5 66.7 0 9.4-3.8 14-8.7 14-13.6z" fill="#fff2c3"/><path d="M475.3 225.2v-15h-9.8a43.1 43.1 0 00-4.3-2 101.6 101.6 0 00-66.7 0 45 45 0 00-4 2h-9.6v15c0 5 4.6 9.8 13.6 13.6 18.1 7.5 48 7.5 66.7 0 9.4-3.8 14-8.7 14-13.6z" opacity=".5"/><path d="M461.2 196.5c-18.7-7.5-48.6-7.5-66.7 0s-18 19.7 0 27.2 48 7.5 66.7 0 18.7-19.7 0-27.2z" fill="#fff2c3"/><path d="M461.2 196.5c-18.7-7.5-48.6-7.5-66.7 0s-18 19.7 0 27.2 48 7.5 66.7 0 18.7-19.7 0-27.2z" opacity=".2"/><path d="M455.4 197.8c-15.4-6-40-6-55 0s-15 15.5 0 21.4 39.5 6 55 0 15.4-15.5 0-21.4z" fill="#fff2c3"/><path d="M455.4 197.8c-15.4-6-40-6-55 0s-15 15.5 0 21.4 39.5 6 55 0 15.4-15.5 0-21.4z" opacity=".5"/><path fill="#fff2c3" d="M466.6 206.5l-3-12.4h-71l-3 12.4h77z"/><path d="M466.6 206.5l-3-12.4h-71l-3 12.4h77z" opacity=".5"/><path d="M453.2 186.1c-14.2-5.1-36.8-5.1-50.5 0s-13.7 13.5 0 18.7 36.3 5.1 50.5 0 14.1-13.5 0-18.7z" fill="#fff2c3"/><path d="M453.2 186.1c-14.2-5.1-36.8-5.1-50.5 0s-13.7 13.5 0 18.7 36.3 5.1 50.5 0 14.1-13.5 0-18.7z" opacity=".2"/><path d="M458.9 195.5c0 .2-.4.8-1.6 1.7a23 23 0 01-5.8 3c-6.3 2.2-15 3.6-23.8 3.6s-17.3-1.3-23.3-3.6a20.6 20.6 0 01-5.6-3c-1.2-1-1.5-1.6-1.5-1.8 0-.3 1.2-2.5 7-4.7s14.6-3.6 23.4-3.6 17.5 1.3 23.8 3.6c5.9 2.2 7.4 4.3 7.4 4.8z" fill="#fff2c3"/><path d="M458.9 195.5c0 .2-.4.8-1.6 1.7a23 23 0 01-5.8 3c-6.3 2.2-15 3.6-23.8 3.6s-17.3-1.3-23.3-3.6a20.6 20.6 0 01-5.6-3c-1.2-1-1.5-1.6-1.5-1.8 0-.3 1.2-2.5 7-4.7s14.6-3.6 23.4-3.6 17.5 1.3 23.8 3.6c5.9 2.2 7.4 4.3 7.4 4.8z" opacity=".5"/><path d="M457.3 197.2a23 23 0 01-5.8 3c-6.3 2.2-15 3.5-23.8 3.5s-17.3-1.2-23.3-3.5a20.6 20.6 0 01-5.6-3 20 20 0 015.6-3c6-2.3 14.5-3.6 23.3-3.6s17.5 1.3 23.8 3.6a22.3 22.3 0 015.8 3z" fill="#fff2c3"/><path d="M443.1 197.6c2-1.2 4.6-1.7 5.6-1.1s.2 2-1.9 3.2-4.5 1.6-5.6 1-.2-2 1.9-3.1z" opacity=".5"/><path d="M389.4 289.1c0 3.7 3.7 7.5 11.1 10.3a90.4 90.4 0 0054.8 0c7.6-2.8 11.5-6.5 11.5-10.2l2.4-36.3c0 4-4 8-12.3 11-16.3 6-42.3 6-58 0-8-3-12-7-12-11z" fill="#b16668"/><path d="M415 291.3c-1.5-1.9-2.2-4.2-3.3-6.2a18.2 18.2 0 00-9.5-8.3 1.2 1.2 0 00-1.5.5c-2 4.2-.8 10 3.5 14.4s10 5.5 14.2 3.5c.2-.1.3-.6.1-.7a11.8 11.8 0 01-3.6-3.2zM404.5 275.6a19.7 19.7 0 016 3.7 18 18 0 014.3 6c1.6 3.3 3 5.4 5.4 7.1a1.2 1.2 0 001.6-.2c2.8-4.2 1.7-10.7-2.9-15.3-4.3-4.3-10.4-5.6-14.6-3.3a1.2 1.2 0 00.2 2z" fill="#733232"/></g><g><path d="M349.3 74V63.6l-8.6-.7a.6.6 0 00-.4 0l-8.6 5a.6.6 0 00-.1 1l9.1 10z" fill="#fff2c3"/><path d="M340.7 78.8l-9.1-9.9a.6.6 0 01.5-1l8.6.7z" fill="#fff2c3"/><path d="M349.3 63.7l-8.6 5-8.6-.8a.7.7 0 00-.3 0l8.5-4.9a.5.5 0 01.4 0z" fill="#fff2c3"/><path d="M349.3 63.7l-8.6 5-8.6-.8a.7.7 0 00-.3 0l8.5-4.9a.5.5 0 01.4 0z" fill="#fff" opacity=".5"/><path d="M340.8 57.1a6.9 6.9 0 013-5.4l2.6-1.5a6.9 6.9 0 016.2 0l27 15.6a6.9 6.9 0 013.1 5.4v31.2a6.9 6.9 0 01-3 5.4l-2.6 1.5a6.8 6.8 0 01-6.2 0l-8-4.6-10.4-6-8.7-5a6.9 6.9 0 01-3-5.4z" fill="#fff2c3"/><path d="M366.6 84.4a14.1 14.1 0 00-1.1-5.4 9.4 9.4 0 00-3.5-4.5c-2.4-1.3-4.3 1.5-4.6 4.8-.3-3.7-2.3-8.8-4.6-10.2a2.6 2.6 0 00-3.5.4 6.2 6.2 0 00-1.2 4c0 5.6 3.4 10.7 6.2 16.1l3 5.7 3-2.2c2.9-2 6.3-3 6.3-8.7z" fill="#fafafa"/><path d="M382.7 102.4a6.9 6.9 0 01-3 5.4l-2.6 1.5a7 7 0 01-5.7.2c1.5.6 2.6-.3 2.6-2V76.3a6.4 6.4 0 00-1-3l8.8-5a6.4 6.4 0 011 3z" opacity=".2"/><path d="M340.9 56.2c.3-1.3 1.5-1.7 3-.9l27 15.6a6.3 6.3 0 012.2 2.3l8.7-5a6.3 6.3 0 00-2.2-2.3l-27-15.6a7 7 0 00-6.2 0l-2.6 1.5a6.8 6.8 0 00-3 4.4z" fill="#fff" opacity=".5"/><g><path d="M349.3 141.1V131l-8.6-.7a.6.6 0 00-.4 0l-8.6 5a.6.6 0 00-.1 1l9.1 9.9z" fill="#fff2c3"/><path d="M340.7 146l-9.1-9.9a.6.6 0 01.5-1l8.6.7z" fill="#fff2c3"/><path d="M349.3 131l-8.6 4.8-8.6-.7a.7.7 0 00-.3 0l8.5-4.9a.6.6 0 01.4 0z" fill="#fff2c3"/><path d="M349.3 131l-8.6 4.8-8.6-.7a.7.7 0 00-.3 0l8.5-4.9a.6.6 0 01.4 0z" fill="#fff" opacity=".5"/><path d="M340.8 124.3a6.9 6.9 0 013-5.4l2.6-1.5a6.9 6.9 0 016.2 0l27 15.6a6.9 6.9 0 013.1 5.4v31.2a6.9 6.9 0 01-3 5.4l-2.6 1.5a7 7 0 01-6.2 0l-8-4.6-10.4-6-8.7-5a6.9 6.9 0 01-3-5.4z" fill="#fff2c3"/><path d="M356.4 136.4l-2.4 5a.6.6 0 01-.8.3l-5.3-2c-.8-.3-1.2.9-.5 2l3.8 7.3a2.4 2.4 0 01.3 1.4l-1 6.5c0 1 .8 2.4 1.6 2.3l4.7-.6a1.2 1.2 0 011 .6l4.8 6c.7 1 1.6.7 1.5-.5l-1-7.6a1 1 0 01.4-1l3.8-2.8c.6-.4.3-2-.6-2.7l-5.3-4a2.5 2.5 0 01-.8-1.2l-2.3-7.8c-.4-1.4-1.5-2-2-1.2z" fill="#fafafa"/><path d="M382.7 169.6a6.9 6.9 0 01-3 5.4l-2.6 1.5a7 7 0 01-5.7.2c1.5.6 2.6-.3 2.6-2v-31.2a6.4 6.4 0 00-1-3l8.8-5.2a6.4 6.4 0 011 3.1z" opacity=".2"/><path d="M340.9 123.4c.3-1.3 1.5-1.7 3-1l27 15.7a6.1 6.1 0 012.2 2.3l8.7-5a6.2 6.2 0 00-2.2-2.3l-27-15.6a7 7 0 00-6.2 0l-2.6 1.5a6.8 6.8 0 00-3 4.4z" fill="#fff" opacity=".5"/></g></g><g><path d="M242.9 336l-24.2 6.4-4.8 1.2a1.3 1.3 0 01-1.5-.7 1.3 1.3 0 010-1.3l3.5-4.4 15-19.5 4.8 7.3z" fill="#ed9b80"/><path d="M235.8 325L216 340l-3.7 3a1.3 1.3 0 010-1.4l3.5-4.4 15-19.5z" fill="#ffbda7"/><path d="M218.7 342.4l-4.8 1.2a1.3 1.3 0 01-1.5-.7 1.3 1.3 0 010-1.3l3.5-4.4a5.2 5.2 0 00.2 2.9 4.1 4.1 0 002.6 2.3z" fill="#37474f"/><path d="M340.3 245l-2.4 1.6-3 2-103.9 69a13.9 13.9 0 001.5 10c2.5 4.8 7 8.3 10.4 8.3l103.3-68.6 5.5-3.7c-3.7 2.2-15.1-16.4-11.4-18.6z" fill="#263238"/><path d="M337.9 246.6l-3 1.9L231 317.6a13.9 13.9 0 001.5 10l107-72z" fill="#37474f"/><path d="M331.1 251l-5.3 3.6c-1.6 1-.4 5 1.8 9 2.9 5.3 7.5 10.9 9.6 9.6l4-2.7 1.4-1c-2.1 1.4-6.8-4.1-9.7-9.5-2-3.9-3.3-7.7-2-8.9a.3.3 0 01.2-.1z" fill="#f0f0f0"/><path d="M333 260c-2.2-3.9-3.4-7.7-2-8.9l-5.3 3.5c-1.6 1-.4 5 1.8 9l5.4-3.6z" fill="#fafafa"/><path d="M329.8 252c-3.7 2.2 7.8 20.8 11.5 18.5l5.3-3.6c-3.6 2.3-15.1-16.3-11.4-18.5z" fill="#fff2c3"/><path d="M340.3 245l-5.3 3.5c-3.7 2.2 7.2 20.3 11.1 18.8a.7.7 0 00.3-.1l5.3-3.6c-3.7 2.2-15.1-16.4-11.4-18.6z" fill="#f0f0f0"/><path d="M362.7 230l-22.4 15c-1.6 1-.4 4.9 1.7 9 3 5.3 7.5 11 9.7 9.6l21.6-14.3c5.3-3 1.1-14-4.4-18.1-2-1.6-4.2-2.2-6.2-1.1z" fill="#ed9b80"/><path d="M362.7 230l-22.4 15c-1.6 1-.4 4.9 1.7 9l22.7-14.4s-2.7-5.6-1.5-7.8 3.4-2 5.8-.6c-2-1.6-4.3-2.2-6.3-1.1z" fill="#ffbda7"/><path d="M335.2 248.4l-5.4 3.5c-1.6 1-.4 5 1.8 9l5.3-3.6c-2.1-4-3.3-8-1.7-9z" fill="#fff" opacity=".4"/><path d="M340.3 245l-5.3 3.5c-1.6 1-.4 5 1.7 9l5.3-3.6c-2.1-4-3.3-8-1.7-8.9z" fill="#fafafa"/><path d="M307 429.4a39.2 39.2 0 011 4c.3 1.5.7 4 .1 5s-2.5 2-5.7 1.9c-2 0-5.3 1.3-7.5 2.5a11.4 11.4 0 01-7.1.9c-2.9-.4-5.8-2-6.2-3.3s.1-1.7 6.8-4.5c0 0 7-3 10.4-6.5z" fill="#263238"/><path d="M299.1 421l-.4 6a6.2 6.2 0 01-2.5 4.6 47.2 47.2 0 01-7.8 4.4l-2.4 1c-.2.6 0 1.6 3 2.1 4.5.8 15-6.5 15-6.5 1.7-1 3-2.4 3-3.3a67.9 67.9 0 011-9.1zM343 414.2l-2.6-6.2 6.8-3.7 3.1 7.6c1 1.7 2.5 1.8 3.2 2.7s-1.2 13.3-3.4 16.6-7.7.8-8.6-.2 3.5-2.1 3.6-3a66 66 0 00-.4-8.2 15.3 15.3 0 00-1.6-5.6z" fill="#ffa8a7"/><path d="M351.6 413.1c-.8 1.2-.8 3.5-1.2 6.9s-.6 8.6-2.5 10c-2.2 1.7-6.5.5-4.3-.8l1-.7c.8-.4.5-.8.5-.8a16.4 16.4 0 01-3.1 1.7 3.5 3.5 0 00-2.5 3.6 3 3 0 001.7 1.9 12.8 12.8 0 005.9 0c4-.8 6.3-2.5 6.8-5.8.6-4 2.5-8.6 3.1-11 .8-2.7-2.9-5.2-5.4-5z" fill="#263238"/><path d="M305.3 324.4s14.6 41 15.9 45.5a48.5 48.5 0 004.2 10.7l17.7 33.6c5-.4 6.6-3.8 6.6-3.8s-6.5-27.5-8-32.5a20 20 0 00-4.6-8.3l-3-30.9c-.5-5.5-1.3-9.5-7.6-20.2l-4-5z" fill="#ffa8a7"/><path d="M313.2 321.5c3.3 5.9 6.9 11 7 17.5 0 11.7-6.7 28-8.4 38a27 27 0 011 10.9l-5.5 36.4s-4.6 2.6-8.4.2c0 0-2.6-46-2.4-64s2.7-43 2.7-43zM305.6 274.7l1.1 10 10 1.2-1.5-13.4-9.6 2.2z" fill="#ffa8a7"/><path d="M306.3 250.3c-2.4 1-7 .2-8.5 11.4-1.2 8.8.4 11.9 1.5 13 .8 1 5.7 1.7 7.9 1.2 2.8-.7 8.9-3.2 12-7.6 3.6-5.1 4.8-12.2 1.2-15.3-5-4.3-12-3.6-14.1-2.8z" fill="#ffa8a7"/><path d="M307.4 274.4a32 32 0 01-7 .9 17.6 17.6 0 005.3.7c1.9-1 1.7-1.6 1.7-1.6zM298 261.3s-2.6 3.4-2.4 3.8a5.8 5.8 0 001.8 1z" fill="#f28f8f"/><path d="M300.4 246.6c3.4-3 10.4-4.3 16.6-.4a7.3 7.3 0 015.2 3.2 2 2 0 01.1-1.3 2.2 2.2 0 012.9-1.1l-1.1 2.6a2 2 0 01.6-.3 2.1 2.1 0 012.7 1.5l-3.2.9c1.5 1.2 3.2 6.2 2.7 9.4-1.2 7.4-4.8 9.1-11.4 14.3l-2 .3c-3.2 0-5.6-3.2-6.3-4.3a5.7 5.7 0 01-.8-2.8 1.6 1.6 0 001.7.6 4.3 4.3 0 002-1.2c2-2.1 1.4-5.8-.5-6.3a2.8 2.8 0 00-3 .9l-.6 1-.5 2-.1.7a2.1 2.1 0 01-1.7-2.5 2.3 2.3 0 01.2-.6l-.2-.3c-8-4-6.9-13.1-3.3-16.3z" fill="#fff2c3"/><path d="M300.4 246.6c3.4-3 10.4-4.3 16.6-.4a7.3 7.3 0 015.2 3.2 2 2 0 01.1-1.3 2.2 2.2 0 012.9-1.1l-1.1 2.6a2 2 0 01.6-.3 2.1 2.1 0 012.7 1.5l-3.2.9c1.5 1.2 3.2 6.2 2.7 9.4-1.2 7.4-4.8 9.1-11.4 14.3l-2 .3c-3.2 0-5.6-3.2-6.3-4.3a5.7 5.7 0 01-.8-2.8 1.6 1.6 0 001.7.6 4.3 4.3 0 002-1.2c2-2.1 1.4-5.8-.5-6.3a2.8 2.8 0 00-3 .9l-.6 1-.5 2-.1.7a2.1 2.1 0 01-1.7-2.5 2.3 2.3 0 01.2-.6l-.2-.3c-8-4-6.9-13.1-3.3-16.3z" opacity=".5"/><path d="M321.7 279.3c3 .1 6 3.2 6.2 6.6s-4 14.4-4 14.4z" fill="#ffa8a7"/><path d="M322.5 310.4c1.2-4.1 4-8.7 4-16.1a25.8 25.8 0 00-4.8-15H316s-.1 1.4-3 2a12.8 12.8 0 01-6.7-.3l-3.6.2-7.2 12.6a7.8 7.8 0 00-.2 8.8 10.7 10.7 0 002.9 3.1c.7 3 1.7 6.2 1.7 6.2 11.4 3 17.8 3.5 22.6-1.5z" fill="#fff2c3"/><path d="M322.5 310.4c1.2-4.1 4-8.7 4-16.1a25.8 25.8 0 00-4.8-15H316s-.1 1.4-3 2a12.8 12.8 0 01-6.7-.3l-3.6.2-7.2 12.6a7.8 7.8 0 00-.2 8.8 10.7 10.7 0 002.9 3.1c.7 3 1.7 6.2 1.7 6.2 11.4 3 17.8 3.5 22.6-1.5z" opacity=".3"/><path d="M299.9 311.9v3.3s-11.2 15.5-13.3 34.5c0 0 9 11.3 30.2 8.3 24.4-3.6 27.2-17.4 27.2-17.4s-5.9-17.1-21.5-27.1v-3.1z" fill="#fff2c3"/><path d="M299.9 311.9v3.3s-11.2 15.5-13.3 34.5c0 0 9 11.3 30.2 8.3 24.4-3.6 27.2-17.4 27.2-17.4s-5.9-17.1-21.5-27.1v-3.1z" opacity=".3"/><path d="M322.5 310.4s-1.3 3-10 3.5c-3.5.2-10.2-.4-12.6-2v3.4s3.3 2.6 13.4 2c9.2-.5 9.2-3.8 9.2-3.8z" fill="#fff2c3"/><path d="M302.8 281.2c-8.8.2-8 2.2-12.7 10-2.7 4.3-6.7 12.4-8.8 16.6-4.4 1.9-14.4 2.8-18.5 1.9a3.2 3.2 0 01-2-1.3c-1.2-1.9-2.5-2.1-4-3.5-1.1-1-1.5-2-1.8-1.8a1.8 1.8 0 00-.7 2.4 8.9 8.9 0 001.3 2.1 18.5 18.5 0 01-4.5-2.4c-3.2-2.5-5.2-2.5-5 2.7.2 3.3 2.3 5.8 9.6 7.9a59.6 59.6 0 008.2 2 78.1 78.1 0 0021-1c.6-.1 1.4-.8 3.2-2.7 3-2.8 10.5-15.6 10.5-15.6 6-3.2 5.3-13 4.2-17.3z" fill="#ffa8a7"/></g></svg>