<svg width="499" height="315" viewBox="0 0 499 315" fill="none" xmlns="http://www.w3.org/2000/svg">
<g clip-path="url(#clip0)">
<path d="M201.49 26.54L191.02 19.12L157.91 0L24.63 11.33L0.11 25.58L0 63.26L3.49 65.28V65.32L6.98 67.31V67.35L10.47 69.33V69.37L14.02 71.35L27.3 79.02L27.2 114.82L59.24 133.32L69.71 137.35L99.36 120.63L108.04 125.64L118.51 129.89L142.15 116.56L142.2 96.47L201.39 63.1L201.49 26.54Z" fill="#D6D8E5"/>
<path d="M322.01 183.02L297.49 197.27L297.38 234.95L300.87 236.97V237.01L304.36 239V239.05L307.85 241.02V241.06L311.4 243.05L324.68 250.71L324.58 286.51L356.63 305.01L367.1 309.04L396.75 292.32L405.42 297.33L415.89 301.58L439.53 288.25L439.59 268.16L498.77 234.79L498.88 198.23L488.41 190.81L455.29 171.69L322.01 183.02Z" fill="#D6D8E5"/>
<path d="M303.17 189.42L303.68 189.12L306.78 187.26L307.97 186.51C308.73 186.04 309.48 185.57 310.21 185.1L311.5 184.26C312.17 183.83 312.82 183.39 313.5 182.96L314.77 182.09C315.39 181.67 316 181.24 316.6 180.82L317.79 179.97L319.54 178.68L320.62 177.87L322.4 176.47L323.25 175.79C324.1 175.1 324.92 174.42 325.7 173.73L326.7 172.9C327.07 172.57 327.41 172.24 327.76 171.9L328.25 171.44C328.93 170.8 329.57 170.16 330.18 169.52C330.32 169.38 330.45 169.23 330.58 169.09C331.05 168.58 331.51 168.09 331.94 167.57C332.11 167.38 332.28 167.18 332.44 166.98L332.86 166.49C333.21 166.06 333.54 165.64 333.86 165.21L334 165.02C334.49 164.36 334.95 163.7 335.37 163.02C335.61 162.64 335.85 162.26 336.07 161.88C336.17 161.71 336.25 161.53 336.35 161.36C336.45 161.19 336.66 160.79 336.8 160.5C336.94 160.21 337.18 159.73 337.36 159.35C337.54 158.97 337.61 158.79 337.72 158.51C337.83 158.23 337.84 158.24 337.89 158.11C338.07 157.66 338.22 157.22 338.37 156.77C338.563 156.15 338.723 155.53 338.85 154.91C338.85 154.84 338.9 154.76 338.92 154.68C338.94 154.6 338.92 154.45 338.97 154.33C339.03 154.04 339.07 153.75 339.11 153.47C339.15 153.19 339.17 153.04 339.19 152.82C339.21 152.6 339.24 152.24 339.26 151.95C339.28 151.66 339.26 151.68 339.26 151.54C339.26 151.4 339.26 151.23 339.26 151.07L339.36 114.51C339.36 114.8 339.36 115.09 339.36 115.39V115.69C339.612 111.523 338.465 107.391 336.1 103.95C332.7 98.71 326.24 93.42 316.72 88.08C315.24 87.26 313.72 86.49 312.27 85.74C311.11 85.1 309.95 84.48 308.78 83.89C307.61 83.3 306.46 82.62 305.29 82.02C296.966 77.2743 287.99 73.777 278.65 71.64C269.135 69.5375 259.343 68.977 249.65 69.98C239.299 71.0576 229.129 73.4606 219.39 77.13C208.132 81.4495 197.257 86.7081 186.88 92.85C175.587 99.41 166.637 105.673 160.03 111.64C153.423 117.607 149.257 123.42 147.53 129.08C146.934 131.023 146.651 133.048 146.69 135.08C146.69 134.95 146.69 134.81 146.69 134.67L146.58 172.36C146.634 176.351 147.873 180.235 150.14 183.52C153.673 188.933 160.087 194.307 169.38 199.64C170.56 200.32 171.74 200.98 172.92 201.64L174.08 202.23C174.87 202.64 175.67 203.05 176.47 203.44C176.93 203.67 177.4 203.87 177.87 204.09C178.58 204.43 179.3 204.77 180.01 205.09C180.52 205.32 181.01 205.52 181.53 205.73C182.21 206.01 182.88 206.31 183.53 206.57L183.67 206.63C183.91 206.73 184.15 206.8 184.39 206.9C185.39 207.29 186.39 207.67 187.45 208.02L188.81 208.47L191.4 209.28L192.12 209.5L193.31 209.82L194.26 210.07C195.31 210.34 196.37 210.6 197.42 210.83L198.3 211.01C199.05 211.17 199.79 211.31 200.54 211.44L201.01 211.53C201.963 211.697 202.913 211.847 203.86 211.98H204.03L204.5 212.06C205.447 212.233 206.397 212.383 207.35 212.51H207.52L207.99 212.6L210.84 213.05C210.897 213.045 210.953 213.045 211.01 213.05L211.48 213.13C212.48 213.3 213.4 213.45 214.37 213.58H214.71L215.5 213.68C216.32 213.78 217.14 213.87 217.97 213.95L218.91 214.04L219.58 214.1C220.34 214.17 221.11 214.21 221.87 214.26H222.1C222.98 214.31 223.86 214.34 224.74 214.36H228.65H229.65H230.2C230.86 214.36 231.52 214.3 232.2 214.26H233.08C234.16 214.19 235.24 214.11 236.32 214H236.57C237.843 213.873 239.123 213.723 240.41 213.55L241.7 213.35C242.56 213.22 243.42 213.1 244.28 212.95L244.6 212.9L246.02 212.63L248.02 212.24L249.8 211.84C250.47 211.69 251.15 211.55 251.8 211.38L253.6 210.93L255.6 210.4L257.43 209.88L259.43 209.27L259.99 209.11L261.79 208.52L262.95 208.15C264.15 207.74 265.36 207.33 266.56 206.88C277.856 202.704 288.789 197.607 299.25 191.64C300.583 190.88 301.89 190.127 303.17 189.38V189.42ZM339.26 116.21C339.26 116.42 339.21 116.64 339.18 116.85C339.15 117.06 339.09 117.43 339.04 117.72C339.04 117.72 339.04 117.78 339.04 117.81C339.149 117.278 339.229 116.741 339.28 116.2L339.26 116.21ZM338.94 118.3C338.81 118.928 338.646 119.549 338.45 120.16C338.646 119.549 338.81 118.928 338.94 118.3ZM148.68 143.07C148.57 142.85 148.49 142.63 148.4 142.41C148.56 142.79 148.73 143.17 148.93 143.54C148.84 143.38 148.75 143.23 148.68 143.07Z" fill="#D6D8E5"/>
<path d="M126.61 19.43L126.5 57.11L48.31 63.77L48.42 26.09L126.61 19.43Z" fill="#38A169"/>
<path d="M58.26 59.15L58.15 96.83L0 63.26L0.11 25.58L58.26 59.15Z" fill="#38A169"/>
<path d="M191.02 19.12L190.92 56.8L113.83 101.6L113.94 63.91L191.02 19.12Z" fill="#48BB78"/>
<path d="M108.14 87.95L108.04 125.64L90.19 115.33L90.3 77.65L108.14 87.95Z" fill="#38A169"/>
<path d="M131.78 74.22L131.68 111.9L108.04 125.64L108.14 87.95L131.78 74.22Z" fill="#48BB78"/>
<path d="M59.35 95.64L59.24 133.32L27.2 114.82L27.3 77.14L59.35 95.64Z" fill="#38A169"/>
<path d="M90.3 77.65L90.19 115.33L59.24 133.32L59.35 95.64L90.3 77.65Z" fill="#48BB78"/>
<path d="M113.94 63.92L131.78 74.22L108.15 87.96L90.3 77.64L59.35 95.64L27.35 77.14L58.35 59.14L0.109985 25.58L24.63 11.33L157.88 0L191 19.12L113.94 63.92ZM81.94 45.42L126.65 19.42L48.46 26.08L81.88 45.42" fill="#68D391"/>
<path d="M281.93 96.64C281.46 96.37 280.98 96.12 280.5 95.88L280.06 95.68C279.7 95.51 279.34 95.35 278.97 95.2L278.7 95.08L278.54 95.03C277.89 94.78 277.22 94.55 276.54 94.35L276.39 94.3L276.11 94.23C275.68 94.11 275.24 94 274.79 93.91L274.51 93.84H274.37C273.863 93.74 273.343 93.65 272.81 93.57C272.29 93.49 271.81 93.44 271.22 93.39H271.11H270.72L269.55 93.32H267.08C266.38 93.32 265.67 93.37 264.95 93.47H264.81L264.23 93.54L263.35 93.64L262.56 93.76L261.66 93.9L261.41 93.95H261.13C260.27 94.11 259.41 94.29 258.52 94.51C257.89 94.66 257.23 94.83 256.52 95.02L255.87 95.22L254.45 95.64L254.15 95.74L253.82 95.85C252.82 96.17 251.82 96.51 250.77 96.9L250.57 96.98C249.57 97.36 248.48 97.78 247.39 98.22L246.89 98.42C245.79 98.88 244.65 99.42 243.49 99.88L242.8 100.19C241.62 100.72 240.42 101.28 239.18 101.87L238.67 102.12C237.45 102.707 236.2 103.327 234.92 103.98L234.53 104.17C233.21 104.85 231.84 105.57 230.45 106.31L229.65 106.74C228.277 107.467 226.873 108.233 225.44 109.04L224.68 109.47C223.16 110.32 221.63 111.19 220.05 112.11L217.25 113.76L216.38 114.28L214.85 115.2L214.63 115.33C213.58 115.97 212.55 116.6 211.56 117.22L210.99 117.58L208.66 119.06L207.76 119.65L205.88 120.91L205.05 121.47C204.31 121.96 203.61 122.47 202.92 122.94L202.59 123.17C201.81 123.72 201.07 124.26 200.35 124.79L199.75 125.25L198.27 126.38L197.62 126.9L196.29 127.99L195.79 128.41C195.23 128.89 194.69 129.41 194.18 129.83C193.8 130.19 193.44 130.53 193.09 130.88L192.82 131.15L192.07 131.93L191.74 132.3L191.16 132.96L190.86 133.33L190.66 133.57C190.487 133.783 190.327 133.993 190.18 134.2C189.99 134.46 189.82 134.71 189.65 134.97L189.48 135.25L189.2 135.72C189.06 135.98 188.92 136.24 188.8 136.5L188.7 136.72C188.62 136.91 188.54 137.09 188.47 137.27V137.35C188.32 137.761 188.2 138.182 188.11 138.61C188.038 138.969 187.994 139.334 187.98 139.7C187.98 139.7 187.98 139.77 187.98 139.8C187.975 139.86 187.975 139.92 187.98 139.98L187.88 177.66C187.88 177.57 187.88 177.47 187.88 177.38C187.899 177.014 187.943 176.65 188.01 176.29C188.098 175.857 188.221 175.432 188.38 175.02C188.377 174.977 188.377 174.933 188.38 174.89L188.61 174.35C188.61 174.28 188.67 174.2 188.71 174.12C188.83 173.86 188.97 173.6 189.12 173.34C189.27 173.08 189.32 172.99 189.43 172.82C189.54 172.65 189.52 172.66 189.58 172.58C189.74 172.33 189.92 172.07 190.1 171.81C190.28 171.55 190.54 171.23 190.78 170.94C190.88 170.81 190.98 170.69 191.09 170.57C191.2 170.45 191.46 170.13 191.66 169.91L191.99 169.54L192.75 168.76L193.01 168.49C193.37 168.13 193.75 167.77 194.15 167.41C194.65 166.94 195.15 166.47 195.76 165.98L196.26 165.56C196.68 165.2 197.12 164.84 197.59 164.47L198.23 163.96C198.71 163.58 199.23 163.2 199.71 162.82L200.31 162.37C201.03 161.83 201.77 161.29 202.55 160.74L202.88 160.64C203.56 160.16 204.26 159.64 204.99 159.18L205.82 158.62L207.7 157.37L208.6 156.79L210.94 155.3L211.5 154.94C212.5 154.32 213.5 153.69 214.58 153.05L216.29 152.05L217.2 151.5L220 149.86C221.567 148.953 223.107 148.077 224.62 147.23L225.38 146.79C226.82 145.99 228.22 145.22 229.6 144.49L230.4 144.06C231.79 143.32 233.15 142.6 234.48 141.92L234.88 141.64C236.16 140.973 237.41 140.353 238.63 139.78L239.14 139.53C240.38 138.943 241.59 138.383 242.77 137.85L243.45 137.54C244.62 137.03 245.75 136.54 246.85 136.08L247.35 135.88C248.44 135.44 249.51 135.02 250.53 134.64L250.74 134.56C251.79 134.18 252.8 133.83 253.79 133.56L254.41 133.36C254.89 133.2 255.36 133.06 255.83 132.93L256.49 132.73C257.16 132.55 257.82 132.37 258.49 132.22C259.37 132 260.24 131.83 261.09 131.67L261.63 131.57L262.52 131.42L263.31 131.3L264.19 131.2L264.91 131.12C265.64 131.05 266.35 131 267.05 130.97H268.88H269.46C269.86 130.97 270.25 130.99 270.63 131.03H271.13C271.67 131.03 272.2 131.13 272.73 131.21C273.25 131.29 273.73 131.38 274.28 131.48L274.71 131.58C275.15 131.68 275.59 131.78 276.02 131.9L276.46 132.02C277.14 132.22 277.8 132.45 278.46 132.7L278.89 132.87C279.25 133.017 279.61 133.177 279.97 133.35C280.12 133.42 280.27 133.48 280.41 133.56C280.903 133.787 281.383 134.037 281.85 134.31C285.85 136.623 287.85 139.257 287.85 142.21L287.95 104.53C287.95 101.57 285.95 98.9367 281.95 96.63" fill="#38A169"/>
<path d="M328.88 110.69C328.88 110.99 328.86 111.29 328.82 111.59C328.82 111.81 328.77 112.03 328.74 112.25C328.71 112.47 328.65 112.85 328.6 113.15L328.48 113.74C328.35 114.388 328.186 115.029 327.99 115.66C327.81 116.25 327.58 116.85 327.35 117.45C327.23 117.74 327.11 118.02 326.98 118.31C326.85 118.6 326.62 119.11 326.43 119.5L325.97 120.39C325.269 121.688 324.488 122.94 323.63 124.14L323.49 124.34C323.05 124.94 322.57 125.55 322.08 126.16L321.58 126.77C321.14 127.29 320.69 127.77 320.22 128.33L319.82 128.78C319.2 129.44 318.56 130.1 317.89 130.78L317.4 131.25C316.75 131.88 316.09 132.5 315.4 133.13C314.71 133.76 313.79 134.54 312.95 135.25L312.1 135.94C311.51 136.42 310.92 136.94 310.31 137.39L309.24 138.22L307.49 139.55L306.29 140.43L304.46 141.75L303.2 142.64L301.2 143.98L299.92 144.84L297.67 146.3C297.28 146.56 296.89 146.81 296.48 147.06C295.48 147.7 294.43 148.35 293.38 148.99L292.88 149.3C291.587 150.08 290.253 150.867 288.88 151.66C278.479 157.793 267.589 163.054 256.32 167.39C255.11 167.84 253.91 168.27 252.71 168.69L251.55 169.08L249.19 169.85L247.14 170.47L245.32 171.01L243.32 171.56C242.71 171.71 242.11 171.88 241.51 172.02C240.91 172.16 240.16 172.35 239.51 172.5C238.86 172.65 238.32 172.78 237.73 172.9C237.14 173.02 236.38 173.17 235.73 173.31L233.88 173.64L231.28 174.06L230 174.25C228.72 174.43 227.44 174.59 226.16 174.72C224.88 174.85 223.84 174.93 222.68 175.01H221.79C220.95 175.06 220.11 175.1 219.27 175.12H218.27C217.47 175.12 216.67 175.12 215.87 175.12H214.87C213.81 175.12 212.75 175.12 211.69 175.01H211.46C210.46 174.95 209.46 174.87 208.46 174.79L207.51 174.69C206.69 174.61 205.87 174.52 205.05 174.41L204.26 174.31C203.18 174.16 202.1 174 201.02 173.81L200.57 173.72C199.52 173.53 198.48 173.33 197.44 173.11C196.4 172.89 195.33 172.62 194.27 172.35L193.33 172.1L191.42 171.55C190.56 171.3 189.69 171.03 188.83 170.75L187.47 170.3C186.47 169.94 185.42 169.57 184.4 169.17C184.12 169.06 183.83 168.97 183.54 168.85C182.87 168.59 182.2 168.29 181.54 168.01L180.02 167.37C179.31 167.06 178.6 166.72 177.89 166.37L176.47 165.71C175.68 165.32 174.89 164.91 174.09 164.5L172.93 163.9C171.75 163.28 170.57 162.62 169.38 161.9C160.093 156.527 153.68 151.137 150.14 145.73C149.558 144.85 149.037 143.931 148.58 142.98C147.274 140.365 146.59 137.483 146.58 134.56L146.47 172.25C146.524 176.241 147.763 180.125 150.03 183.41C153.637 188.897 160.087 194.307 169.38 199.64C170.56 200.32 171.74 200.98 172.92 201.64L174.08 202.23C174.87 202.64 175.67 203.05 176.47 203.44C176.93 203.67 177.4 203.87 177.87 204.09C178.58 204.43 179.3 204.77 180.01 205.09L181.53 205.73C182.21 206.01 182.88 206.31 183.53 206.57L183.67 206.63C183.91 206.73 184.15 206.8 184.39 206.89C185.39 207.29 186.39 207.67 187.45 208.02L188.81 208.47C189.68 208.75 190.54 209.02 191.4 209.27L192.12 209.5L193.31 209.82L194.26 210.07C195.31 210.34 196.37 210.6 197.42 210.83L198.3 211.01C199.05 211.17 199.79 211.31 200.54 211.44L201.01 211.53C202.01 211.7 202.93 211.85 203.9 211.99H204.24L205.03 212.09C205.85 212.2 206.67 212.29 207.5 212.38L208.44 212.47L209.11 212.53C209.87 212.6 210.64 212.64 211.4 212.69H211.63C212.51 212.74 213.39 212.78 214.27 212.8H215.79C216.58 212.8 217.38 212.8 218.18 212.8H219.18H219.73C220.39 212.8 221.05 212.74 221.73 212.7H222.61C223.69 212.63 224.77 212.54 225.85 212.44H226.1C227.37 212.31 228.65 212.15 229.93 211.98L231.23 211.77C232.09 211.64 232.94 211.51 233.81 211.36L234.13 211.31L235.55 211.03C236.23 210.89 236.9 210.77 237.55 210.62C238.2 210.47 238.73 210.36 239.33 210.22L241.33 209.75L243.13 209.28L245.13 208.73C245.74 208.56 246.35 208.37 246.95 208.19C247.55 208.01 248.32 207.79 248.95 207.57L249.51 207.4L251.31 206.8L252.47 206.41C253.67 205.99 254.87 205.56 256.08 205.11C267.352 200.774 278.246 195.513 288.65 189.38C289.983 188.6 291.29 187.823 292.57 187.05H292.62L293.13 186.74L296.23 184.82L297.42 184.05L299.66 182.6L300.95 181.73C301.62 181.28 302.27 180.84 302.95 180.39L304.23 179.5C304.85 179.06 305.46 178.62 306.05 178.18C306.46 177.89 306.86 177.6 307.25 177.3C307.85 176.86 308.42 176.42 309 175.97L310.08 175.14C310.69 174.66 311.27 174.14 311.86 173.7L312.71 173C313.56 172.29 314.38 171.58 315.16 170.88L316.11 170.02C316.48 169.68 316.82 169.34 317.17 169.02L317.66 168.55C318.34 167.89 318.98 167.23 319.59 166.55L319.99 166.1C320.46 165.58 320.92 165.1 321.35 164.54L321.85 163.93C321.99 163.76 322.14 163.59 322.27 163.42C322.62 162.98 322.94 162.55 323.27 162.11L323.41 161.91C323.9 161.23 324.36 160.55 324.78 159.91C325.02 159.52 325.26 159.13 325.48 158.74C325.58 158.55 325.66 158.38 325.76 158.2C325.86 158.02 326.07 157.61 326.21 157.32C326.35 157.03 326.59 156.52 326.76 156.12C326.93 155.72 327.02 155.55 327.13 155.26C327.24 154.97 327.25 154.99 327.3 154.85C327.48 154.39 327.63 153.93 327.77 153.47C327.97 152.83 328.13 152.19 328.26 151.56C328.285 151.481 328.305 151.401 328.32 151.32C328.32 151.2 328.32 151.08 328.38 150.96C328.44 150.66 328.48 150.36 328.52 150.06C328.56 149.76 328.58 149.62 328.6 149.4C328.62 149.18 328.65 148.8 328.67 148.5C328.67 148.36 328.67 148.22 328.67 148.08C328.67 147.94 328.67 147.76 328.67 147.59L328.77 109.91C328.77 110.21 328.77 110.52 328.77 110.82" fill="#38A169"/>
<path d="M315.36 133.11C308.693 139.07 299.867 145.247 288.88 151.64C278.479 157.773 267.589 163.034 256.32 167.37C246.632 171.106 236.501 173.57 226.18 174.7C216.618 175.699 206.957 175.172 197.56 173.14C187.678 170.904 178.204 167.143 169.48 161.99C160.193 156.617 153.78 151.227 150.24 145.82C146.7 140.413 145.8 134.833 147.54 129.08C149.267 123.413 153.433 117.6 160.04 111.64C166.647 105.68 175.593 99.4167 186.88 92.85C197.256 86.6943 208.131 81.4224 219.39 77.09C229.129 73.4206 239.299 71.0176 249.65 69.94C259.343 68.937 269.135 69.4975 278.65 71.6C288.329 73.8337 297.611 77.5259 306.18 82.55C315.707 88.05 322.17 93.5 325.57 98.9C327.208 101.328 328.274 104.096 328.688 106.995C329.102 109.895 328.853 112.851 327.96 115.64C326.22 121.307 322.02 127.123 315.36 133.09V133.11ZM217.36 149.9C226.747 147.587 239.497 141.75 255.61 132.39C271.843 122.957 281.89 115.56 285.75 110.2C289.61 104.84 288.337 100.32 281.93 96.64C275.61 92.9867 267.807 92.28 258.52 94.52C249.233 96.76 236.423 102.627 220.09 112.12C204.09 121.413 194.117 128.787 190.17 134.24C186.223 139.693 187.413 144.243 193.74 147.89C200.08 151.55 207.947 152.217 217.34 149.89" fill="#68D391"/>
<path d="M423.99 191.12L423.88 228.8L345.7 235.47L345.81 197.79L423.99 191.12Z" fill="#38A169"/>
<path d="M355.64 230.84L355.53 268.53L297.39 234.96L297.5 197.28L355.64 230.84Z" fill="#38A169"/>
<path d="M488.41 190.81L488.3 228.5L411.21 273.29L411.32 235.61L488.41 190.81Z" fill="#48BB78"/>
<path d="M405.53 259.65L405.42 297.33L387.58 287.03L387.68 249.35L405.53 259.65Z" fill="#38A169"/>
<path d="M429.17 245.91L429.06 283.59L405.42 297.33L405.53 259.65L429.17 245.91Z" fill="#48BB78"/>
<path d="M356.73 267.33L356.63 305.01L324.58 286.51L324.69 248.83L356.73 267.33Z" fill="#38A169"/>
<path d="M387.68 249.35L387.58 287.03L356.62 305.01L356.73 267.33L387.68 249.35Z" fill="#48BB78"/>
<path d="M411.33 235.64L429.17 245.95L405.53 259.64L387.69 249.34L356.74 267.34L324.69 248.84L355.64 230.84L297.5 197.27L322.02 183.02L455.3 171.69L488.41 190.81L411.33 235.64ZM379.28 217.14L424 191.14L345.82 197.8L379.28 217.12" fill="#68D391"/>
<path d="M367.16 227.51C369.281 231.284 371.854 234.786 374.82 237.94C375.65 238.94 382.02 236.47 380.68 235.78C379.34 235.09 375.18 229.28 373.09 225.41C371.338 220.774 369.849 216.043 368.63 211.24C367.32 206.5 366.19 199.53 365.23 196.24C364.27 192.95 362.31 191.73 360.35 191.24C358.06 190.71 356.58 191.34 356.99 194.11C357.73 198.99 361.53 217.9 367.16 227.47" fill="#FFCEA9"/>
<path d="M363.51 301.64C365.51 303.25 368.39 301.78 368.51 301.93C370.832 304.08 373.265 306.106 375.8 308C377.03 309 378.95 310.26 378.61 312.13C377.98 315.45 372.61 314.43 370.61 313.41C368.61 312.39 366.96 310.71 365.06 309.52C363.7 308.68 362.37 308.25 362.15 306.52C362.03 305.52 363.09 301.59 363.45 301.63" fill="#2B2A30"/>
<path d="M362.24 305.82C362.5 307.46 363.82 307.91 365.17 308.75C367.1 309.95 368.8 311.68 370.81 312.7C372.82 313.72 377.3 314.58 378.61 312.2C377.9 315.41 372.61 314.4 370.67 313.39C368.73 312.38 367.02 310.69 365.12 309.5C363.76 308.66 362.43 308.22 362.22 306.5C362.191 306.271 362.191 306.039 362.22 305.81" fill="#BF4B4B"/>
<path d="M383.54 290.08C385.54 291.69 388.98 289.93 389.12 290.08C391.174 292.165 393.348 294.128 395.63 295.96C396.87 296.96 398.79 298.23 398.44 300.09C397.82 303.42 392.49 302.39 390.44 301.37C388.39 300.35 386.78 298.67 384.88 297.49C383.52 296.64 382.19 296.21 381.98 294.49C381.85 293.49 383.15 290.04 383.5 290.08" fill="#2B2A30"/>
<path d="M382.08 294.04C382.34 295.68 383.66 296.13 385 296.97C386.94 298.17 388.64 299.9 390.65 300.92C392.66 301.94 397.14 302.79 398.45 300.42C397.74 303.63 392.5 302.62 390.51 301.61C388.52 300.6 386.86 298.9 384.96 297.72C383.6 296.88 382.26 296.44 382.05 294.72C382.022 294.491 382.022 294.259 382.05 294.03" fill="#BF4B4B"/>
<path d="M337.09 238.3C334.88 251.98 340.98 257.08 348.88 259.99C354.54 262.08 362.67 265.3 362.67 265.3C362.67 265.3 362.56 268.3 362.5 275.04C362.44 280.97 363.22 302.63 363.22 302.63C363.22 302.63 366.5 304.33 369.27 302.56C369.27 302.56 372.46 285.97 373.13 278.49C374.05 268.34 375.61 261.7 375.13 259.49C374.67 257.57 363.58 252.11 360.06 249.19L383.3 256.98C382.837 259.5 382.609 262.058 382.62 264.62C382.84 272.68 383.28 290.11 383.28 290.11C383.28 290.11 386.47 292.41 389.19 290.11C389.19 290.11 395.04 255.6 394.33 251.03C393.65 246.7 373.17 237.84 369.57 234.79C368.93 234.284 368.19 233.919 367.399 233.721C366.607 233.523 365.783 233.495 364.98 233.64L337.09 238.3Z" fill="#E26D6D"/>
<path d="M392.82 244L377.2 235C377.063 234.921 376.908 234.879 376.75 234.879C376.592 234.879 376.437 234.921 376.3 235L348.88 250.8L364.94 260.07L392.82 244Z" fill="#F4F4F4"/>
<path d="M364.25 256.76L363.06 257.44C362.96 257.5 362.97 257.6 363.06 257.66L364.2 258.32C364.259 258.35 364.324 258.365 364.39 258.365C364.456 258.365 364.521 258.35 364.58 258.32L365.77 257.64C365.87 257.58 365.85 257.48 365.77 257.42L364.64 256.76C364.581 256.73 364.516 256.715 364.45 256.715C364.384 256.715 364.319 256.73 364.26 256.76" fill="#3A2C6D"/>
<path d="M365.93 255.78L364.74 256.47C364.64 256.53 364.66 256.63 364.74 256.69L365.88 257.35C365.937 257.38 366.001 257.395 366.065 257.395C366.129 257.395 366.193 257.38 366.25 257.35L367.44 256.66C367.54 256.66 367.53 256.51 367.44 256.45L366.3 255.79C366.241 255.761 366.176 255.746 366.11 255.746C366.044 255.746 365.979 255.761 365.92 255.79" fill="#3A2C6D"/>
<path d="M367.64 254.8L366.45 255.49C366.35 255.49 366.36 255.64 366.45 255.71L367.59 256.36C367.649 256.389 367.714 256.404 367.78 256.404C367.846 256.404 367.911 256.389 367.97 256.36L369.16 255.67C369.26 255.61 369.24 255.52 369.16 255.45L368.03 254.8C367.972 254.768 367.906 254.752 367.84 254.752C367.774 254.752 367.708 254.768 367.65 254.8" fill="#3A2C6D"/>
<path d="M369.3 253.84L368.11 254.53C368.01 254.58 368.03 254.68 368.11 254.74L369.25 255.4C369.308 255.427 369.371 255.441 369.435 255.441C369.499 255.441 369.562 255.427 369.62 255.4L370.81 254.71C370.91 254.65 370.9 254.55 370.81 254.49L369.67 253.83C369.611 253.8 369.546 253.785 369.48 253.785C369.414 253.785 369.349 253.8 369.29 253.83" fill="#3A2C6D"/>
<path d="M370.99 252.87L369.8 253.55C369.7 253.61 369.71 253.71 369.8 253.77L370.94 254.43C370.999 254.46 371.064 254.475 371.13 254.475C371.196 254.475 371.261 254.46 371.32 254.43L372.51 253.75C372.61 253.69 372.59 253.59 372.51 253.53L371.38 252.87C371.321 252.84 371.256 252.825 371.19 252.825C371.124 252.825 371.059 252.84 371 252.87" fill="#3A2C6D"/>
<path d="M372.67 251.89L371.48 252.58C371.38 252.64 371.4 252.73 371.48 252.8L372.62 253.45C372.677 253.482 372.74 253.498 372.805 253.498C372.87 253.498 372.933 253.482 372.99 253.45L374.18 252.76C374.28 252.71 374.27 252.61 374.18 252.54L373.04 251.89C372.981 251.861 372.916 251.846 372.85 251.846C372.784 251.846 372.719 251.861 372.66 251.89" fill="#3A2C6D"/>
<path d="M374.36 250.92L373.17 251.61C373.07 251.61 373.08 251.76 373.17 251.83L374.31 252.48C374.369 252.509 374.434 252.524 374.5 252.524C374.566 252.524 374.631 252.509 374.69 252.48L375.88 251.79C375.98 251.73 375.96 251.64 375.88 251.57L374.75 250.92C374.692 250.888 374.626 250.872 374.56 250.872C374.494 250.872 374.428 250.888 374.37 250.92" fill="#3A2C6D"/>
<path d="M376.04 249.95L374.88 250.64C374.79 250.7 374.8 250.8 374.88 250.86L376.02 251.52C376.079 251.55 376.144 251.565 376.21 251.565C376.276 251.565 376.341 251.55 376.4 251.52L377.59 250.84C377.68 250.78 377.67 250.68 377.59 250.62L376.45 249.96C376.391 249.93 376.326 249.915 376.26 249.915C376.194 249.915 376.129 249.93 376.07 249.96" fill="#3A2C6D"/>
<path d="M377.73 248.97L376.54 249.66C376.44 249.72 376.45 249.82 376.54 249.88L377.68 250.54C377.739 250.57 377.804 250.585 377.87 250.585C377.936 250.585 378.001 250.57 378.06 250.54L379.25 249.85C379.35 249.8 379.33 249.7 379.25 249.64L378.12 248.98C378.061 248.951 377.996 248.936 377.93 248.936C377.864 248.936 377.799 248.951 377.74 248.98" fill="#3A2C6D"/>
<path d="M379.41 248L378.22 248.69C378.13 248.74 378.14 248.84 378.22 248.91L379.36 249.56C379.419 249.589 379.484 249.604 379.55 249.604C379.616 249.604 379.681 249.589 379.74 249.56L380.93 248.87C381.02 248.82 381.01 248.72 380.93 248.65L379.79 248C379.732 247.968 379.666 247.952 379.6 247.952C379.534 247.952 379.468 247.968 379.41 248Z" fill="#3A2C6D"/>
<path d="M381.1 247.03L379.91 247.71C379.81 247.77 379.82 247.87 379.91 247.93L381.05 248.59C381.11 248.617 381.174 248.631 381.24 248.631C381.306 248.631 381.37 248.617 381.43 248.59L382.62 247.9C382.72 247.84 382.7 247.74 382.62 247.68L381.49 247.02C381.431 246.99 381.366 246.975 381.3 246.975C381.234 246.975 381.169 246.99 381.11 247.02" fill="#3A2C6D"/>
<path d="M382.78 246.05L381.59 246.74C381.5 246.8 381.51 246.9 381.59 246.96L382.73 247.62C382.789 247.65 382.854 247.665 382.92 247.665C382.986 247.665 383.051 247.65 383.11 247.62L384.3 246.94C384.39 246.88 384.38 246.78 384.3 246.72L383.16 246.06C383.1 246.033 383.036 246.019 382.97 246.019C382.904 246.019 382.84 246.033 382.78 246.06" fill="#3A2C6D"/>
<path d="M384.47 245.08L383.28 245.77C383.18 245.83 383.19 245.92 383.28 245.99L384.42 246.64C384.478 246.672 384.544 246.688 384.61 246.688C384.676 246.688 384.742 246.672 384.8 246.64L385.99 245.95C386.09 245.9 386.07 245.8 385.99 245.73L384.86 245.08C384.801 245.051 384.736 245.036 384.67 245.036C384.604 245.036 384.539 245.051 384.48 245.08" fill="#3A2C6D"/>
<path d="M386.96 243.64L384.96 244.8C384.86 244.8 384.88 244.95 384.96 245.02L386.1 245.67C386.157 245.699 386.221 245.714 386.285 245.714C386.349 245.714 386.413 245.699 386.47 245.67L388.47 244.51C388.56 244.46 388.55 244.36 388.47 244.29L387.33 243.64C387.272 243.608 387.206 243.592 387.14 243.592C387.074 243.592 387.008 243.608 386.95 243.64" fill="#3A2C6D"/>
<path d="M365.11 254.37L363.92 255.06C363.83 255.11 363.84 255.21 363.92 255.28L365.06 255.93C365.119 255.959 365.184 255.974 365.25 255.974C365.316 255.974 365.381 255.959 365.44 255.93L366.63 255.24C366.72 255.18 366.71 255.09 366.63 255.02L365.49 254.37C365.432 254.339 365.366 254.322 365.3 254.322C365.234 254.322 365.168 254.339 365.11 254.37Z" fill="#3A2C6D"/>
<path d="M366.8 253.4L365.61 254.08C365.51 254.14 365.53 254.24 365.61 254.3L366.74 254.96C366.799 254.99 366.864 255.005 366.93 255.005C366.996 255.005 367.061 254.99 367.12 254.96L368.31 254.28C368.41 254.22 368.4 254.12 368.31 254.06L367.17 253.4C367.111 253.37 367.046 253.355 366.98 253.355C366.914 253.355 366.849 253.37 366.79 253.4" fill="#3A2C6D"/>
<path d="M368.49 252.42L367.3 253.11C367.2 253.11 367.21 253.26 367.3 253.33L368.43 253.98C368.488 254.012 368.554 254.028 368.62 254.028C368.686 254.028 368.752 254.012 368.81 253.98L370 253.29C370.1 253.24 370.09 253.14 370 253.07L368.88 252.44C368.821 252.411 368.756 252.396 368.69 252.396C368.624 252.396 368.559 252.411 368.5 252.44" fill="#3A2C6D"/>
<path d="M370.18 251.45L368.99 252.13C368.89 252.19 368.9 252.29 368.99 252.35L370.13 253.01C370.189 253.04 370.254 253.055 370.32 253.055C370.386 253.055 370.451 253.04 370.51 253.01L371.7 252.33C371.8 252.27 371.78 252.17 371.7 252.11L370.57 251.45C370.511 251.42 370.446 251.405 370.38 251.405C370.314 251.405 370.249 251.42 370.19 251.45" fill="#3A2C6D"/>
<path d="M371.88 250.48L370.69 251.17C370.59 251.22 370.61 251.32 370.69 251.39L371.82 252.04C371.879 252.069 371.944 252.084 372.01 252.084C372.076 252.084 372.141 252.069 372.2 252.04L373.39 251.35C373.49 251.29 373.48 251.2 373.39 251.13L372.25 250.48C372.192 250.448 372.126 250.432 372.06 250.432C371.994 250.432 371.928 250.448 371.87 250.48" fill="#3A2C6D"/>
<path d="M373.54 249.51L372.35 250.19C372.25 250.25 372.27 250.35 372.35 250.41L373.48 251.07C373.539 251.1 373.604 251.115 373.67 251.115C373.736 251.115 373.801 251.1 373.86 251.07L375.05 250.39C375.15 250.33 375.14 250.23 375.05 250.17L373.91 249.51C373.851 249.48 373.786 249.465 373.72 249.465C373.654 249.465 373.589 249.48 373.53 249.51" fill="#3A2C6D"/>
<path d="M375.23 248.53L374.04 249.22C373.94 249.27 373.95 249.37 374.04 249.44L375.18 250.09C375.239 250.119 375.304 250.134 375.37 250.134C375.436 250.134 375.501 250.119 375.56 250.09L376.75 249.4C376.85 249.4 376.83 249.25 376.75 249.18L375.62 248.53C375.562 248.499 375.496 248.482 375.43 248.482C375.364 248.482 375.298 248.499 375.24 248.53" fill="#3A2C6D"/>
<path d="M376.88 247.56L375.69 248.24C375.59 248.3 375.6 248.4 375.69 248.46L376.83 249.12C376.889 249.15 376.954 249.165 377.02 249.165C377.086 249.165 377.151 249.15 377.21 249.12L378.4 248.44C378.5 248.38 378.48 248.28 378.4 248.22L377.27 247.56C377.211 247.53 377.146 247.515 377.08 247.515C377.014 247.515 376.949 247.53 376.89 247.56" fill="#3A2C6D"/>
<path d="M378.6 246.58L377.41 247.27C377.32 247.33 377.33 247.42 377.41 247.49L378.55 248.14C378.608 248.172 378.674 248.188 378.74 248.188C378.806 248.188 378.872 248.172 378.93 248.14L380.12 247.45C380.21 247.4 380.2 247.3 380.12 247.23L378.98 246.64C378.921 246.611 378.856 246.596 378.79 246.596C378.724 246.596 378.659 246.611 378.6 246.64" fill="#3A2C6D"/>
<path d="M380.29 245.64L379.1 246.32C379 246.38 379.02 246.48 379.1 246.54L380.24 247.2C380.297 247.23 380.361 247.245 380.425 247.245C380.489 247.245 380.553 247.23 380.61 247.2L381.8 246.52C381.9 246.46 381.89 246.36 381.8 246.3L380.66 245.64C380.601 245.61 380.536 245.595 380.47 245.595C380.404 245.595 380.339 245.61 380.28 245.64" fill="#3A2C6D"/>
<path d="M381.98 244.64L380.79 245.33C380.69 245.39 380.7 245.48 380.79 245.55L381.92 246.21C381.979 246.24 382.044 246.255 382.11 246.255C382.176 246.255 382.241 246.24 382.3 246.21L383.49 245.52C383.59 245.47 383.58 245.37 383.49 245.3L382.36 244.65C382.301 244.621 382.236 244.606 382.17 244.606C382.104 244.606 382.039 244.621 381.98 244.65" fill="#3A2C6D"/>
<path d="M383.67 243.64L382.48 244.33C382.38 244.38 382.39 244.48 382.48 244.54L383.61 245.2C383.67 245.227 383.734 245.241 383.8 245.241C383.866 245.241 383.93 245.227 383.99 245.2L385.18 244.51C385.28 244.45 385.27 244.35 385.18 244.29L384.05 243.63C383.991 243.6 383.926 243.585 383.86 243.585C383.794 243.585 383.729 243.6 383.67 243.63" fill="#3A2C6D"/>
<path d="M363.43 255.35L361.43 256.5C361.34 256.56 361.35 256.66 361.43 256.72L362.57 257.38C362.629 257.41 362.694 257.425 362.76 257.425C362.826 257.425 362.891 257.41 362.95 257.38L364.95 256.23C365.04 256.17 365.03 256.07 364.95 256.01L363.81 255.35C363.753 255.32 363.689 255.305 363.625 255.305C363.561 255.305 363.497 255.32 363.44 255.35" fill="#3A2C6D"/>
<path d="M386.88 243.58L385.69 244.27C385.635 244.295 385.575 244.307 385.515 244.307C385.455 244.307 385.395 244.295 385.34 244.27L384.14 243.57C384.113 243.57 384.088 243.559 384.069 243.541C384.051 243.522 384.04 243.497 384.04 243.47C384.04 243.443 384.051 243.418 384.069 243.399C384.088 243.381 384.113 243.37 384.14 243.37L384.23 243.31C384.32 243.26 384.32 243.18 384.23 243.12L382.96 242.39C382.933 242.39 382.908 242.379 382.889 242.361C382.871 242.342 382.86 242.317 382.86 242.29C382.86 242.263 382.871 242.238 382.889 242.219C382.908 242.201 382.933 242.19 382.96 242.19L383.72 241.75C383.774 241.723 383.834 241.709 383.895 241.709C383.956 241.709 384.016 241.723 384.07 241.75L385.26 242.44L385.5 242.58L385.68 242.68L385.86 242.78L386.86 243.37C386.96 243.43 386.96 243.52 386.86 243.58" fill="#3A2C6D"/>
<path d="M357.72 252.98L356.53 253.67C356.43 253.72 356.45 253.82 356.53 253.89L357.66 254.54C357.719 254.569 357.784 254.584 357.85 254.584C357.916 254.584 357.981 254.569 358.04 254.54L359.23 253.85C359.33 253.79 359.32 253.7 359.23 253.63L358.09 252.98C358.032 252.948 357.966 252.932 357.9 252.932C357.834 252.932 357.768 252.948 357.71 252.98" fill="#3A2C6D"/>
<path d="M359.4 252.01L358.21 252.7C358.11 252.75 358.13 252.85 358.21 252.92L359.34 253.57C359.399 253.599 359.464 253.614 359.53 253.614C359.596 253.614 359.661 253.599 359.72 253.57L360.91 252.88C361.01 252.83 361 252.73 360.91 252.66L359.77 252.01C359.712 251.978 359.646 251.962 359.58 251.962C359.514 251.962 359.448 251.978 359.39 252.01" fill="#3A2C6D"/>
<path d="M361.08 251.04L359.89 251.73C359.79 251.78 359.81 251.88 359.89 251.95L361.03 252.6C361.087 252.629 361.151 252.644 361.215 252.644C361.279 252.644 361.343 252.629 361.4 252.6L362.59 251.91C362.69 251.86 362.68 251.76 362.59 251.69L361.45 251.04C361.392 251.008 361.326 250.992 361.26 250.992C361.194 250.992 361.128 251.008 361.07 251.04" fill="#3A2C6D"/>
<path d="M375.39 242.78L374.2 243.47C374.1 243.52 374.12 243.62 374.2 243.68L375.33 244.34C375.389 244.369 375.454 244.384 375.52 244.384C375.586 244.384 375.651 244.369 375.71 244.34L376.9 243.65C377 243.59 376.99 243.5 376.9 243.43L375.76 242.78C375.702 242.749 375.636 242.732 375.57 242.732C375.504 242.732 375.438 242.749 375.38 242.78" fill="#3A2C6D"/>
<path d="M377.07 241.81L375.88 242.5C375.78 242.55 375.8 242.65 375.88 242.71L377.01 243.37C377.069 243.399 377.134 243.414 377.2 243.414C377.266 243.414 377.331 243.399 377.39 243.37L378.58 242.68C378.68 242.62 378.67 242.52 378.58 242.46L377.44 241.8C377.381 241.77 377.316 241.755 377.25 241.755C377.184 241.755 377.119 241.77 377.06 241.8" fill="#3A2C6D"/>
<path d="M378.75 240.84L377.56 241.53C377.46 241.58 377.48 241.68 377.56 241.75L378.69 242.4C378.749 242.429 378.814 242.444 378.88 242.444C378.946 242.444 379.011 242.429 379.07 242.4L380.26 241.71C380.36 241.65 380.35 241.56 380.26 241.49L379.12 240.84C379.062 240.809 378.996 240.792 378.93 240.792C378.864 240.792 378.798 240.809 378.74 240.84" fill="#3A2C6D"/>
<path d="M380.43 239.87L379.24 240.56C379.14 240.61 379.16 240.71 379.24 240.77L380.37 241.43C380.429 241.459 380.494 241.474 380.56 241.474C380.626 241.474 380.691 241.459 380.75 241.43L381.94 240.74C382.04 240.68 382.03 240.58 381.94 240.52L380.8 239.87C380.742 239.839 380.676 239.822 380.61 239.822C380.544 239.822 380.478 239.839 380.42 239.87" fill="#3A2C6D"/>
<path d="M363.19 249.82L361.57 250.76C361.47 250.81 361.49 250.91 361.57 250.98L362.7 251.63C362.759 251.659 362.824 251.674 362.89 251.674C362.956 251.674 363.021 251.659 363.08 251.63L364.71 250.69C364.8 250.63 364.79 250.54 364.71 250.47L363.57 249.82C363.512 249.788 363.446 249.772 363.38 249.772C363.314 249.772 363.248 249.788 363.19 249.82Z" fill="#3A2C6D"/>
<path d="M373.71 243.75L372.09 244.69C371.99 244.74 372 244.84 372.09 244.91L373.23 245.56C373.289 245.589 373.354 245.604 373.42 245.604C373.486 245.604 373.551 245.589 373.61 245.56L375.23 244.62C375.33 244.56 375.32 244.47 375.23 244.4L374.09 243.75C374.032 243.718 373.966 243.702 373.9 243.702C373.834 243.702 373.768 243.718 373.71 243.75Z" fill="#3A2C6D"/>
<path d="M371.6 244.97L363.68 249.54C363.59 249.59 363.6 249.69 363.68 249.76L364.82 250.41C364.879 250.439 364.944 250.454 365.01 250.454C365.076 250.454 365.141 250.439 365.2 250.41L373.11 245.84C373.21 245.78 373.19 245.69 373.11 245.62L371.98 244.97C371.922 244.938 371.856 244.922 371.79 244.922C371.724 244.922 371.658 244.938 371.6 244.97Z" fill="#3A2C6D"/>
<path d="M363.94 253.16L362.75 253.85C362.65 253.91 362.66 254 362.75 254.07L363.88 254.72C363.938 254.751 364.004 254.768 364.07 254.768C364.136 254.768 364.202 254.751 364.26 254.72L365.45 254.03C365.55 253.98 365.54 253.88 365.45 253.81L364.32 253.16C364.261 253.131 364.196 253.116 364.13 253.116C364.064 253.116 363.999 253.131 363.94 253.16Z" fill="#3A2C6D"/>
<path d="M365.62 252.19L364.43 252.88C364.34 252.93 364.35 253.03 364.43 253.1L365.57 253.75C365.627 253.779 365.691 253.794 365.755 253.794C365.819 253.794 365.883 253.779 365.94 253.75L367.13 253.06C367.23 253.01 367.22 252.91 367.13 252.84L365.99 252.19C365.932 252.158 365.866 252.142 365.8 252.142C365.734 252.142 365.668 252.158 365.61 252.19" fill="#3A2C6D"/>
<path d="M367.3 251.22L366.12 251.91C366.02 251.96 366.03 252.06 366.12 252.13L367.26 252.78C367.319 252.809 367.384 252.824 367.45 252.824C367.516 252.824 367.581 252.809 367.64 252.78L368.83 252.09C368.92 252.03 368.91 251.94 368.83 251.87L367.69 251.22C367.632 251.188 367.566 251.172 367.5 251.172C367.434 251.172 367.368 251.188 367.31 251.22" fill="#3A2C6D"/>
<path d="M368.99 250.25L367.8 250.93C367.7 250.99 367.71 251.09 367.8 251.15L368.93 251.81C368.989 251.84 369.054 251.855 369.12 251.855C369.186 251.855 369.251 251.84 369.31 251.81L370.5 251.13C370.6 251.07 370.59 250.97 370.5 250.91L369.37 250.25C369.311 250.22 369.246 250.205 369.18 250.205C369.114 250.205 369.049 250.22 368.99 250.25Z" fill="#3A2C6D"/>
<path d="M370.67 249.28L369.48 249.96C369.38 250.02 369.4 250.12 369.48 250.18L370.61 250.84C370.669 250.87 370.734 250.885 370.8 250.885C370.866 250.885 370.931 250.87 370.99 250.84L372.18 250.16C372.28 250.1 372.27 250 372.18 249.94L371.04 249.28C370.981 249.25 370.916 249.235 370.85 249.235C370.784 249.235 370.719 249.25 370.66 249.28" fill="#3A2C6D"/>
<path d="M372.35 248.3L371.16 248.99C371.07 249.05 371.08 249.15 371.16 249.21L372.3 249.87C372.359 249.9 372.424 249.915 372.49 249.915C372.556 249.915 372.621 249.9 372.68 249.87L373.87 249.19C373.96 249.13 373.95 249.03 373.87 248.97L372.73 248.31C372.67 248.283 372.606 248.269 372.54 248.269C372.474 248.269 372.41 248.283 372.35 248.31" fill="#3A2C6D"/>
<path d="M374.04 247.33L372.85 248.02C372.75 248.08 372.76 248.17 372.85 248.24L373.98 248.89C374.038 248.922 374.104 248.938 374.17 248.938C374.236 248.938 374.302 248.922 374.36 248.89L375.55 248.2C375.65 248.15 375.64 248.05 375.55 247.98L374.42 247.33C374.361 247.301 374.296 247.286 374.23 247.286C374.164 247.286 374.099 247.301 374.04 247.33Z" fill="#3A2C6D"/>
<path d="M375.72 246.36L374.53 247.05C374.43 247.05 374.45 247.2 374.53 247.27L375.66 247.92C375.719 247.949 375.784 247.964 375.85 247.964C375.916 247.964 375.981 247.949 376.04 247.92L377.23 247.23C377.33 247.17 377.32 247.08 377.23 247.01L376.09 246.36C376.032 246.328 375.966 246.312 375.9 246.312C375.834 246.312 375.768 246.328 375.71 246.36" fill="#3A2C6D"/>
<path d="M377.4 245.39L376.21 246.08C376.12 246.13 376.13 246.23 376.21 246.29L377.35 246.95C377.409 246.979 377.474 246.994 377.54 246.994C377.606 246.994 377.671 246.979 377.73 246.95L378.92 246.26C379.01 246.2 379 246.11 378.92 246.04L377.78 245.38C377.721 245.35 377.656 245.335 377.59 245.335C377.524 245.335 377.459 245.35 377.4 245.38" fill="#3A2C6D"/>
<path d="M379.09 244.42L377.9 245.1C377.8 245.16 377.81 245.26 377.9 245.32L379.04 245.98C379.099 246.01 379.164 246.025 379.23 246.025C379.296 246.025 379.361 246.01 379.42 245.98L380.61 245.3C380.71 245.24 380.69 245.14 380.61 245.08L379.48 244.42C379.421 244.39 379.356 244.375 379.29 244.375C379.224 244.375 379.159 244.39 379.1 244.42" fill="#3A2C6D"/>
<path d="M380.77 243.44L379.58 244.13C379.48 244.19 379.5 244.29 379.58 244.35L380.71 245.01C380.769 245.04 380.834 245.055 380.9 245.055C380.966 245.055 381.031 245.04 381.09 245.01L382.28 244.33C382.38 244.27 382.37 244.17 382.28 244.11L381.14 243.45C381.08 243.423 381.016 243.409 380.95 243.409C380.884 243.409 380.82 243.423 380.76 243.45" fill="#3A2C6D"/>
<path d="M382.45 242.47L381.26 243.16C381.17 243.22 381.18 243.32 381.26 243.38L382.4 244.04C382.459 244.07 382.524 244.085 382.59 244.085C382.656 244.085 382.721 244.07 382.78 244.04L383.97 243.35C384.06 243.3 384.05 243.2 383.97 243.14L382.83 242.48C382.771 242.451 382.706 242.436 382.64 242.436C382.574 242.436 382.509 242.451 382.45 242.48" fill="#3A2C6D"/>
<path d="M362.26 254.14L359.79 255.56C359.7 255.61 359.71 255.71 359.79 255.78L360.93 256.43C360.989 256.459 361.054 256.474 361.12 256.474C361.186 256.474 361.251 256.459 361.31 256.43L363.77 255.01C363.86 254.95 363.85 254.85 363.77 254.79L362.64 254.13C362.581 254.1 362.516 254.085 362.45 254.085C362.384 254.085 362.319 254.1 362.26 254.13" fill="#3A2C6D"/>
<path d="M361.47 252.7L360.28 253.39C360.18 253.45 360.19 253.54 360.28 253.61L361.41 254.26C361.468 254.292 361.534 254.308 361.6 254.308C361.666 254.308 361.732 254.292 361.79 254.26L362.98 253.57C363.08 253.52 363.07 253.42 362.98 253.35L361.85 252.7C361.791 252.671 361.726 252.656 361.66 252.656C361.594 252.656 361.529 252.671 361.47 252.7Z" fill="#3A2C6D"/>
<path d="M363.15 251.73L361.96 252.42C361.87 252.47 361.88 252.57 361.96 252.64L363.1 253.29C363.159 253.319 363.224 253.334 363.29 253.334C363.356 253.334 363.421 253.319 363.48 253.29L364.66 252.6C364.76 252.54 364.75 252.45 364.66 252.38L363.52 251.73C363.462 251.698 363.396 251.682 363.33 251.682C363.264 251.682 363.198 251.698 363.14 251.73" fill="#3A2C6D"/>
<path d="M364.88 250.76L363.69 251.45C363.59 251.5 363.6 251.6 363.69 251.67L364.83 252.32C364.889 252.349 364.954 252.364 365.02 252.364C365.086 252.364 365.151 252.349 365.21 252.32L366.4 251.63C366.5 251.57 366.48 251.48 366.4 251.41L365.27 250.76C365.212 250.728 365.146 250.712 365.08 250.712C365.014 250.712 364.948 250.728 364.89 250.76" fill="#3A2C6D"/>
<path d="M366.52 249.79L365.33 250.47C365.23 250.53 365.24 250.63 365.33 250.69L366.46 251.35C366.519 251.38 366.584 251.395 366.65 251.395C366.716 251.395 366.781 251.38 366.84 251.35L368.03 250.67C368.13 250.61 368.12 250.51 368.03 250.45L366.9 249.79C366.841 249.76 366.776 249.745 366.71 249.745C366.644 249.745 366.579 249.76 366.52 249.79Z" fill="#3A2C6D"/>
<path d="M368.2 248.82L367.01 249.5C366.91 249.56 366.93 249.66 367.01 249.72L368.14 250.38C368.199 250.41 368.264 250.425 368.33 250.425C368.396 250.425 368.461 250.41 368.52 250.38L369.71 249.7C369.81 249.64 369.8 249.54 369.71 249.48L368.57 248.82C368.511 248.79 368.446 248.775 368.38 248.775C368.314 248.775 368.249 248.79 368.19 248.82" fill="#3A2C6D"/>
<path d="M369.88 247.84L368.69 248.53C368.6 248.59 368.61 248.69 368.69 248.75L369.83 249.41C369.889 249.44 369.954 249.455 370.02 249.455C370.086 249.455 370.151 249.44 370.21 249.41L371.4 248.73C371.49 248.67 371.48 248.57 371.4 248.51L370.26 247.85C370.2 247.823 370.136 247.809 370.07 247.809C370.004 247.809 369.94 247.823 369.88 247.85" fill="#3A2C6D"/>
<path d="M371.57 246.87L370.38 247.56C370.28 247.62 370.29 247.71 370.38 247.78L371.52 248.43C371.578 248.462 371.644 248.478 371.71 248.478C371.776 248.478 371.842 248.462 371.9 248.43L373.09 247.74C373.19 247.69 373.17 247.59 373.09 247.52L371.96 246.87C371.901 246.841 371.836 246.826 371.77 246.826C371.704 246.826 371.639 246.841 371.58 246.87" fill="#3A2C6D"/>
<path d="M373.25 245.9L372.06 246.59C371.96 246.64 371.98 246.74 372.06 246.81L373.19 247.46C373.249 247.489 373.314 247.504 373.38 247.504C373.446 247.504 373.511 247.489 373.57 247.46L374.76 246.77C374.86 246.71 374.85 246.62 374.76 246.55L373.62 245.9C373.562 245.869 373.496 245.852 373.43 245.852C373.364 245.852 373.298 245.869 373.24 245.9" fill="#3A2C6D"/>
<path d="M374.93 244.93L373.74 245.62C373.65 245.62 373.66 245.77 373.74 245.84L374.88 246.49C374.939 246.519 375.004 246.534 375.07 246.534C375.136 246.534 375.201 246.519 375.26 246.49L376.44 245.8C376.54 245.74 376.53 245.65 376.44 245.58L375.3 244.93C375.242 244.898 375.176 244.882 375.11 244.882C375.044 244.882 374.978 244.898 374.92 244.93" fill="#3A2C6D"/>
<path d="M376.62 243.96L375.43 244.64C375.33 244.7 375.34 244.8 375.43 244.86L376.57 245.52C376.63 245.547 376.694 245.561 376.76 245.561C376.826 245.561 376.89 245.547 376.95 245.52L378.14 244.83C378.24 244.77 378.22 244.67 378.14 244.61L377.01 243.95C376.951 243.92 376.886 243.905 376.82 243.905C376.754 243.905 376.689 243.92 376.63 243.95" fill="#3A2C6D"/>
<path d="M378.3 242.99L377.11 243.67C377.01 243.73 377.02 243.83 377.11 243.89L378.24 244.55C378.299 244.58 378.364 244.595 378.43 244.595C378.496 244.595 378.561 244.58 378.62 244.55L379.81 243.87C379.91 243.81 379.9 243.71 379.81 243.65L378.68 242.99C378.621 242.96 378.556 242.945 378.49 242.945C378.424 242.945 378.359 242.96 378.3 242.99Z" fill="#3A2C6D"/>
<path d="M382.06 240.81L378.79 242.7C378.69 242.76 378.71 242.86 378.79 242.92L379.92 243.58C379.979 243.61 380.044 243.625 380.11 243.625C380.176 243.625 380.241 243.61 380.3 243.58L383.58 241.69C383.67 241.64 383.66 241.54 383.58 241.47L382.44 240.82C382.381 240.791 382.316 240.776 382.25 240.776C382.184 240.776 382.119 240.791 382.06 240.82" fill="#3A2C6D"/>
<path d="M359.79 253.64L358.16 254.58C358.07 254.64 358.08 254.74 358.16 254.8L359.3 255.46C359.359 255.49 359.424 255.505 359.49 255.505C359.556 255.505 359.621 255.49 359.68 255.46L361.3 254.52C361.4 254.47 361.38 254.37 361.3 254.31L360.17 253.65C360.11 253.623 360.046 253.609 359.98 253.609C359.914 253.609 359.85 253.623 359.79 253.65" fill="#3A2C6D"/>
<path d="M388.66 244.64L364.76 258.44C364.66 258.49 364.67 258.59 364.76 258.66L365.33 258.98C365.389 259.009 365.454 259.024 365.52 259.024C365.586 259.024 365.651 259.009 365.71 258.98L389.61 245.18C389.71 245.12 389.69 245.02 389.61 244.96L389.04 244.63C388.983 244.6 388.919 244.585 388.855 244.585C388.791 244.585 388.727 244.6 388.67 244.63" fill="#3A2C6D"/>
<path d="M360.69 245.23L360.84 245.32L364.97 247.7L372.31 243.46L372.46 243.38L368.18 240.9L360.69 245.23Z" fill="#BFBFBF"/>
<path d="M360.84 245.32L364.97 247.7L372.31 243.46L368.18 241.08L360.84 245.32Z" fill="#E5E5E5"/>
<path d="M348.88 250.8V251.16C348.88 251.425 348.949 251.685 349.081 251.915C349.212 252.144 349.402 252.336 349.63 252.47L364.19 260.87C364.417 261.005 364.676 261.074 364.94 261.07C365.207 261.073 365.469 261.003 365.7 260.87L392.06 245.64C392.291 245.508 392.483 245.317 392.616 245.087C392.75 244.857 392.82 244.596 392.82 244.33V243.97L364.97 260.04L348.88 250.8Z" fill="#E5E5E5"/>
<path d="M365.4 260.3C365.65 260.395 365.917 260.433 366.183 260.413C366.45 260.392 366.708 260.312 366.94 260.18L393.16 245.04C393.387 244.907 393.582 244.726 393.732 244.51C393.882 244.295 393.984 244.049 394.03 243.79L396.88 226.64C396.88 226.54 396.88 226.44 396.88 226.35C396.881 226.114 396.834 225.88 396.743 225.661C396.652 225.443 396.519 225.246 396.35 225.08L369.14 240.84C368.973 240.94 368.829 241.074 368.718 241.235C368.608 241.395 368.533 241.578 368.5 241.77L365.4 260.3Z" fill="#F4F4F4"/>
<path d="M364.97 260.07L365.15 260.18L365.4 260.3L368.5 241.77C368.533 241.578 368.608 241.395 368.718 241.235C368.829 241.074 368.973 240.94 369.14 240.84L396.39 225.11C396.284 225 396.162 224.906 396.03 224.83L368.72 240.64C368.552 240.736 368.407 240.869 368.297 241.028C368.186 241.187 368.112 241.369 368.08 241.56L364.97 260.07Z" fill="#E5E5E5"/>
<path d="M345.18 186.81C345.18 186.81 345.51 193.32 345.37 193.9C345.23 194.48 342.37 196.38 341.55 197.07C340.73 197.76 346.05 203.01 348.65 204.2C351.25 205.39 359.45 202.26 359.65 198.2C359.85 194.14 358.24 190.78 356.98 190.6C355.72 190.42 345.23 186.79 345.23 186.79" fill="#FFCEA9"/>
<path d="M344.45 195.02C344.45 195.02 349.18 202.07 355.77 202.73C357.85 200.73 358.04 193.38 355.16 191.05C355.16 191.05 357.81 188.92 359.62 189.33C361.563 190.511 363.01 192.36 363.69 194.53C365.373 199.385 366.162 204.504 366.02 209.64C365.91 216.55 366.02 234.02 366.02 234.02C366.02 234.02 365.02 240.7 359.07 244.02C354.317 246.701 348.722 247.473 343.42 246.18C340.08 245.4 338.84 243.53 337.69 241.1C337.99 236.26 339.9 226.29 339.1 220.19C338.3 214.09 337 209.56 336.67 204.63C336.34 199.7 337.32 199.8 339.79 198.05C341.271 196.942 342.829 195.94 344.45 195.05" fill="#F4F4F4"/>
<path d="M352.03 251.16C350.841 250.378 349.606 249.67 348.33 249.04C347.133 248.667 346.045 248.008 345.16 247.12C344 245.99 342.1 241.69 340.75 237.51C339.392 232.786 338.851 227.866 339.15 222.96C339.73 217.09 341.84 208.87 342.38 205.49C342.92 202.11 341.82 200.77 340.25 199.49C338.41 198.03 335.86 198.68 334.5 203.41C332.762 209.965 331.756 216.693 331.5 223.47C331.447 228.503 332.224 233.51 333.8 238.29C335.203 242.388 337.101 246.3 339.45 249.94C340.1 251.03 340.31 252 341.3 254.23C342.257 256.471 343.743 258.448 345.63 259.99C347.28 261.18 348.07 261.34 348.46 261.11C348.85 260.88 348.84 260.3 348.15 259.67C346.956 258.759 345.939 257.637 345.15 256.36C345.15 256.36 346.59 257.81 347.54 258.61C348.382 259.315 349.314 259.907 350.31 260.37C351.31 260.79 352.62 259.97 351.94 259.32C351.26 258.67 350.55 258.32 349.16 257.15C348.41 256.523 347.739 255.808 347.16 255.02C348.129 255.767 349.156 256.435 350.23 257.02C351.072 257.534 352.043 257.797 353.03 257.78C353.55 257.78 354.17 257.04 353.21 256.35C351.891 255.666 350.659 254.827 349.54 253.85C348.48 252.79 347.88 251.85 348.18 251.85C348.48 251.85 349.06 252.5 350.3 252.85C351.54 253.2 352.87 252.85 353.03 252.2C353.19 251.55 353.14 251.65 351.98 251.07" fill="#FFCEA9"/>
<path d="M359.88 177.1C359.1 172.04 355.46 168.21 350.25 168.5C348.93 168.572 347.638 168.903 346.446 169.474C345.255 170.046 344.188 170.847 343.306 171.832C342.425 172.816 341.746 173.965 341.309 175.212C340.872 176.459 340.686 177.781 340.76 179.1C340.85 180.634 341.291 182.126 342.051 183.461C342.81 184.797 343.868 185.939 345.14 186.8C345.325 187.567 345.593 188.312 345.94 189.02C347.79 191.17 353.37 192.51 354.94 192.28C357 191.98 358.11 191.12 359.09 188.87C360.82 184.87 360.28 179.6 359.85 177.1" fill="#FFCEA9"/>
<path d="M345.18 186.8L345.66 182.39C345.66 182.39 342.05 173.06 350.57 174.85C356.19 176.04 357.57 176.55 359.31 172.78C361.05 169.01 354.99 165.61 347.82 166.55C345.362 166.812 343.091 167.982 341.451 169.832C339.812 171.683 338.924 174.078 338.96 176.55C339.15 179.33 339.89 184.94 345.18 186.75" fill="#2B2A30"/>
<path d="M330.6 212.13C330.6 212.13 335.25 216.75 340.75 215.42C341.53 214.89 343.42 204.08 343.42 204.08C343.42 204.08 343.42 198.08 338.83 198.25C334.24 198.42 330.6 212.13 330.6 212.13Z" fill="#EDEDED"/>
<path d="M365.7 203.16C365.7 203.16 368.13 203.04 369.13 201.63C368.95 199.21 365.85 190.02 359.62 189.33C361.314 190.52 362.658 192.143 363.51 194.03C364.477 197.012 365.209 200.064 365.7 203.16Z" fill="#EDEDED"/>
<path d="M62.76 3.97C63.99 1.97 73.36 0.7 76.45 8.64C77.62 11.64 77.45 19.36 78.45 24.2C79.45 29.04 81.73 31.78 82.56 35.71C83.39 39.64 82.04 46.21 72.56 47.38C63.08 48.55 55.82 45.22 53.56 42.2C51.3 39.18 51.28 32.78 53.56 29.33C55.84 25.88 57.65 23.09 57.56 18.6L62.76 3.97Z" fill="#2B2A30"/>
<path d="M68.95 2.64C68.95 2.64 61.89 0.64 57.61 4.43C56.1993 5.73113 55.1734 7.39494 54.6443 9.23965C54.1153 11.0844 54.1034 13.039 54.61 14.89C55.18 17.12 56.32 20.16 58.09 20.33C59.86 20.5 68.95 2.64 68.95 2.64Z" fill="#2B2A30"/>
<path d="M71.65 21.86C71.65 21.86 71.19 29.73 71.33 30.3C71.47 30.87 74.42 31.44 75.25 32.13C76.08 32.82 70.97 40.8 68.37 41.98C65.77 43.16 57.73 40.15 57.17 36.15C56.66 32.46 59.48 29.6 60.56 28.6C61.2991 28.5486 62.0409 28.5486 62.78 28.6L63.01 24.78C66.53 23.66 71.65 21.91 71.65 21.91" fill="#FFCEA9"/>
<path d="M48.5 63.86C46.2679 66.9254 43.6267 69.6709 40.65 72.02C39.7056 73.0045 38.8111 74.0358 37.97 75.11C36.5651 76.7304 34.7473 77.9399 32.71 78.61C30.93 79.07 30.18 78.95 29.88 78.61C29.58 78.27 29.72 77.76 30.5 77.46C31.7597 77.0891 32.9327 76.4703 33.95 75.64C33.95 75.64 32.29 76.4 31.25 76.77C30.3114 77.0951 29.3319 77.287 28.34 77.34C27.34 77.34 26.34 76.2 27.11 75.87C27.88 75.54 28.59 75.51 30.11 74.94C30.9187 74.6531 31.6854 74.2596 32.39 73.77C31.331 74.0849 30.2471 74.309 29.15 74.44C28.2354 74.5898 27.2972 74.4825 26.44 74.13C25.98 73.93 25.58 73.13 26.61 72.82C27.9471 72.6925 29.2617 72.3899 30.52 71.92C31.72 71.37 32.52 70.8 32.21 70.68C31.9 70.56 31.21 70.94 30.05 70.85C28.89 70.76 27.72 70 27.73 69.35C27.74 68.7 27.99 69.06 29.17 68.96C30.35 68.86 31.29 68.32 32.98 68.32C34.246 68.3702 35.5119 68.2183 36.73 67.87C38.01 67.49 40.89 64.04 43.1 60.87C45.5005 57.3433 47.3987 53.4998 48.74 49.45C50.07 45.09 51.65 36.93 52.74 34.1C53.83 31.27 55.81 29.97 57.66 29.91C59.83 29.84 60.76 32.7 60.18 35.17C59.18 39.5 54.34 56.17 48.46 63.89" fill="#FFCEA9"/>
<path d="M72.73 31.07C74.94 31.41 77.47 32.59 77.82 33.8C78.22 35.22 79.1 41.87 77.18 46.94C75.26 52.01 73.1 61.14 72 63.33C72 63.33 63.24 64.89 55.52 60.11C55.52 60.11 55.06 51.3 55.03 48.4C47.91 42.18 54.03 34.53 60.03 28.57C60.7521 28.5101 61.4779 28.5101 62.2 28.57C62.2 28.57 56.82 34.93 60.56 38.57C68.56 36.14 70.17 32.57 72.73 31.11" fill="#F4F4F4"/>
<path d="M56.95 12.1C57.74 7.1 61.39 3.23 66.61 3.53C68.7131 3.638 70.7285 4.4072 72.3687 5.72794C74.009 7.04868 75.1904 8.85355 75.7446 10.8852C76.2988 12.9169 76.1975 15.0717 75.455 17.0424C74.7126 19.013 73.367 20.699 71.61 21.86C71.4297 22.6251 71.1612 23.3668 70.81 24.07C68.95 26.22 64.05 27.58 62.43 27.6C61.03 27.6 59.82 26.31 58.51 24.14C55.78 19.61 56.51 14.6 56.91 12.14" fill="#FFCEA9"/>
<path d="M68.22 3.64C71.88 4.36 74.89 5.39 75.88 8.98C76.56 11.46 77.45 16.17 76.6 18.16L76.08 19.59L71.65 21.88C71.65 21.88 69.58 20.15 70.23 15.1C70.202 14.4171 69.9838 13.7556 69.6 13.19C69.3252 12.715 69.1198 12.2032 68.99 11.67C68.4679 10.3034 67.4403 9.18996 66.12 8.56C62.82 6.71 57.99 8.31 57.32 8.97C58.2499 6.96613 59.8405 5.34289 61.825 4.37246C63.8096 3.40203 66.0674 3.14342 68.22 3.64Z" fill="#2B2A30"/>
<path d="M48.08 124.64C46.23 126.15 43.35 125.11 43.21 125.25C41.33 127.13 38.52 128.78 36.43 130.42C35.28 131.33 33.48 132.55 33.81 134.29C34.39 137.41 39.38 136.45 41.27 135.5C43.16 134.55 44.69 132.96 46.47 131.85C47.74 131.06 48.99 130.66 49.19 129.05C49.31 128.05 48.41 124.61 48.08 124.64Z" fill="#2B2A30"/>
<path d="M49.17 128.42C48.92 129.96 47.69 130.42 46.43 131.17C44.61 132.29 43.02 133.92 41.14 134.87C39.26 135.82 35.05 136.64 33.88 134.4C34.54 137.4 39.45 136.46 41.32 135.52C43.19 134.58 44.74 132.98 46.52 131.87C47.79 131.08 49.04 130.68 49.24 129.07C49.2635 128.854 49.2635 128.636 49.24 128.42" fill="#BF4B4B"/>
<path d="M39.06 119.64C37.37 121.02 34.81 120.25 34.68 120.38C32.96 122.11 30.4 123.59 28.48 125.1C27.43 125.93 25.78 127.04 26.08 128.64C26.61 131.5 31.18 130.64 32.91 129.75C34.64 128.86 36.04 127.42 37.68 126.41C38.84 125.69 39.99 125.31 40.17 123.84C40.28 122.95 39.36 119.61 39.06 119.64Z" fill="#2B2A30"/>
<path d="M40.15 123.21C39.92 124.61 38.79 125 37.64 125.72C35.98 126.72 34.52 128.24 32.79 129.11C31.06 129.98 27.22 130.72 26.1 128.68C26.71 131.43 31.2 130.57 32.91 129.68C34.62 128.79 36.04 127.36 37.68 126.35C38.84 125.62 39.99 125.25 40.17 123.78C40.1936 123.584 40.1936 123.386 40.17 123.19" fill="#BF4B4B"/>
<path d="M64.7 65.27C59.681 65.9317 54.5768 65.1946 49.95 63.14C50.03 64.7 50.11 66.14 50.11 66.14C44.11 70.38 32.11 77.52 31.28 82.45C32.06 98.02 34.43 120.26 35.1 120.58C36.99 121.48 38.31 121.33 39.19 120.44C39.19 120.44 42.98 107.25 41.88 87.89C41.88 87.89 62.88 78.59 64.25 73.51C65.04 70.58 64.88 70.21 64.82 67.18C64.82 66.55 64.76 65.93 64.7 65.31" fill="#FFCEA9"/>
<path d="M71.67 63.25C67.51 65.19 63.67 65.43 58.99 64.95C59.05 67.03 59.29 70.95 59.29 70.95C53.29 75.19 41.29 82.33 40.45 87.26C41.24 102.83 42.69 125.38 43.38 125.66C44.1903 126.014 45.08 126.147 45.9583 126.045C46.8367 125.943 47.6723 125.61 48.38 125.08C48.38 125.08 52.17 112.08 51.07 92.7C51.07 92.34 69.07 83.48 71.35 81.13C73.8 78.62 74.08 75.31 74.02 71.99C73.96 68.87 73.02 66.3 71.69 63.25" fill="#FFCEA9"/>
<path d="M76.08 66.55C76.08 66.55 82.74 78.34 71.64 84.4C59.94 90.79 52.8 92.29 52.8 92.29L51.05 92.7C51.05 92.7 51.88 96.98 51.05 104.95C51.05 104.95 42.7 107.87 32.05 98.49L28.52 87.13L28.1 84.13C27.896 83.1007 27.9519 82.0367 28.2628 81.0345C28.5736 80.0322 29.1294 79.1233 29.88 78.39C32.43 76.08 40.53 70.15 45.57 66.75C50.61 63.35 54.63 60.11 54.63 60.11L55.51 59.29C55.51 59.29 61.51 64.04 72.4 62.45C73.8455 63.612 75.0977 64.9959 76.11 66.55" fill="#E26D6D"/>
<path d="M69.48 84.04C70.48 83.35 71.16 82.36 72.7 81.5C73.8945 80.9047 74.9879 80.1252 75.94 79.19C76.94 78.19 78.47 73.89 79.26 69.71C79.9845 65.0407 79.9033 60.2818 79.02 55.64C77.639 50.0945 75.7752 44.6805 73.45 39.46C71.97 36.33 72.8 34.46 74.15 33.04C75.74 31.41 77.4 31.45 79.28 35.82C81.16 40.19 84.17 48.45 85.13 54.82C85.8893 59.5755 85.825 64.4262 84.94 69.16C84.1506 73.2982 82.8681 77.327 81.12 81.16C80.63 82.29 80.55 83.24 79.88 85.5C79.2283 87.7479 78.0449 89.8059 76.43 91.5C74.99 92.84 74.26 93.1 73.86 92.92C73.46 92.74 73.39 92.19 73.98 91.5C74.9944 90.4801 75.8145 89.2839 76.4 87.97C76.4 87.97 75.19 89.54 74.4 90.42C73.6854 91.1948 72.8678 91.8677 71.97 92.42C71.09 92.95 69.7 92.33 70.28 91.62C70.86 90.91 71.49 90.52 72.67 89.2C73.2992 88.5074 73.843 87.742 74.29 86.92C73.453 87.7516 72.5501 88.5141 71.59 89.2C70.8463 89.7962 69.9477 90.1675 69 90.27C68.51 90.27 67.83 89.7 68.66 88.92C69.8323 88.149 70.9127 87.2464 71.88 86.23C72.76 85.09 73.23 84.17 72.94 84.18C72.65 84.19 72.18 84.9 71.04 85.43C69.9 85.96 68.58 85.78 68.35 85.15C68.12 84.52 68.47 84.74 69.51 84.04" fill="#FFCEA9"/>
<path d="M82.19 41.7C82.19 41.7 78.19 45.28 73.66 44.55L71.88 37.05C71.88 37.05 70.69 33.05 74.08 31.59C77.47 30.13 80.69 34.03 82.15 41.7" fill="#EDEDED"/>
<path d="M60.03 28.57C60.03 28.57 55.66 27.24 51.03 36.92L52.76 37.97C52.76 37.97 57.33 31.06 60.04 28.57" fill="#EDEDED"/>
<path d="M29.88 70.32L45.45 61.32C45.5853 61.2419 45.7388 61.2008 45.895 61.2008C46.0512 61.2008 46.2047 61.2419 46.34 61.32L73.64 77.08L57.64 86.33L29.88 70.32Z" fill="#F4F4F4"/>
<path d="M58.02 82.79L59.21 83.48C59.31 83.48 59.29 83.63 59.21 83.7L58.07 84.35C58.0126 84.379 57.9493 84.3941 57.885 84.3941C57.8207 84.3941 57.7573 84.379 57.7 84.35L56.48 83.64C56.38 83.58 56.39 83.49 56.48 83.42L57.62 82.77C57.6784 82.7385 57.7437 82.722 57.81 82.722C57.8763 82.722 57.9416 82.7385 58 82.77" fill="#3A2C6D"/>
<path d="M56.33 81.82L57.52 82.51C57.62 82.51 57.61 82.66 57.52 82.72L56.38 83.38C56.3203 83.4071 56.2556 83.4211 56.19 83.4211C56.1245 83.4211 56.0597 83.4071 56 83.38L54.81 82.69C54.71 82.63 54.73 82.53 54.81 82.47L55.94 81.81C55.9989 81.7801 56.064 81.7646 56.13 81.7646C56.196 81.7646 56.2611 81.7801 56.32 81.81" fill="#3A2C6D"/>
<path d="M54.63 80.83L55.82 81.52C55.91 81.58 55.9 81.67 55.82 81.74L54.68 82.4C54.6229 82.4298 54.5594 82.4454 54.495 82.4454C54.4306 82.4454 54.3671 82.4298 54.31 82.4L53.12 81.71C53.02 81.66 53.03 81.56 53.12 81.5L54.26 80.84C54.3191 80.8109 54.3841 80.7957 54.45 80.7957C54.5159 80.7957 54.5809 80.8109 54.64 80.84" fill="#3A2C6D"/>
<path d="M52.96 79.87L54.15 80.56C54.25 80.62 54.24 80.71 54.15 80.78L53.02 81.43C52.9616 81.4615 52.8964 81.478 52.83 81.478C52.7637 81.478 52.6984 81.4615 52.64 81.43L51.45 80.74C51.35 80.69 51.36 80.59 51.45 80.52L52.58 79.87C52.6391 79.8409 52.7041 79.8257 52.77 79.8257C52.8359 79.8257 52.9009 79.8409 52.96 79.87Z" fill="#3A2C6D"/>
<path d="M51.28 78.9L52.47 79.59C52.56 79.64 52.55 79.74 52.47 79.81L51.33 80.46C51.2709 80.4891 51.2059 80.5043 51.14 80.5043C51.0741 80.5043 51.0091 80.4891 50.95 80.46L49.76 79.77C49.67 79.71 49.68 79.62 49.76 79.55L50.9 78.9C50.9583 78.8685 51.0236 78.852 51.09 78.852C51.1563 78.852 51.2216 78.8685 51.28 78.9Z" fill="#3A2C6D"/>
<path d="M49.59 77.93L50.78 78.61C50.88 78.67 50.87 78.77 50.78 78.83L49.65 79.49C49.5911 79.5199 49.5261 79.5354 49.46 79.5354C49.394 79.5354 49.3289 79.5199 49.27 79.49L48.08 78.81C47.98 78.75 47.99 78.65 48.08 78.59L49.21 77.93C49.2689 77.9001 49.334 77.8846 49.4 77.8846C49.4661 77.8846 49.5311 77.9001 49.59 77.93Z" fill="#3A2C6D"/>
<path d="M47.88 76.95L49.07 77.64C49.16 77.7 49.15 77.79 49.07 77.86L47.93 78.52C47.8711 78.5499 47.806 78.5654 47.74 78.5654C47.674 78.5654 47.6089 78.5499 47.55 78.52L46.36 77.83C46.27 77.83 46.28 77.68 46.36 77.62L47.5 76.96C47.5591 76.9309 47.6241 76.9157 47.69 76.9157C47.7559 76.9157 47.8209 76.9309 47.88 76.96" fill="#3A2C6D"/>
<path d="M46.22 75.98L47.41 76.67C47.51 76.72 47.5 76.82 47.41 76.89L46.28 77.54C46.2209 77.5691 46.1559 77.5843 46.09 77.5843C46.0241 77.5843 45.9591 77.5691 45.9 77.54L44.71 76.85C44.61 76.79 44.62 76.7 44.71 76.63L45.84 75.98C45.8983 75.9485 45.9636 75.932 46.03 75.932C46.0963 75.932 46.1616 75.9485 46.22 75.98Z" fill="#3A2C6D"/>
<path d="M44.54 75.01L45.73 75.69C45.82 75.75 45.81 75.85 45.73 75.91L44.59 76.57C44.5303 76.5971 44.4655 76.6111 44.4 76.6111C44.3344 76.6111 44.2697 76.5971 44.21 76.57L43.02 75.88C42.93 75.82 42.94 75.72 43.02 75.66L44.16 75C44.2189 74.9701 44.284 74.9546 44.35 74.9546C44.416 74.9546 44.4811 74.9701 44.54 75" fill="#3A2C6D"/>
<path d="M42.88 74.03L44.07 74.72C44.17 74.78 44.16 74.88 44.07 74.94L42.88 75.64C42.8211 75.6699 42.756 75.6854 42.69 75.6854C42.624 75.6854 42.5589 75.6699 42.5 75.64L41.31 74.96C41.21 74.9 41.22 74.8 41.31 74.74L42.44 74.08C42.4997 74.0529 42.5645 74.0389 42.63 74.0389C42.6955 74.0389 42.7603 74.0529 42.82 74.08" fill="#3A2C6D"/>
<path d="M41.17 73.06L42.36 73.75C42.45 73.81 42.44 73.9 42.36 73.97L41.22 74.62C41.1616 74.6515 41.0963 74.668 41.03 74.668C40.9637 74.668 40.8984 74.6515 40.84 74.62L39.65 73.93C39.56 73.88 39.57 73.78 39.65 73.71L40.79 73.06C40.8491 73.0309 40.9141 73.0157 40.98 73.0157C41.0459 73.0157 41.1109 73.0309 41.17 73.06Z" fill="#3A2C6D"/>
<path d="M39.48 72.09L40.67 72.78C40.77 72.83 40.76 72.93 40.67 73L39.54 73.65C39.4809 73.6791 39.4159 73.6943 39.35 73.6943C39.2841 73.6943 39.2191 73.6791 39.16 73.65L37.97 72.96C37.87 72.9 37.88 72.81 37.97 72.74L39.1 72.09C39.1584 72.0585 39.2236 72.042 39.29 72.042C39.3563 72.042 39.4216 72.0585 39.48 72.09Z" fill="#3A2C6D"/>
<path d="M37.8 71.12L38.99 71.8C39.08 71.86 39.07 71.96 38.99 72.02L37.85 72.68C37.7911 72.7099 37.726 72.7254 37.66 72.7254C37.594 72.7254 37.5289 72.7099 37.47 72.68L36.28 72C36.19 71.94 36.2 71.84 36.28 71.78L37.42 71.12C37.4789 71.0901 37.544 71.0746 37.61 71.0746C37.676 71.0746 37.7411 71.0901 37.8 71.12Z" fill="#3A2C6D"/>
<path d="M35.3 69.64L37.3 70.79C37.4 70.85 37.39 70.95 37.3 71.01L36.17 71.67C36.1111 71.6999 36.046 71.7154 35.98 71.7154C35.914 71.7154 35.8489 71.6999 35.79 71.67L33.79 70.52C33.69 70.46 33.7 70.36 33.79 70.3L34.93 69.64C34.9889 69.6101 35.054 69.5946 35.12 69.5946C35.186 69.5946 35.2511 69.6101 35.31 69.64" fill="#3A2C6D"/>
<path d="M57.15 80.4L58.34 81.09C58.44 81.15 58.43 81.25 58.34 81.31L57.21 81.97C57.1511 81.9999 57.0861 82.0154 57.02 82.0154C56.954 82.0154 56.8889 81.9999 56.83 81.97L55.64 81.29C55.54 81.23 55.55 81.13 55.64 81.07L56.77 80.41C56.8297 80.3829 56.8945 80.3689 56.96 80.3689C57.0256 80.3689 57.0903 80.3829 57.15 80.41" fill="#3A2C6D"/>
<path d="M55.46 79.43L56.65 80.12C56.75 80.17 56.74 80.27 56.65 80.34L55.51 80.99C55.4509 81.0191 55.3859 81.0343 55.32 81.0343C55.2541 81.0343 55.1891 81.0191 55.13 80.99L53.88 80.32C53.78 80.26 53.8 80.17 53.88 80.1L55.01 79.45C55.0684 79.4185 55.1337 79.402 55.2 79.402C55.2664 79.402 55.3316 79.4185 55.39 79.45" fill="#3A2C6D"/>
<path d="M53.78 78.46L54.96 79.14C55.06 79.2 55.05 79.3 54.96 79.36L53.82 80.02C53.7611 80.0499 53.696 80.0654 53.63 80.0654C53.564 80.0654 53.4989 80.0499 53.44 80.02L52.25 79.34C52.16 79.28 52.17 79.18 52.25 79.12L53.39 78.46C53.4489 78.4301 53.514 78.4146 53.58 78.4146C53.646 78.4146 53.7111 78.4301 53.77 78.46" fill="#3A2C6D"/>
<path d="M52.09 77.48L53.28 78.17C53.37 78.22 53.36 78.32 53.28 78.39L52.14 79.04C52.0809 79.0691 52.0159 79.0843 51.95 79.0843C51.8841 79.0843 51.8191 79.0691 51.76 79.04L50.57 78.35C50.48 78.35 50.49 78.2 50.57 78.13L51.71 77.48C51.7691 77.4509 51.8341 77.4357 51.9 77.4357C51.9659 77.4357 52.0309 77.4509 52.09 77.48Z" fill="#3A2C6D"/>
<path d="M50.41 76.51L51.6 77.2C51.7 77.26 51.69 77.36 51.6 77.42L50.46 78.08C50.4011 78.1099 50.336 78.1254 50.27 78.1254C50.204 78.1254 50.1389 78.1099 50.08 78.08L48.88 77.4C48.78 77.4 48.8 77.25 48.88 77.19L50.01 76.53C50.0697 76.5029 50.1345 76.4889 50.2 76.4889C50.2656 76.4889 50.3303 76.5029 50.39 76.53" fill="#3A2C6D"/>
<path d="M48.72 75.54L49.91 76.23C50.01 76.23 50 76.38 49.91 76.45L48.77 77.1C48.7109 77.1291 48.6459 77.1443 48.58 77.1443C48.5141 77.1443 48.4491 77.1291 48.39 77.1L47.2 76.41C47.11 76.35 47.12 76.26 47.2 76.19L48.34 75.54C48.3965 75.5085 48.4602 75.4919 48.525 75.4919C48.5897 75.4919 48.6534 75.5085 48.71 75.54" fill="#3A2C6D"/>
<path d="M47.04 74.57L48.23 75.25C48.32 75.31 48.31 75.41 48.23 75.47L47.09 76.13C47.0311 76.1599 46.966 76.1754 46.9 76.1754C46.834 76.1754 46.7689 76.1599 46.71 76.13L45.52 75.45C45.43 75.39 45.44 75.29 45.52 75.23L46.66 74.57C46.7189 74.5401 46.784 74.5246 46.85 74.5246C46.916 74.5246 46.9811 74.5401 47.04 74.57Z" fill="#3A2C6D"/>
<path d="M45.35 73.64L46.54 74.33C46.64 74.38 46.62 74.48 46.54 74.55L45.41 75.2C45.3509 75.2291 45.2859 75.2442 45.22 75.2442C45.1541 75.2442 45.0891 75.2291 45.03 75.2L43.84 74.51C43.74 74.45 43.75 74.36 43.84 74.29L44.98 73.64C45.0383 73.6085 45.1036 73.592 45.17 73.592C45.2363 73.592 45.3016 73.6085 45.36 73.64" fill="#3A2C6D"/>
<path d="M43.66 72.64L44.85 73.32C44.95 73.38 44.94 73.48 44.85 73.54L43.72 74.2C43.6611 74.2299 43.596 74.2454 43.53 74.2454C43.464 74.2454 43.3989 74.2299 43.34 74.2L42.15 73.52C42.05 73.46 42.06 73.36 42.15 73.3L43.28 72.64C43.3389 72.6101 43.4039 72.5946 43.47 72.5946C43.536 72.5946 43.6011 72.6101 43.66 72.64Z" fill="#3A2C6D"/>
<path d="M41.97 71.64L43.16 72.33C43.26 72.39 43.25 72.48 43.16 72.55L42.02 73.2C41.9617 73.2315 41.8964 73.248 41.83 73.248C41.7637 73.248 41.6984 73.2315 41.64 73.2L40.45 72.51C40.35 72.51 40.37 72.36 40.45 72.29L41.58 71.64C41.6391 71.6109 41.7041 71.5957 41.77 71.5957C41.8359 71.5957 41.9009 71.6109 41.96 71.64" fill="#3A2C6D"/>
<path d="M40.28 70.64L41.47 71.32C41.57 71.38 41.56 71.48 41.47 71.54L40.33 72.2C40.2711 72.2299 40.206 72.2454 40.14 72.2454C40.0739 72.2454 40.0089 72.2299 39.95 72.2L38.76 71.52C38.67 71.46 38.68 71.36 38.76 71.3L39.88 70.64C39.9371 70.6102 40.0006 70.5947 40.065 70.5947C40.1294 70.5947 40.1929 70.6102 40.25 70.64" fill="#3A2C6D"/>
<path d="M38.6 69.69L39.79 70.38C39.88 70.44 39.87 70.53 39.79 70.6L38.65 71.25C38.5916 71.2815 38.5263 71.298 38.46 71.298C38.3936 71.298 38.3284 71.2815 38.27 71.25L37.08 70.56C36.99 70.51 37 70.41 37.08 70.34L38.22 69.69C38.2791 69.6609 38.3441 69.6458 38.41 69.6458C38.4759 69.6458 38.5409 69.6609 38.6 69.69Z" fill="#3A2C6D"/>
<path d="M58.88 81.38L60.88 82.54C60.98 82.54 60.97 82.69 60.88 82.75L59.75 83.41C59.6903 83.4371 59.6255 83.4511 59.56 83.4511C59.4945 83.4511 59.4297 83.4371 59.37 83.41L57.37 82.25C57.27 82.19 57.28 82.1 57.37 82.03L58.51 81.38C58.5684 81.3485 58.6337 81.332 58.7 81.332C58.7663 81.332 58.8316 81.3485 58.89 81.38" fill="#3A2C6D"/>
<path d="M35.38 69.64L36.57 70.33C36.6235 70.3598 36.6838 70.3754 36.745 70.3754C36.8063 70.3754 36.8665 70.3598 36.92 70.33L38.12 69.64C38.22 69.58 38.22 69.49 38.12 69.43H38.02C38 69.4234 37.9826 69.4107 37.9702 69.3936C37.9579 69.3766 37.9512 69.3561 37.9512 69.335C37.9512 69.3139 37.9579 69.2934 37.9702 69.2764C37.9826 69.2593 38 69.2466 38.02 69.24L39.29 68.51C39.39 68.45 39.39 68.36 39.29 68.3L38.54 67.86C38.484 67.8326 38.4224 67.8184 38.36 67.8184C38.2976 67.8184 38.2361 67.8326 38.18 67.86L37 68.54L36.75 68.68L36.57 68.79L36.4 68.89L35.4 69.48C35.3 69.54 35.3 69.63 35.4 69.68" fill="#3A2C6D"/>
<path d="M64.54 79.02L65.73 79.7C65.83 79.76 65.82 79.86 65.73 79.92L64.59 80.58C64.5311 80.6099 64.466 80.6254 64.4 80.6254C64.334 80.6254 64.2689 80.6099 64.21 80.58L63.02 79.9C62.92 79.84 62.94 79.74 63.02 79.68L64.15 79.02C64.2089 78.9901 64.274 78.9746 64.34 78.9746C64.406 78.9746 64.4711 78.9901 64.53 79.02" fill="#3A2C6D"/>
<path d="M62.88 78.05L64.07 78.73C64.17 78.79 64.16 78.89 64.07 78.95L62.88 79.64C62.8211 79.6699 62.756 79.6854 62.69 79.6854C62.624 79.6854 62.5589 79.6699 62.5 79.64L61.31 78.96C61.21 78.9 61.23 78.8 61.31 78.74L62.44 78.08C62.4989 78.0501 62.564 78.0346 62.63 78.0346C62.696 78.0346 62.7611 78.0501 62.82 78.08" fill="#3A2C6D"/>
<path d="M61.18 77.08L62.37 77.76C62.47 77.82 62.46 77.92 62.37 77.98L61.23 78.64C61.1711 78.6699 61.106 78.6854 61.04 78.6854C60.974 78.6854 60.9089 78.6699 60.85 78.64L59.66 77.96C59.56 77.9 59.58 77.8 59.66 77.74L60.79 77.08C60.8489 77.0501 60.914 77.0346 60.98 77.0346C61.046 77.0346 61.1111 77.0501 61.17 77.08" fill="#3A2C6D"/>
<path d="M46.88 68.81L48.07 69.5C48.17 69.56 48.16 69.65 48.07 69.72L46.93 70.38C46.8711 70.4099 46.806 70.4254 46.74 70.4254C46.674 70.4254 46.6089 70.4099 46.55 70.38L45.36 69.69C45.26 69.64 45.28 69.54 45.36 69.47L46.49 68.82C46.5491 68.7909 46.6141 68.7757 46.68 68.7757C46.7459 68.7757 46.8109 68.7909 46.87 68.82" fill="#3A2C6D"/>
<path d="M45.19 67.84L46.38 68.53C46.48 68.59 46.47 68.68 46.38 68.75L45.24 69.41C45.1811 69.4399 45.116 69.4554 45.05 69.4554C44.984 69.4554 44.9189 69.4399 44.86 69.41L43.67 68.72C43.57 68.67 43.59 68.57 43.67 68.51L44.8 67.85C44.8591 67.8209 44.9241 67.8057 44.99 67.8057C45.0559 67.8057 45.1209 67.8209 45.18 67.85" fill="#3A2C6D"/>
<path d="M43.51 66.87L44.7 67.56C44.8 67.62 44.79 67.71 44.7 67.78L43.56 68.44C43.5011 68.4699 43.436 68.4854 43.37 68.4854C43.304 68.4854 43.2389 68.4699 43.18 68.44L41.99 67.75C41.89 67.7 41.91 67.6 41.99 67.53L43.12 66.88C43.1791 66.8509 43.2441 66.8357 43.31 66.8357C43.3759 66.8357 43.4409 66.8509 43.5 66.88" fill="#3A2C6D"/>
<path d="M41.88 65.9L43.07 66.59C43.17 66.65 43.16 66.74 43.07 66.81L41.93 67.47C41.8711 67.4999 41.806 67.5154 41.74 67.5154C41.674 67.5154 41.6089 67.4999 41.55 67.47L40.36 66.78C40.26 66.73 40.28 66.63 40.36 66.56L41.49 65.91C41.5491 65.8809 41.6141 65.8657 41.68 65.8657C41.7459 65.8657 41.8109 65.8809 41.87 65.91" fill="#3A2C6D"/>
<path d="M59.07 75.85L60.69 76.79C60.79 76.85 60.78 76.95 60.69 77.01L59.55 77.67C59.4911 77.6999 59.426 77.7154 59.36 77.7154C59.294 77.7154 59.2289 77.6999 59.17 77.67L57.55 76.73C57.45 76.73 57.46 76.58 57.55 76.52L58.69 75.86C58.7497 75.8329 58.8145 75.8189 58.88 75.8189C58.9455 75.8189 59.0103 75.8329 59.07 75.86" fill="#3A2C6D"/>
<path d="M48.55 69.78L50.18 70.72C50.27 70.78 50.26 70.87 50.18 70.94L49.04 71.6C48.9811 71.6299 48.9161 71.6454 48.85 71.6454C48.784 71.6454 48.7189 71.6299 48.66 71.6L47.01 70.64C46.91 70.59 46.93 70.49 47.01 70.42L48.14 69.77C48.1991 69.7409 48.2641 69.7257 48.33 69.7257C48.3959 69.7257 48.4609 69.7409 48.52 69.77" fill="#3A2C6D"/>
<path d="M50.67 71L58.58 75.57C58.68 75.63 58.67 75.73 58.58 75.79L57.45 76.45C57.3911 76.4799 57.326 76.4954 57.26 76.4954C57.194 76.4954 57.1289 76.4799 57.07 76.45L49.16 71.88C49.06 71.83 49.07 71.73 49.16 71.66L50.3 71.01C50.3591 70.9809 50.4241 70.9657 50.49 70.9657C50.5559 70.9657 50.6209 70.9809 50.68 71.01" fill="#3A2C6D"/>
<path d="M58.33 79.2L59.52 79.88C59.61 79.94 59.6 80.04 59.52 80.1L58.38 80.76C58.3203 80.7871 58.2556 80.8011 58.19 80.8011C58.1245 80.8011 58.0597 80.7871 58 80.76L56.81 80.07C56.72 80.01 56.73 79.91 56.81 79.85L57.95 79.19C58.0089 79.1601 58.074 79.1446 58.14 79.1446C58.206 79.1446 58.2711 79.1601 58.33 79.19" fill="#3A2C6D"/>
<path d="M56.64 78.23L57.83 78.91C57.93 78.97 57.92 79.07 57.83 79.13L56.69 79.79C56.6311 79.8199 56.566 79.8354 56.5 79.8354C56.434 79.8354 56.3689 79.8199 56.31 79.79L55.12 79.11C55.02 79.05 55.04 78.95 55.12 78.89L56.25 78.23C56.3089 78.2001 56.374 78.1846 56.44 78.1846C56.506 78.1846 56.5711 78.2001 56.63 78.23" fill="#3A2C6D"/>
<path d="M54.96 77.25L56.15 77.94C56.25 78 56.23 78.09 56.15 78.16L55.02 78.82C54.9611 78.8499 54.896 78.8654 54.83 78.8654C54.764 78.8654 54.6989 78.8499 54.64 78.82L53.45 78.13C53.35 78.08 53.36 77.98 53.45 77.91L54.59 77.26C54.6491 77.2309 54.7141 77.2157 54.78 77.2157C54.8459 77.2157 54.9109 77.2309 54.97 77.26" fill="#3A2C6D"/>
<path d="M53.28 76.28L54.47 76.97C54.56 77.03 54.55 77.12 54.47 77.19L53.33 77.84C53.2716 77.8715 53.2063 77.888 53.14 77.888C53.0736 77.888 53.0083 77.8715 52.95 77.84L51.76 77.15C51.67 77.1 51.68 77 51.76 76.93L52.9 76.28C52.9591 76.2509 53.0241 76.2357 53.09 76.2357C53.1559 76.2357 53.2209 76.2509 53.28 76.28Z" fill="#3A2C6D"/>
<path d="M51.59 75.31L52.78 76C52.88 76 52.87 76.15 52.78 76.22L51.64 76.87C51.5809 76.8991 51.5159 76.9143 51.45 76.9143C51.3841 76.9143 51.3191 76.8991 51.26 76.87L50.07 76.18C49.97 76.12 49.99 76.03 50.07 75.96L51.2 75.31C51.2584 75.2785 51.3237 75.262 51.39 75.262C51.4564 75.262 51.5217 75.2785 51.58 75.31" fill="#3A2C6D"/>
<path d="M49.88 74.34L51.07 75.03C51.17 75.08 51.15 75.18 51.07 75.24L49.94 75.9C49.8803 75.9271 49.8155 75.9411 49.75 75.9411C49.6845 75.9411 49.6197 75.9271 49.56 75.9L48.37 75.21C48.27 75.15 48.28 75.05 48.37 74.99L49.51 74.33C49.5689 74.3001 49.634 74.2846 49.7 74.2846C49.766 74.2846 49.8311 74.3001 49.89 74.33" fill="#3A2C6D"/>
<path d="M48.23 73.37L49.42 74.05C49.51 74.11 49.5 74.21 49.42 74.27L48.28 74.93C48.2211 74.9599 48.156 74.9754 48.09 74.9754C48.024 74.9754 47.9589 74.9599 47.9 74.93L46.71 74.25C46.62 74.19 46.63 74.09 46.71 74.03L47.85 73.37C47.9089 73.3401 47.974 73.3246 48.04 73.3246C48.106 73.3246 48.1711 73.3401 48.23 73.37Z" fill="#3A2C6D"/>
<path d="M46.54 72.39L47.73 73.08C47.83 73.14 47.82 73.24 47.73 73.3L46.59 73.96C46.5311 73.9899 46.466 74.0054 46.4 74.0054C46.334 74.0054 46.2689 73.9899 46.21 73.96L45.02 73.27C44.92 73.27 44.94 73.12 45.02 73.06L46.15 72.4C46.2097 72.3729 46.2744 72.3589 46.34 72.3589C46.4055 72.3589 46.4703 72.3729 46.53 72.4" fill="#3A2C6D"/>
<path d="M44.88 71.42L46.07 72.11C46.17 72.17 46.16 72.26 46.07 72.33L44.94 72.98C44.8816 73.0115 44.8163 73.028 44.75 73.028C44.6837 73.028 44.6184 73.0115 44.56 72.98L43.37 72.29C43.27 72.29 43.28 72.14 43.37 72.07L44.5 71.42C44.5591 71.3909 44.6241 71.3757 44.69 71.3757C44.7559 71.3757 44.8209 71.3909 44.88 71.42Z" fill="#3A2C6D"/>
<path d="M43.18 70.45L44.37 71.14C44.46 71.19 44.45 71.29 44.37 71.36L43.23 72.01C43.1716 72.0415 43.1063 72.058 43.04 72.058C42.9737 72.058 42.9084 72.0415 42.85 72.01L41.66 71.32C41.57 71.32 41.58 71.17 41.66 71.1L42.8 70.45C42.8591 70.4209 42.9241 70.4057 42.99 70.4057C43.0559 70.4057 43.1209 70.4209 43.18 70.45Z" fill="#3A2C6D"/>
<path d="M41.49 69.48L42.68 70.17C42.78 70.22 42.77 70.32 42.68 70.39L41.54 71.04C41.4809 71.0691 41.4159 71.0843 41.35 71.0843C41.2841 71.0843 41.2191 71.0691 41.16 71.04L39.97 70.35C39.87 70.29 39.89 70.2 39.97 70.13L41.1 69.48C41.1584 69.4485 41.2237 69.432 41.29 69.432C41.3563 69.432 41.4216 69.4485 41.48 69.48" fill="#3A2C6D"/>
<path d="M39.81 68.51L41 69.19C41.1 69.25 41.09 69.35 41 69.41L39.87 70.07C39.8111 70.0999 39.746 70.1154 39.68 70.1154C39.614 70.1154 39.5489 70.0999 39.49 70.07L38.3 69.39C38.2 69.33 38.21 69.23 38.3 69.17L39.43 68.51C39.4889 68.4801 39.554 68.4646 39.62 68.4646C39.686 68.4646 39.7511 68.4801 39.81 68.51Z" fill="#3A2C6D"/>
<path d="M60.01 80.17L62.47 81.64C62.57 81.7 62.56 81.79 62.47 81.86L61.34 82.51C61.2816 82.5415 61.2163 82.558 61.15 82.558C61.0837 82.558 61.0184 82.5415 60.96 82.51L58.5 81.09C58.4 81.03 58.41 80.93 58.5 80.87L59.64 80.21C59.6989 80.1801 59.764 80.1646 59.83 80.1646C59.896 80.1646 59.9611 80.1801 60.02 80.21" fill="#3A2C6D"/>
<path d="M60.79 78.74L61.98 79.42C62.08 79.48 62.07 79.58 61.98 79.64L60.84 80.3C60.7811 80.3299 60.716 80.3454 60.65 80.3454C60.584 80.3454 60.5189 80.3299 60.46 80.3L59.25 79.64C59.16 79.58 59.17 79.48 59.25 79.42L60.39 78.76C60.4471 78.7302 60.5106 78.7146 60.575 78.7146C60.6394 78.7146 60.7029 78.7302 60.76 78.76" fill="#3A2C6D"/>
<path d="M59.11 77.77L60.3 78.45C60.4 78.51 60.39 78.61 60.3 78.67L59.17 79.33C59.1111 79.3599 59.046 79.3754 58.98 79.3754C58.914 79.3754 58.8489 79.3599 58.79 79.33L57.57 78.64C57.47 78.58 57.48 78.48 57.57 78.42L58.7 77.76C58.7589 77.7301 58.824 77.7146 58.89 77.7146C58.956 77.7146 59.0211 77.7301 59.08 77.76" fill="#3A2C6D"/>
<path d="M57.43 76.79L58.62 77.48C58.72 77.54 58.7 77.63 58.62 77.7L57.49 78.36C57.4311 78.3899 57.366 78.4054 57.3 78.4054C57.234 78.4054 57.1689 78.3899 57.11 78.36L55.88 77.64C55.78 77.64 55.79 77.49 55.88 77.42L57.02 76.77C57.0791 76.7409 57.1441 76.7257 57.21 76.7257C57.2759 76.7257 57.3409 76.7409 57.4 76.77" fill="#3A2C6D"/>
<path d="M55.75 75.82L56.94 76.51C57.03 76.51 57.02 76.66 56.94 76.73L55.8 77.38C55.7416 77.4115 55.6763 77.428 55.61 77.428C55.5437 77.428 55.4784 77.4115 55.42 77.38L54.23 76.69C54.14 76.69 54.15 76.54 54.23 76.47L55.37 75.82C55.4291 75.7909 55.4941 75.7757 55.56 75.7757C55.6259 75.7757 55.6909 75.7909 55.75 75.82Z" fill="#3A2C6D"/>
<path d="M54.06 74.85L55.25 75.54C55.35 75.54 55.34 75.69 55.25 75.76L54.11 76.41C54.0509 76.4391 53.9859 76.4543 53.92 76.4543C53.8541 76.4543 53.7891 76.4391 53.73 76.41L52.54 75.72C52.44 75.66 52.46 75.57 52.54 75.5L53.67 74.85C53.7284 74.8185 53.7937 74.802 53.86 74.802C53.9263 74.802 53.9916 74.8185 54.05 74.85" fill="#3A2C6D"/>
<path d="M52.38 73.88L53.57 74.57C53.67 74.57 53.65 74.72 53.57 74.78L52.44 75.44C52.3803 75.4671 52.3156 75.4811 52.25 75.4811C52.1845 75.4811 52.1197 75.4671 52.06 75.44L50.88 74.77C50.78 74.71 50.79 74.61 50.88 74.55L52.02 73.89C52.0789 73.8601 52.144 73.8446 52.21 73.8446C52.276 73.8446 52.3411 73.8601 52.4 73.89" fill="#3A2C6D"/>
<path d="M50.7 72.91L51.88 73.64C51.97 73.7 51.96 73.8 51.88 73.86L50.74 74.52C50.6811 74.5499 50.616 74.5654 50.55 74.5654C50.484 74.5654 50.4189 74.5499 50.36 74.52L49.17 73.84C49.08 73.78 49.09 73.68 49.17 73.62L50.31 72.96C50.3689 72.9301 50.434 72.9146 50.5 72.9146C50.566 72.9146 50.6311 72.9301 50.69 72.96" fill="#3A2C6D"/>
<path d="M49.01 71.94L50.2 72.62C50.3 72.68 50.29 72.78 50.2 72.84L49.06 73.5C49.0011 73.5299 48.936 73.5454 48.87 73.5454C48.804 73.5454 48.7389 73.5299 48.68 73.5L47.49 72.82C47.4 72.76 47.41 72.66 47.49 72.6L48.63 71.94C48.6871 71.9102 48.7506 71.8947 48.815 71.8947C48.8794 71.8947 48.9429 71.9102 49 71.94" fill="#3A2C6D"/>
<path d="M47.33 70.96L48.52 71.65C48.62 71.71 48.61 71.8 48.52 71.87L47.39 72.53C47.3311 72.5599 47.266 72.5754 47.2 72.5754C47.134 72.5754 47.0689 72.5599 47.01 72.53L45.82 71.84C45.72 71.79 45.73 71.69 45.82 71.62L46.95 70.97C47.0091 70.9409 47.0741 70.9258 47.14 70.9258C47.2059 70.9258 47.2709 70.9409 47.33 70.97" fill="#3A2C6D"/>
<path d="M45.65 69.99L46.88 70.64C46.98 70.7 46.96 70.79 46.88 70.86L45.75 71.51C45.6916 71.5415 45.6263 71.558 45.56 71.558C45.4937 71.558 45.4284 71.5415 45.37 71.51L44.18 70.82C44.08 70.77 44.09 70.67 44.18 70.6L45.32 69.95C45.3791 69.9209 45.4441 69.9057 45.51 69.9057C45.5759 69.9057 45.6409 69.9209 45.7 69.95" fill="#3A2C6D"/>
<path d="M43.97 69.02L45.16 69.71C45.25 69.76 45.24 69.86 45.16 69.93L44.02 70.58C43.9609 70.6091 43.8959 70.6243 43.83 70.6243C43.7641 70.6243 43.6991 70.6091 43.64 70.58L42.45 69.89C42.36 69.83 42.37 69.74 42.45 69.67L43.59 69.02C43.6483 68.9885 43.7136 68.972 43.78 68.972C43.8463 68.972 43.9116 68.9885 43.97 69.02Z" fill="#3A2C6D"/>
<path d="M40.2 66.85L43.47 68.74C43.57 68.79 43.56 68.89 43.47 68.96L42.33 69.61C42.2709 69.6391 42.2059 69.6543 42.14 69.6543C42.0741 69.6543 42.0091 69.6391 41.95 69.61L38.68 67.72C38.58 67.66 38.59 67.56 38.68 67.5L39.82 66.84C39.8789 66.8101 39.944 66.7946 40.01 66.7946C40.076 66.7946 40.1411 66.8101 40.2 66.84" fill="#3A2C6D"/>
<path d="M62.48 79.71L64.1 80.65C64.2 80.7 64.19 80.8 64.1 80.86L62.97 81.52C62.9103 81.5471 62.8455 81.5611 62.78 81.5611C62.7145 81.5611 62.6497 81.5471 62.59 81.52L60.94 80.64C60.84 80.58 60.85 80.48 60.94 80.42L62.08 79.76C62.1389 79.7301 62.204 79.7146 62.27 79.7146C62.336 79.7146 62.4011 79.7301 62.46 79.76" fill="#3A2C6D"/>
<path d="M33.61 70.64L57.51 84.44C57.61 84.5 57.6 84.59 57.51 84.66L56.94 84.99C56.8829 85.0198 56.8194 85.0354 56.755 85.0354C56.6906 85.0354 56.6271 85.0198 56.57 84.99L32.66 71.19C32.57 71.19 32.58 71.04 32.66 70.97L33.23 70.65C33.2891 70.6209 33.3541 70.6057 33.42 70.6057C33.4859 70.6057 33.5509 70.6209 33.61 70.65" fill="#3A2C6D"/>
<path d="M61.88 71.55L61.73 71.64L57.61 74.02L50.29 69.79L50.14 69.71L54.41 67.24L61.88 71.55Z" fill="#BFBFBF"/>
<path d="M61.72 71.64L57.61 74.02L50.29 69.79L54.41 67.42L61.72 71.64Z" fill="#E5E5E5"/>
<path d="M73.62 77.1V77.47C73.6202 77.7335 73.5509 77.9923 73.4193 78.2206C73.2876 78.4488 73.0982 78.6383 72.87 78.77L58.37 87.14C58.1398 87.2706 57.8797 87.3393 57.615 87.3393C57.3503 87.3393 57.0902 87.2706 56.86 87.14L30.62 71.99C30.3912 71.8591 30.2011 71.6697 30.0694 71.4413C29.9376 71.2129 29.8688 70.9537 29.87 70.69V70.32L57.61 86.32L73.62 77.1Z" fill="#E5E5E5"/>
<path d="M57.61 86.35V87.35C57.3481 87.3498 57.0904 87.2845 56.86 87.16L30.62 71.99C30.39 71.8595 30.1985 71.6706 30.065 71.4423C29.9316 71.214 29.8608 70.9545 29.86 70.69V70.32L57.61 86.35Z" fill="#E5E5E5"/>
<path d="M57.19 86.57C56.942 86.6647 56.6761 86.703 56.4115 86.6823C56.1469 86.6615 55.8902 86.5822 55.66 86.45L29.53 71.36C29.3036 71.229 29.1085 71.0501 28.9582 70.836C28.808 70.6218 28.7062 70.3775 28.66 70.12L25.8 53.06C25.7904 52.9636 25.7904 52.8664 25.8 52.77C25.7988 52.2946 25.9858 51.8381 26.32 51.5L53.48 67.18C53.6463 67.2786 53.7896 67.4117 53.9 67.5704C54.0104 67.7292 54.0854 67.9098 54.12 68.1L57.19 86.57Z" fill="#F4F4F4"/>
<path d="M57.61 86.35L57.43 86.45L57.19 86.57L54.1 68.1C54.0654 67.9098 53.9904 67.7292 53.88 67.5704C53.7695 67.4117 53.6263 67.2786 53.46 67.18L26.3 51.5C26.4087 51.3959 26.5296 51.3053 26.66 51.23L53.88 66.94C54.0481 67.0365 54.1927 67.169 54.3033 67.3281C54.414 67.4872 54.488 67.6689 54.52 67.86L57.61 86.35Z" fill="#E5E5E5"/>
</g>
<defs>
<clipPath id="clip0">
<rect width="498.88" height="314.38" fill="white"/>
</clipPath>
</defs>
</svg>
