<svg width="100" height="100" viewBox="0 0 100 100" fill="none" xmlns="http://www.w3.org/2000/svg">
<rect width="100" height="100" rx="10" fill="white"/>
<circle cx="50" cy="50" r="44.1443" fill="url(#paint0_linear)"/>
<path d="M43.1445 77H28.0244V22.1562H43.1445V48.2832C47.8164 44.7031 52.1709 40.7295 56.208 36.3623C60.2705 31.9951 63.7617 27.2471 66.6816 22.1182H77.0029C74.3115 26.7139 71.2266 31.0049 67.748 34.9912C64.2695 38.9775 60.4863 42.6719 56.3984 46.0742L78.2979 77H62.5303L46.0391 53.6914C45.5566 54.0215 45.0742 54.3389 44.5918 54.6436C44.1348 54.9482 43.6523 55.2529 43.1445 55.5576V77Z" fill="url(#paint1_linear)"/>
<defs>
<linearGradient id="paint0_linear" x1="5.85571" y1="4.10408" x2="91.9816" y2="88.9675" gradientUnits="userSpaceOnUse">
<stop stop-color="#FEFEFE"/>
<stop offset="1" stop-color="#FFD177"/>
</linearGradient>
<linearGradient id="paint1_linear" x1="50" y1="-12.3173" x2="50" y2="78.3274" gradientUnits="userSpaceOnUse">
<stop stop-color="#85550C" stop-opacity="0"/>
<stop offset="1" stop-color="#85550C"/>
</linearGradient>
</defs>
</svg>
