<svg width="126" height="67" viewBox="0 0 126 67" fill="none" xmlns="http://www.w3.org/2000/svg">
<path d="M15.4582 31.7202L25.8403 20.4752H31.2128L19.155 33.2353L31.2819 48.6607H25.8921L16.2874 36.1196L15.4582 36.9958V48.6607H11.4332V20.4752H15.4582V31.7202Z" fill="url(#paint0_linear)"/>
<path d="M39.0976 30.8804V48.6607H35.2108V30.8804H39.0976ZM34.6235 23.4872C34.6235 22.7692 34.8711 22.1485 35.3663 21.6252C35.8615 21.1019 36.4546 20.8403 37.1456 20.8403C37.8481 20.8403 38.447 21.1019 38.9422 21.6252C39.4374 22.1364 39.685 22.7631 39.685 23.5055C39.685 24.2478 39.4374 24.8807 38.9422 25.404C38.4585 25.9273 37.8654 26.1889 37.1629 26.1889C36.4604 26.1889 35.8615 25.9273 35.3663 25.404C34.8711 24.8807 34.6235 24.2417 34.6235 23.4872Z" fill="url(#paint1_linear)"/>
<path d="M45.0823 30.8804H48.9691V32.4686C49.6831 31.6776 50.3165 31.136 50.8693 30.8439C51.4336 30.5397 52.1016 30.3875 52.8732 30.3875C53.8982 30.3875 54.9692 30.7405 56.0863 31.4463L54.307 35.2068C53.57 34.647 52.8502 34.3671 52.1477 34.3671C50.0286 34.3671 48.9691 36.0587 48.9691 39.442V48.6607H45.0823V30.8804Z" fill="url(#paint2_linear)"/>
<path d="M71.5375 30.8804H75.4416V48.6607H71.5375V46.7987C69.9367 48.3807 68.215 49.1718 66.3724 49.1718C64.046 49.1718 62.1228 48.2834 60.6026 46.5066C59.094 44.6933 58.3396 42.4297 58.3396 39.7158C58.3396 37.0506 59.094 34.8296 60.6026 33.0528C62.1113 31.2759 64 30.3875 66.2687 30.3875C68.2265 30.3875 69.9828 31.2394 71.5375 32.9432V30.8804ZM62.3128 39.7158C62.3128 41.4196 62.7447 42.8069 63.6084 43.8779C64.4952 44.961 65.6123 45.5026 66.9597 45.5026C68.3993 45.5026 69.5624 44.9793 70.4492 43.9326C71.336 42.8495 71.7794 41.4743 71.7794 39.8071C71.7794 38.1398 71.336 36.7646 70.4492 35.6815C69.5624 34.6227 68.4108 34.0933 66.9943 34.0933C65.6583 34.0933 64.5412 34.6288 63.643 35.6997C62.7562 36.7828 62.3128 38.1215 62.3128 39.7158Z" fill="url(#paint3_linear)"/>
<path d="M85.2958 17.8282V36.6307L90.7719 30.8804H95.9889L88.6816 38.3467L96.5244 48.6607H91.4802L85.9177 41.1579L85.2958 41.8151V48.6607H81.409V17.8282H85.2958Z" fill="url(#paint4_linear)"/>
<path d="M104.081 30.8804V41.0849C104.081 44.03 105.181 45.5026 107.381 45.5026C109.58 45.5026 110.68 44.03 110.68 41.0849V30.8804H114.567V41.1762C114.567 42.6 114.4 43.8292 114.066 44.8636C113.743 45.7886 113.185 46.6222 112.39 47.3646C111.077 48.5694 109.407 49.1718 107.381 49.1718C105.365 49.1718 103.701 48.5694 102.388 47.3646C101.582 46.6222 101.012 45.7886 100.678 44.8636C100.355 44.0361 100.194 42.8069 100.194 41.1762V30.8804H104.081Z" fill="url(#paint5_linear)"/>
<defs>
<linearGradient id="paint0_linear" x1="62.6286" y1="55.1099" x2="62.6286" y2="11.2186" gradientUnits="userSpaceOnUse">
<stop stop-color="#66310B"/>
<stop offset="1" stop-color="#B0713D" stop-opacity="0.48"/>
</linearGradient>
<linearGradient id="paint1_linear" x1="62.6286" y1="55.1099" x2="62.6286" y2="11.2186" gradientUnits="userSpaceOnUse">
<stop stop-color="#66310B"/>
<stop offset="1" stop-color="#B0713D" stop-opacity="0.48"/>
</linearGradient>
<linearGradient id="paint2_linear" x1="62.6286" y1="55.1099" x2="62.6286" y2="11.2186" gradientUnits="userSpaceOnUse">
<stop stop-color="#66310B"/>
<stop offset="1" stop-color="#B0713D" stop-opacity="0.48"/>
</linearGradient>
<linearGradient id="paint3_linear" x1="62.6286" y1="55.1099" x2="62.6286" y2="11.2186" gradientUnits="userSpaceOnUse">
<stop stop-color="#66310B"/>
<stop offset="1" stop-color="#B0713D" stop-opacity="0.48"/>
</linearGradient>
<linearGradient id="paint4_linear" x1="62.6286" y1="55.1099" x2="62.6286" y2="11.2186" gradientUnits="userSpaceOnUse">
<stop stop-color="#66310B"/>
<stop offset="1" stop-color="#B0713D" stop-opacity="0.48"/>
</linearGradient>
<linearGradient id="paint5_linear" x1="62.6286" y1="55.1099" x2="62.6286" y2="11.2186" gradientUnits="userSpaceOnUse">
<stop stop-color="#66310B"/>
<stop offset="1" stop-color="#B0713D" stop-opacity="0.48"/>
</linearGradient>
</defs>
</svg>
