<svg width="212" height="100" viewBox="0 0 212 100" fill="none" xmlns="http://www.w3.org/2000/svg">
<g clip-path="url(#clip0)">
<path d="M193.302 56.9869C196.739 96.8553 115.009 85.1783 93.9474 85.1783C68.1805 85.1783 18.5923 89.9823 18.5923 48.2352C18.5923 27.1733 91.5302 13.2284 112.592 13.2284C143.709 13.2284 190.704 26.8426 193.302 56.9869Z" fill="#FFF2C4"/>
<path d="M48.5175 48.7754L61.7231 35.2402H68.5565L53.2196 50.5991L68.6444 69.166H61.789L49.5722 54.0708L48.5175 55.1255V69.166H43.3979V35.2402H48.5175V48.7754Z" fill="url(#paint0_linear)"/>
<path d="M78.5857 47.7646V69.166H73.6419V47.7646H78.5857ZM72.8948 38.8657C72.8948 38.0015 73.2098 37.2544 73.8397 36.6245C74.4695 35.9946 75.2239 35.6797 76.1028 35.6797C76.9964 35.6797 77.7581 35.9946 78.388 36.6245C79.0179 37.2397 79.3328 37.9941 79.3328 38.8877C79.3328 39.7812 79.0179 40.543 78.388 41.1729C77.7728 41.8027 77.0184 42.1177 76.1248 42.1177C75.2313 42.1177 74.4695 41.8027 73.8397 41.1729C73.2098 40.543 72.8948 39.7739 72.8948 38.8657Z" fill="url(#paint1_linear)"/>
<path d="M86.198 47.7646H91.1418V49.6763C92.05 48.7241 92.8557 48.0723 93.5588 47.7207C94.2766 47.3545 95.1262 47.1714 96.1076 47.1714C97.4113 47.1714 98.7736 47.5962 100.195 48.4458L97.9314 52.9722C96.9939 52.2983 96.0783 51.9614 95.1848 51.9614C92.4895 51.9614 91.1418 53.9976 91.1418 58.0698V69.166H86.198V47.7646Z" fill="url(#paint2_linear)"/>
<path d="M119.848 47.7646H124.814V69.166H119.848V66.9248C117.812 68.8291 115.622 69.7812 113.278 69.7812C110.319 69.7812 107.873 68.7119 105.939 66.5732C104.02 64.3906 103.061 61.666 103.061 58.3994C103.061 55.1914 104.02 52.5181 105.939 50.3794C107.858 48.2407 110.26 47.1714 113.146 47.1714C115.636 47.1714 117.87 48.1968 119.848 50.2476V47.7646ZM108.114 58.3994C108.114 60.4502 108.664 62.1201 109.762 63.4092C110.89 64.7129 112.311 65.3647 114.025 65.3647C115.856 65.3647 117.336 64.7349 118.463 63.4751C119.591 62.1714 120.155 60.5161 120.155 58.5093C120.155 56.5024 119.591 54.8472 118.463 53.5435C117.336 52.269 115.871 51.6318 114.069 51.6318C112.37 51.6318 110.949 52.2764 109.806 53.5654C108.678 54.8691 108.114 56.4805 108.114 58.3994Z" fill="url(#paint3_linear)"/>
<path d="M137.348 32.0542V54.686L144.313 47.7646H150.949L141.654 56.7515L151.63 69.166H145.214L138.139 60.1353L137.348 60.9263V69.166H132.404V32.0542H137.348Z" fill="url(#paint4_linear)"/>
<path d="M161.242 47.7646V60.0474C161.242 63.5923 162.641 65.3647 165.438 65.3647C168.236 65.3647 169.635 63.5923 169.635 60.0474V47.7646H174.579V60.1572C174.579 61.8711 174.367 63.3506 173.942 64.5957C173.532 65.709 172.821 66.7124 171.81 67.606C170.141 69.0562 168.017 69.7812 165.438 69.7812C162.875 69.7812 160.758 69.0562 159.088 67.606C158.063 66.7124 157.338 65.709 156.913 64.5957C156.503 63.5996 156.298 62.1201 156.298 60.1572V47.7646H161.242Z" fill="url(#paint5_linear)"/>
<g filter="url(#filter0_d)">
<path d="M151.589 16.588C131.02 10.464 50.7557 10.1624 21.9017 38.0066C11.6632 46.88 16.6606 72.8952 45.9489 85.3792C72.0106 92.7227 144.908 89.6764 157.331 87.827C173.775 85.3792 193.7 79.2546 196.114 59.0649C198.655 37.8091 169.207 20.5143 151.589 16.588Z" stroke="#D67924"/>
</g>
<path d="M141.175 34.3978C140.819 32.3285 139.694 26 137.511 26C136.986 26 136.518 26.2138 136.124 26.5048C135.743 26.7835 135.278 26.9345 134.8 26.9345C134.322 26.9345 133.857 26.7835 133.477 26.5048C133.083 26.2163 132.614 26 132.089 26C129.906 26 128.781 32.327 128.425 34.3971C129.88 34.8511 131.939 35.2308 134.8 35.2308C137.66 35.2308 139.721 34.8518 141.175 34.3978ZM146.534 33.0572C146.422 32.985 146.289 32.951 146.154 32.9608C146.02 32.9706 145.893 33.0236 145.794 33.1113C145.756 33.1438 141.996 36.3846 134.799 36.3846C127.643 36.3846 123.84 33.1416 123.802 33.1091C123.703 33.0228 123.576 32.9709 123.442 32.9618C123.309 32.9527 123.176 32.987 123.064 33.059C122.953 33.1311 122.871 33.2369 122.829 33.3595C122.788 33.4821 122.79 33.6144 122.836 33.7355C122.864 33.8083 125.736 41 134.8 41C143.863 41 146.736 33.8083 146.763 33.7355C146.809 33.6141 146.812 33.4813 146.771 33.3584C146.729 33.2354 146.646 33.1293 146.535 33.0572H146.534Z" fill="#EFAA43"/>
<path d="M128.176 35.2833L128.442 34.3888C130.557 34.7402 136.111 35.36 141.188 34.3888L141.418 35.3894C138.062 36.4117 132.629 36.9764 128.176 35.2833Z" fill="#FFE4AF"/>
</g>
<defs>
<filter id="filter0_d" x="15.5428" y="12.7284" width="182.225" height="79.8257" filterUnits="userSpaceOnUse" color-interpolation-filters="sRGB">
<feFlood flood-opacity="0" result="BackgroundImageFix"/>
<feColorMatrix in="SourceAlpha" type="matrix" values="0 0 0 0 0 0 0 0 0 0 0 0 0 0 0 0 0 0 127 0"/>
<feOffset dy="1"/>
<feGaussianBlur stdDeviation="0.5"/>
<feColorMatrix type="matrix" values="0 0 0 0 0 0 0 0 0 0 0 0 0 0 0 0 0 0 0.25 0"/>
<feBlend mode="normal" in2="BackgroundImageFix" result="effect1_dropShadow"/>
<feBlend mode="normal" in="SourceGraphic" in2="effect1_dropShadow" result="shape"/>
</filter>
<linearGradient id="paint0_linear" x1="108.516" y1="76.9287" x2="108.516" y2="24.0984" gradientUnits="userSpaceOnUse">
<stop stop-color="#66310B"/>
<stop offset="1" stop-color="#B0713D" stop-opacity="0.48"/>
</linearGradient>
<linearGradient id="paint1_linear" x1="108.516" y1="76.9287" x2="108.516" y2="24.0984" gradientUnits="userSpaceOnUse">
<stop stop-color="#66310B"/>
<stop offset="1" stop-color="#B0713D" stop-opacity="0.48"/>
</linearGradient>
<linearGradient id="paint2_linear" x1="108.516" y1="76.9287" x2="108.516" y2="24.0984" gradientUnits="userSpaceOnUse">
<stop stop-color="#66310B"/>
<stop offset="1" stop-color="#B0713D" stop-opacity="0.48"/>
</linearGradient>
<linearGradient id="paint3_linear" x1="108.516" y1="76.9287" x2="108.516" y2="24.0984" gradientUnits="userSpaceOnUse">
<stop stop-color="#66310B"/>
<stop offset="1" stop-color="#B0713D" stop-opacity="0.48"/>
</linearGradient>
<linearGradient id="paint4_linear" x1="108.516" y1="76.9287" x2="108.516" y2="24.0984" gradientUnits="userSpaceOnUse">
<stop stop-color="#66310B"/>
<stop offset="1" stop-color="#B0713D" stop-opacity="0.48"/>
</linearGradient>
<linearGradient id="paint5_linear" x1="108.516" y1="76.9287" x2="108.516" y2="24.0984" gradientUnits="userSpaceOnUse">
<stop stop-color="#66310B"/>
<stop offset="1" stop-color="#B0713D" stop-opacity="0.48"/>
</linearGradient>
<clipPath id="clip0">
<rect width="212" height="100" fill="white"/>
</clipPath>
</defs>
</svg>
