<svg width="500" height="500" viewBox="0 0 500 500" fill="none" xmlns="http://www.w3.org/2000/svg">
<rect width="500" height="500" fill="#EEEEEE"/>
<path d="M123.125 427.188H376.875V363.906C376.848 340.418 367.483 317.899 350.833 301.291C334.183 284.682 311.609 275.339 288.062 275.312H211.938C188.391 275.339 165.817 284.682 149.167 301.291C132.517 317.899 123.152 340.418 123.125 363.906V427.188Z" fill="#8A8A8A"/>
<path d="M161.188 161.406C161.188 178.928 166.396 196.057 176.155 210.626C185.914 225.195 199.785 236.551 216.013 243.256C232.241 249.962 250.099 251.716 267.326 248.298C284.554 244.879 300.379 236.442 312.8 224.051C325.221 211.661 333.679 195.876 337.106 178.69C340.533 161.505 338.774 143.691 332.052 127.503C325.33 111.315 313.947 97.478 299.342 87.7432C284.736 78.0084 267.565 72.8125 250 72.8125C226.445 72.8125 203.856 82.1465 187.2 98.761C170.545 115.376 161.188 137.91 161.188 161.406V161.406Z" fill="#8A8A8A"/>
</svg>
