<svg width="440" height="400" viewBox="0 0 440 400" fill="none" xmlns="http://www.w3.org/2000/svg">
<g clip-path="url(#clip0)">
<path d="M290.227 105.975H218.008C216.427 105.979 214.866 105.654 213.443 105.024C212.02 104.394 210.773 103.476 209.798 102.34C208.804 101.193 208.11 99.8541 207.768 98.4251C207.427 96.9961 207.447 95.5147 207.826 94.0938C214.482 68.6269 214.482 42.0864 207.826 16.6195C207.446 15.1986 207.427 13.7173 207.768 12.2884C208.11 10.8595 208.804 9.52061 209.797 8.37358C210.773 7.2372 212.02 6.31916 213.443 5.68929C214.866 5.05943 216.427 4.73434 218.008 4.73878H290.227C292.72 4.74533 295.13 5.56016 297.027 7.03815C298.924 8.51614 300.186 10.5613 300.586 12.8094C305.339 41.0082 305.339 69.7055 300.586 97.9043C300.186 100.152 298.924 102.198 297.027 103.676C295.13 105.154 292.72 105.968 290.227 105.975Z" fill="#E6E6E6"/>
<path d="M218.008 9.70257C217.249 9.70024 216.499 9.85614 215.815 10.1584C215.132 10.4607 214.533 10.9013 214.064 11.4469C213.581 12.0058 213.244 12.658 213.079 13.3538C212.914 14.0496 212.924 14.7707 213.11 15.4622C219.965 41.69 219.965 69.0236 213.11 95.2515C212.925 95.9428 212.914 96.6638 213.079 97.3594C213.244 98.0551 213.581 98.7072 214.064 99.266L214.064 99.2664C214.533 99.812 215.132 100.253 215.815 100.555C216.499 100.857 217.249 101.013 218.008 101.011H290.227C291.424 101.011 292.583 100.624 293.496 99.9165C294.41 99.2094 295.019 98.2291 295.216 97.1501C299.884 69.4511 299.884 41.2625 295.216 13.5636C295.019 12.4845 294.41 11.5042 293.496 10.7971C292.583 10.0901 291.424 9.70219 290.227 9.70256L218.008 9.70257Z" fill="white"/>
<path d="M274.467 33.5708H236.57C235.129 33.5694 233.748 33.046 232.729 32.1154C231.71 31.1849 231.137 29.9232 231.136 28.6072V26.6675C231.137 25.3515 231.71 24.0898 232.729 23.1593C233.748 22.2287 235.129 21.7053 236.57 21.7039H274.467C275.908 21.7053 277.289 22.2287 278.307 23.1593C279.326 24.0898 279.899 25.3515 279.901 26.6675V28.6072C279.899 29.9232 279.326 31.1849 278.307 32.1154C277.289 33.046 275.908 33.5694 274.467 33.5708Z" fill="#E6E6E6"/>
<path d="M274.467 58.0802H236.57C235.129 58.0788 233.748 57.5554 232.729 56.6248C231.71 55.6943 231.137 54.4326 231.136 53.1166V51.1769C231.137 49.8609 231.71 48.5992 232.729 47.6687C233.748 46.7381 235.129 46.2148 236.57 46.2133H274.467C275.908 46.2148 277.289 46.7381 278.307 47.6687C279.326 48.5992 279.899 49.8609 279.901 51.1769V53.1166C279.899 54.4326 279.326 55.6943 278.307 56.6248C277.289 57.5554 275.908 58.0788 274.467 58.0802Z" fill="#E6E6E6"/>
<path d="M274.467 82.5897H236.57C235.129 82.5883 233.748 82.0649 232.729 81.1343C231.71 80.2038 231.137 78.9421 231.136 77.6261V75.6864C231.137 74.3704 231.71 73.1087 232.729 72.1782C233.748 71.2476 235.129 70.7242 236.57 70.7228H274.467C275.908 70.7242 277.289 71.2476 278.307 72.1782C279.326 73.1087 279.899 74.3704 279.901 75.6864V77.6261C279.899 78.9421 279.326 80.2038 278.307 81.1343C277.289 82.0649 275.908 82.5883 274.467 82.5897Z" fill="#E6E6E6"/>
<path d="M426.076 168.85H353.857C352.276 168.854 350.715 168.529 349.292 167.899C347.869 167.269 346.622 166.351 345.646 165.215C344.653 164.068 343.959 162.729 343.617 161.3C343.276 159.871 343.296 158.39 343.675 156.969C350.331 131.502 350.331 104.961 343.675 79.4944C343.295 78.0735 343.276 76.5922 343.617 75.1633C343.959 73.7344 344.653 72.3955 345.646 71.2484C346.622 70.1121 347.869 69.194 349.292 68.5641C350.714 67.9343 352.276 67.6092 353.857 67.6136H426.076C428.569 67.6202 430.979 68.435 432.876 69.913C434.773 71.391 436.035 73.4362 436.435 75.6843C441.188 103.883 441.188 132.58 436.435 160.779C436.035 163.027 434.773 165.072 432.876 166.55C430.979 168.028 428.569 168.843 426.076 168.85Z" fill="#E6E6E6"/>
<path d="M353.857 72.5774C353.098 72.5751 352.348 72.731 351.664 73.0333C350.981 73.3355 350.382 73.7762 349.913 74.3217C349.43 74.8807 349.093 75.5329 348.928 76.2287C348.763 76.9244 348.773 77.6455 348.959 78.337C355.814 104.565 355.814 131.898 348.959 158.126C348.774 158.818 348.763 159.539 348.928 160.234C349.093 160.93 349.43 161.582 349.913 162.141L349.913 162.141C350.382 162.687 350.981 163.128 351.664 163.43C352.348 163.732 353.098 163.888 353.857 163.886H426.076C427.273 163.886 428.432 163.498 429.345 162.791C430.259 162.084 430.868 161.104 431.065 160.025C435.733 132.326 435.733 104.137 431.065 76.4385C430.868 75.3594 430.259 74.3791 429.345 73.672C428.432 72.965 427.273 72.5771 426.076 72.5774L353.857 72.5774Z" fill="white"/>
<path d="M282.076 240.411H209.857C208.207 240.416 206.579 240.077 205.094 239.419C203.61 238.762 202.309 237.804 201.291 236.619C200.255 235.423 199.531 234.027 199.175 232.537C198.819 231.046 198.839 229.502 199.235 228.02C205.874 202.617 205.874 176.142 199.235 150.739C198.839 149.257 198.819 147.712 199.175 146.222C199.531 144.732 200.255 143.336 201.291 142.14C202.309 140.955 203.61 139.997 205.094 139.34C206.578 138.683 208.207 138.343 209.857 138.348H282.076C284.677 138.355 287.191 139.205 289.17 140.748C291.15 142.29 292.465 144.424 292.883 146.769C297.643 175.01 297.643 203.749 292.883 231.99C292.465 234.336 291.15 236.469 289.17 238.012C287.191 239.554 284.677 240.404 282.076 240.411Z" fill="#F2F2F2"/>
<path d="M410.316 108.855H372.418C370.978 108.854 369.597 108.33 368.578 107.4C367.559 106.469 366.986 105.208 366.985 103.892V101.952C366.986 100.636 367.559 99.3742 368.578 98.4437C369.597 97.5131 370.978 96.9897 372.418 96.9883H410.316C411.756 96.9897 413.138 97.5131 414.156 98.4437C415.175 99.3742 415.748 100.636 415.75 101.952V103.892C415.748 105.208 415.175 106.469 414.156 107.4C413.138 108.33 411.756 108.854 410.316 108.855Z" fill="#E6E6E6"/>
<path d="M410.316 133.365H372.418C370.978 133.363 369.597 132.84 368.578 131.909C367.559 130.979 366.986 129.717 366.985 128.401V126.461C366.986 125.145 367.559 123.884 368.578 122.953C369.597 122.023 370.978 121.499 372.418 121.498H410.316C411.756 121.499 413.138 122.023 414.156 122.953C415.175 123.884 415.748 125.145 415.75 126.461V128.401C415.748 129.717 415.175 130.979 414.156 131.909C413.138 132.84 411.756 133.363 410.316 133.365Z" fill="#E6E6E6"/>
<path d="M246.168 208.066C257.672 208.066 266.998 199.547 266.998 189.038C266.998 178.529 257.672 170.01 246.168 170.01C234.664 170.01 225.338 178.529 225.338 189.038C225.338 199.547 234.664 208.066 246.168 208.066Z" fill="white"/>
<path d="M256.131 186.556H248.885V179.938C248.885 179.28 248.599 178.648 248.089 178.183C247.58 177.718 246.889 177.456 246.168 177.456C245.448 177.456 244.757 177.718 244.247 178.183C243.738 178.648 243.451 179.28 243.451 179.938V186.556H236.206C235.485 186.556 234.794 186.818 234.285 187.283C233.775 187.749 233.489 188.38 233.489 189.038C233.489 189.697 233.775 190.328 234.285 190.793C234.794 191.259 235.485 191.52 236.206 191.52H243.451V198.139C243.451 198.797 243.738 199.428 244.247 199.894C244.757 200.359 245.448 200.62 246.168 200.62C246.889 200.62 247.58 200.359 248.089 199.894C248.599 199.428 248.885 198.797 248.885 198.139V191.52H256.131C256.851 191.52 257.542 191.259 258.052 190.793C258.561 190.328 258.848 189.697 258.848 189.038C258.848 188.38 258.561 187.749 258.052 187.283C257.542 186.818 256.851 186.556 256.131 186.556Z" fill="#E6E6E6"/>
<path d="M272.432 14.0641H234.395C233.314 14.063 232.278 13.6704 231.514 12.9725C230.75 12.2746 230.32 11.3283 230.319 10.3413V3.72285C230.32 2.73583 230.75 1.78956 231.514 1.09163C232.278 0.393697 233.314 0.00111235 234.395 0H272.432C273.513 0.00111235 274.549 0.393697 275.313 1.09163C276.077 1.78956 276.507 2.73583 276.508 3.72285V10.3413C276.507 11.3283 276.077 12.2746 275.313 12.9725C274.549 13.6704 273.513 14.063 272.432 14.0641Z" fill="#CCCCCC"/>
<path d="M410.093 77.7663H372.055C370.974 77.7652 369.939 77.3726 369.175 76.6747C368.41 75.9767 367.981 75.0305 367.979 74.0435V67.425C367.981 66.438 368.41 65.4917 369.175 64.7938C369.939 64.0959 370.974 63.7033 372.055 63.7022H410.093C411.173 63.7033 412.209 64.0959 412.973 64.7938C413.737 65.4917 414.167 66.438 414.168 67.425V74.0435C414.167 75.0305 413.737 75.9767 412.973 76.6747C412.209 77.3726 411.173 77.7652 410.093 77.7663Z" fill="#CCCCCC"/>
<path d="M80.2378 389.709H91.3412L94.8126 350.588H80.236L80.2378 389.709Z" fill="#FFB8B8"/>
<path d="M77.406 386.398L99.2721 386.397H99.273C101.103 386.397 102.915 386.726 104.606 387.366C106.296 388.006 107.832 388.943 109.126 390.125C110.42 391.307 111.447 392.71 112.147 394.255C112.847 395.799 113.208 397.454 113.208 399.126V399.54L77.4067 399.541L77.406 386.398Z" fill="#2F2E41"/>
<path d="M20.4643 389.709H31.5677L36.8504 350.588H20.4625L20.4643 389.709Z" fill="#FFB8B8"/>
<path d="M17.6325 386.398L39.4985 386.397H39.4994C41.3294 386.397 43.1414 386.726 44.8321 387.366C46.5228 388.006 48.059 388.943 49.3529 390.125C50.6469 391.307 51.6733 392.71 52.3736 394.255C53.0739 395.799 53.4344 397.454 53.4343 399.126V399.54L17.6332 399.541L17.6325 386.398Z" fill="#2F2E41"/>
<path d="M22.4343 377.351C21.3017 377.35 20.2106 376.961 19.3777 376.26C18.9306 375.887 18.5705 375.436 18.3191 374.933C18.0676 374.43 17.93 373.886 17.9144 373.334L13.4616 227.552L76.6867 241.99L96.1942 295.449C98.7098 302.326 99.7988 309.571 99.4052 316.813L96.9829 368.632C96.9277 369.694 96.4269 370.695 95.5846 371.429C94.7423 372.162 93.6232 372.57 92.4597 372.569H81.8554C80.7608 372.565 79.7046 372.201 78.8803 371.543C78.0561 370.885 77.5192 369.978 77.368 368.988L69.7886 311.787C69.1263 307.324 67.4174 303.045 64.7787 299.241L49.863 277.669C49.7632 277.524 49.6172 277.412 49.4449 277.347C49.2725 277.281 49.0823 277.266 48.9001 277.303C48.718 277.34 48.5529 277.428 48.4273 277.554C48.3018 277.68 48.2219 277.839 48.1987 278.008L36.4934 373.221C36.3678 374.186 35.8732 375.081 35.0967 375.746C34.3202 376.411 33.3117 376.805 32.2486 376.858L22.6921 377.343C22.6061 377.348 22.5203 377.351 22.4343 377.351Z" fill="#2F2E41"/>
<path d="M66.1654 133.168C78.4504 133.168 88.4093 124.071 88.4093 112.849C88.4093 101.627 78.4504 92.5295 66.1654 92.5295C53.8804 92.5295 43.9214 101.627 43.9214 112.849C43.9214 124.071 53.8804 133.168 66.1654 133.168Z" fill="#FFB8B8"/>
<path d="M76.3839 247.919C76.0011 247.919 75.6199 247.874 75.2491 247.788H75.2484L12.5186 233.095C11.397 232.833 10.4281 232.188 9.81111 231.293C9.1941 230.398 8.97583 229.321 9.20124 228.284L23.6077 157.392C24.5053 153.294 26.4782 149.456 29.357 146.208C32.2359 142.96 35.9346 140.399 40.1358 138.745C44.2292 137.09 48.7057 136.381 53.1702 136.68C57.6347 136.979 61.9498 138.278 65.7348 140.461C66.613 140.962 67.4977 141.508 68.3636 142.084C71.8493 144.433 74.692 147.487 76.6685 151.008C78.6451 154.529 79.7018 158.42 79.7557 162.377L80.9013 243.724C80.909 244.271 80.7979 244.814 80.5746 245.322C80.3512 245.83 80.0199 246.292 79.5999 246.682C79.1799 247.072 78.6794 247.382 78.1274 247.594C77.5754 247.807 76.9828 247.917 76.3839 247.919Z" fill="#FFF2C3"/>
<path d="M18.973 248.753C18.2246 247.747 17.7269 246.603 17.5147 245.403C17.3026 244.202 17.3812 242.974 17.7451 241.804C18.109 240.634 18.7492 239.551 19.6207 238.631C20.4923 237.712 21.5739 236.978 22.7894 236.482L19.9993 207.029L34.7851 214.349L35.1678 241.196C35.9451 243.117 35.9242 245.231 35.109 247.139C34.2938 249.046 32.741 250.614 30.7448 251.545C28.7485 252.477 26.4476 252.707 24.278 252.192C22.1084 251.678 20.2208 250.454 18.973 248.753H18.973Z" fill="#FFB8B8"/>
<path d="M24.2553 232.587C23.8381 232.586 23.4226 232.538 23.0185 232.444C22.1492 232.241 21.3559 231.828 20.7227 231.247C20.0895 230.667 19.6398 229.941 19.4213 229.146L12.155 202.768C9.6156 193.556 10.8261 183.814 15.5614 175.356L30.7845 148.153C31.7468 144.896 34.0719 142.115 37.2584 140.409C40.4449 138.704 44.2375 138.211 47.8182 139.037C49.6029 139.449 51.2804 140.18 52.7534 141.188C54.2264 142.197 55.4656 143.462 56.3992 144.911C57.352 146.381 57.9751 148.01 58.2323 149.702C58.4894 151.394 58.3755 153.116 57.8972 154.767L36.227 199.033L36.4844 225.536C36.4911 226.471 36.1833 227.385 35.6027 228.155C35.0222 228.925 34.1968 229.514 33.2381 229.841L25.9862 232.301C25.4324 232.49 24.8463 232.586 24.2553 232.587Z" fill="#FFF2C3"/>
<path d="M127.986 237.919C126.663 237.781 125.389 237.38 124.255 236.743C123.12 236.107 122.152 235.251 121.419 234.236C120.685 233.221 120.205 232.071 120.01 230.868C119.816 229.665 119.913 228.437 120.294 227.272L94.0358 209.99L109.755 204.529L132.28 221.777C134.381 222.492 136.122 223.885 137.172 225.694C138.223 227.503 138.511 229.601 137.982 231.59C137.453 233.58 136.143 235.323 134.3 236.49C132.458 237.656 130.211 238.165 127.986 237.919H127.986Z" fill="#FFB8B8"/>
<path d="M114.24 225.299C113.466 225.299 112.702 225.134 112.009 224.818L85.3838 212.643C76.0839 208.391 68.7909 201.198 64.861 192.402L52.2205 164.117C50.1461 161.326 49.3555 157.901 50.0192 154.583C50.683 151.264 52.7478 148.317 55.7686 146.376C57.2779 145.406 58.9833 144.721 60.7855 144.36C62.5876 143.998 64.4505 143.969 66.2655 144.272C68.1018 144.573 69.8543 145.205 71.4215 146.129C72.9886 147.054 74.3393 148.254 75.3953 149.659L97.987 193.539L120.145 210.65C120.925 211.255 121.483 212.064 121.743 212.969C122.003 213.873 121.953 214.828 121.6 215.706L118.91 222.331C118.559 223.2 117.925 223.95 117.093 224.479C116.256 225.013 115.26 225.299 114.24 225.299Z" fill="#FFF2C3"/>
<path d="M61.4944 133.479C62.6763 133.952 65.0965 125.349 64.0124 123.629C62.4001 121.07 62.4954 121.088 61.4251 119.395C60.3548 117.702 60.1153 115.385 61.5013 113.896C62.8874 112.406 66.0948 112.604 66.7274 114.471C66.3205 110.924 70.1615 108.073 73.9663 107.271C77.7711 106.47 81.7844 106.967 85.6101 106.254C90.05 105.427 94.6695 102.027 92.8981 97.5671C92.5941 96.8246 92.139 96.1413 91.5568 95.5534C89.51 93.4513 86.647 92.5536 83.8478 91.6858C78.0243 89.8802 72.0416 88.052 65.8957 88.2513C60.8318 88.4931 55.9549 90.0782 51.8618 92.8126C47.7688 95.5469 44.6371 99.3118 42.85 103.647C42.4264 104.731 42.0983 105.845 41.8688 106.977C39.7593 117.338 46.346 127.558 57.0442 131.504L61.4944 133.479Z" fill="#2F2E41"/>
<path opacity="0.2" d="M35.2302 226.137L35.7346 198.895L51.532 169.88L38.8528 199.663L35.2302 226.137Z" fill="black"/>
<path d="M178.485 294.505L111.794 269.193C110.332 268.643 109.027 267.795 107.977 266.715C106.928 265.635 106.162 264.35 105.738 262.959C105.303 261.551 105.224 260.071 105.509 258.632C105.794 257.193 106.434 255.832 107.382 254.653C124.225 233.468 135.372 208.958 139.922 183.108C140.169 181.663 140.773 180.288 141.688 179.088C142.604 177.888 143.807 176.895 145.206 176.184C146.585 175.476 148.122 175.066 149.7 174.983C151.279 174.9 152.857 175.147 154.315 175.705L221.007 201.017C223.306 201.897 225.19 203.494 226.321 205.524C227.452 207.553 227.758 209.884 227.184 212.101C219.729 239.807 207.675 266.308 191.442 290.683C190.127 292.618 188.104 294.065 185.731 294.765C183.358 295.465 180.79 295.372 178.485 294.505Z" fill="#E6E6E6"/>
<path d="M152.23 180.289C151.53 180.021 150.772 179.902 150.014 179.941C149.256 179.981 148.518 180.178 147.856 180.517C147.175 180.864 146.59 181.349 146.145 181.933C145.7 182.518 145.407 183.187 145.288 183.891C140.602 210.514 129.122 235.756 111.775 257.574C111.313 258.147 111 258.809 110.861 259.509C110.721 260.21 110.758 260.93 110.969 261.615L110.97 261.616C111.173 262.284 111.541 262.901 112.045 263.419C112.549 263.938 113.176 264.345 113.878 264.609L180.57 289.921C181.675 290.341 182.908 290.389 184.049 290.056C185.19 289.723 186.164 289.031 186.799 288.104C202.744 264.161 214.584 238.13 221.907 210.915C222.179 209.849 222.028 208.731 221.481 207.757C220.935 206.784 220.028 206.02 218.922 205.601L152.23 180.289Z" fill="white"/>
<path d="M187.741 236.634L152.744 223.352C151.414 222.845 150.358 221.878 149.809 220.661C149.259 219.445 149.259 218.079 149.811 216.863L150.626 215.072C151.18 213.857 152.239 212.893 153.57 212.391C154.902 211.889 156.397 211.889 157.728 212.393L192.725 225.675C194.055 226.182 195.11 227.149 195.66 228.365C196.21 229.582 196.209 230.948 195.658 232.164L194.843 233.955C194.289 235.169 193.23 236.134 191.899 236.636C190.567 237.138 189.072 237.138 187.741 236.634Z" fill="#FFF2C3"/>
<path d="M177.446 259.268L142.449 245.985C141.119 245.479 140.064 244.511 139.514 243.295C138.964 242.079 138.965 240.713 139.516 239.497L140.331 237.706C140.885 236.491 141.944 235.527 143.276 235.024C144.607 234.522 146.103 234.523 147.434 235.026L182.431 248.309C183.76 248.815 184.816 249.783 185.366 250.999C185.916 252.215 185.915 253.581 185.364 254.797L184.549 256.588C183.995 257.803 182.936 258.767 181.604 259.27C180.272 259.772 178.777 259.771 177.446 259.268Z" fill="#FFF2C3"/>
<path d="M201.764 204.825C201.24 204.824 200.721 204.732 200.236 204.551L164.971 191.527C163.97 191.156 163.171 190.438 162.749 189.529C162.327 188.621 162.317 187.596 162.72 186.681L165.436 180.545C165.842 179.629 166.628 178.899 167.623 178.513C168.618 178.128 169.74 178.119 170.742 178.489L206.007 191.513C207.008 191.884 207.807 192.602 208.229 193.511C208.651 194.42 208.661 195.444 208.258 196.359L205.542 202.496C205.237 203.183 204.714 203.771 204.042 204.186C203.369 204.601 202.576 204.823 201.764 204.825Z" fill="#CCCCCC"/>
<path d="M127.698 400H0.905648C0.665452 400 0.435107 399.913 0.265263 399.758C0.0954191 399.603 -1.14441e-05 399.392 -1.14441e-05 399.173C-1.14441e-05 398.953 0.0954191 398.743 0.265263 398.588C0.435107 398.433 0.665452 398.345 0.905648 398.345H127.698C127.938 398.345 128.169 398.433 128.338 398.588C128.508 398.743 128.604 398.953 128.604 399.173C128.604 399.392 128.508 399.603 128.338 399.758C128.169 399.913 127.938 400 127.698 400Z" fill="#CCCCCC"/>
</g>
<defs>
<clipPath id="clip0">
<rect width="440" height="400" fill="white"/>
</clipPath>
</defs>
</svg>
