<svg xmlns="http://www.w3.org/2000/svg" viewBox="0 0 500 500"><path fill="#e6e6e6" d="M0 382.4h500v.3H0zM72.4 391.9h34.4v.3H72.4zM287.9 393.7h10.3v.3h-10.3zM117.3 395.4h19.4v.3h-19.4zM394.1 394.9h25.7v.3h-25.7zM359.1 391.3h17.5v.3h-17.5zM179.8 390.9h93.7v.3h-93.7zM237 337.8H44a5.7 5.7 0 01-5.8-5.7V60.7A5.7 5.7 0 0144 55H237a5.7 5.7 0 015.7 5.7v271.4a5.7 5.7 0 01-5.7 5.7zM44 55.2a5.5 5.5 0 00-5.5 5.5V332a5.5 5.5 0 005.4 5.4H237a5.5 5.5 0 005.5-5.4V60.7a5.5 5.5 0 00-5.5-5.5zM453.3 337.8h-193a5.7 5.7 0 01-5.8-5.7V60.7a5.7 5.7 0 015.7-5.7h193.1a5.7 5.7 0 015.7 5.7V332a5.7 5.7 0 01-5.7 5.7zm-193-282.6a5.5 5.5 0 00-5.6 5.5V332a5.5 5.5 0 005.5 5.4h193.1a5.5 5.5 0 005.5-5.4V60.7a5.5 5.5 0 00-5.5-5.5z"/><path d="M343.8 284.6h-1.6a23.7 23.7 0 00-21.2 29.8 118.6 118.6 0 013.7 30.9v30.3a4 4 0 004 4h96.1v-95z" fill="#f0f0f0"/><path d="M448.4 308.3a23.7 23.7 0 00-47.3-1.6 23.4 23.4 0 00.8 7.7 118.6 118.6 0 013.7 30.9v30.3a4 4 0 004 4H440a4 4 0 004-4v-32.1a108.2 108.2 0 013.6-28.9 23.6 23.6 0 00.8-6.3z" fill="#fafafa"/><path fill="#f0f0f0" d="M223.1 321.9h169v57.6h-169z"/><path d="M169.8 252.9H332a18 18 0 0117.9 17.9v64.1H151.8v-64.1a18 18 0 0118-18z" fill="#e6e6e6"/><path d="M191.4 252.9h164.1a17 17 0 0117 17v65H174.5v-65a17 17 0 0117-17z" fill="#fafafa"/><path d="M228.8 316.6H391a5.2 5.2 0 015.2 5.2V335a5.2 5.2 0 01-5.2 5.2H228.8a1.6 1.6 0 01-1.6-1.5v-20.4a1.6 1.6 0 011.6-1.6z" fill="#e6e6e6"/><path d="M143.3 284.6h-1.6a23.7 23.7 0 00-21.2 29.8 118.6 118.6 0 013.7 30.9v30.2a4 4 0 004 4h96v-94.9z" fill="#f0f0f0"/><path d="M248 308.3a23.7 23.7 0 00-47.4-1.6 23.4 23.4 0 00.8 7.7 118.6 118.6 0 013.7 30.9v30.3a4 4 0 004 4h30.4a4 4 0 004-4v-32.1a108.2 108.2 0 013.6-28.9 23.6 23.6 0 00.8-6.3z" fill="#fafafa"/><path d="M423 382.4H145a2.9 2.9 0 01-2.9-2.9H426a2.9 2.9 0 01-3 3zM119.9 112.3h171.2v83.3H119.9z" fill="#e0e0e0"/><path fill="#f5f5f5" d="M125.6 112.3h173.7v83.3H125.6z"/><path fill="#fff" d="M292.6 118.9V189H132.1v-70.2z"/><rect x="194.3" y="89.6" width="36.2" height="128.9" rx="11.8" transform="rotate(90 212.4 154)" fill="#f5f5f5"/><path fill="#e0e0e0" d="M332 162.9h40.8v42.2H332z"/><path fill="#f5f5f5" d="M337.2 162.9h39.7v42.2h-39.7z"/><path fill="#fff" d="M373.6 166.2v35.6h-33.1v-35.6z"/><path fill="#f5f5f5" d="M357 175l-9 15.7h18.1l-9-15.7z"/><path fill="#e0e0e0" d="M386.3 135.2h40.8v42.2h-40.8z"/><path fill="#f5f5f5" d="M391.5 135.2h39.7v42.2h-39.7z"/><path fill="#fff" d="M428 138.5v35.6h-33.2v-35.6z"/><path d="M415.4 162.7l4-6.8a4.7 4.7 0 00-4-7h-8a4.7 4.7 0 00-4 7l4 6.8a4.7 4.7 0 008 0z" fill="#f5f5f5"/><path fill="#e6e6e6" d="M35 308h22.6v70H35zM39.4 378h111.3v4.4H39.4z"/><path fill="#fafafa" d="M155 378H57.6v-70H155z"/><path fill="#f0f0f0" d="M146.1 339.6H66.5v-23h79.6zM146.1 369.4H66.5v-23h79.6z"/><path d="M115.9 329.7H96.7a1.6 1.6 0 01-1.5-1.6 1.6 1.6 0 011.5-1.6H116a1.6 1.6 0 011.5 1.6 1.6 1.6 0 01-1.5 1.6zM115.9 359.4H96.7a1.6 1.6 0 01-1.5-1.5 1.6 1.6 0 011.5-1.6H116a1.6 1.6 0 011.5 1.6 1.6 1.6 0 01-1.5 1.6zM87.9 256.7h-13c.3 12.6-5.4 19.7-5.4 34.5 0 13.4 3.2 15.9 11.9 15.9s11.9-2.5 11.9-15.9c0-14.8-5.8-22-5.4-34.5z" fill="#fafafa"/><path d="M76.6 306.6h9.5v.8a.6.6 0 01-.7.6h-8.2a.6.6 0 01-.6-.6v-.8z" fill="#f3f7ff"/><path fill="#e0e0e0" d="M66 261.3h1v19.1h-1z"/><path fill="#ebebeb" d="M102 267.3H60.7l7-42.4H95l7.1 42.4z"/><g><ellipse cx="250" cy="416.2" rx="193.9" ry="11.3" fill="#f5f5f5"/></g><g><path d="M242.3 386.6c-.9-32.6-2-189.6-.2-206l3.7-4-.1 17.1c-.4 56-1.9 184.6-1.6 192.9z" fill="#fff2c3"/><path d="M242.3 386.6c-.9-32.6-2-189.6-.2-206l3.7-4-.1 17.1c-.4 56-1.9 184.6-1.6 192.9z" fill="#fff" opacity=".6"/><path d="M257.7 293.8A123.7 123.7 0 01289 271c8.6-4.2-14 23.3-22.8 33.6s-19.8 21.6-23.3 31.2c-.7-19.5 3.7-31.1 14.7-42z" fill="#fff2c3"/><path d="M257.7 293.8A123.7 123.7 0 01289 271c8.6-4.2-14 23.3-22.8 33.6s-19.8 21.6-23.3 31.2c-.7-19.5 3.7-31.1 14.7-42z" fill="#fff" opacity=".6"/><path d="M243 210.4c-6.8-29.8-4.8-46.9 2.8-65.2 7.1-17.1 12.7-24.8 21-31.3 2-1.6-2.7 22.3-10 40.2-5.2 12.6-7.8 29-11.4 38.4-2.5 6.5-2.5 17.9-2.5 17.9z" fill="#fff2c3"/><path d="M243 210.4c-6.8-29.8-4.8-46.9 2.8-65.2 7.1-17.1 12.7-24.8 21-31.3 2-1.6-2.7 22.3-10 40.2-5.2 12.6-7.8 29-11.4 38.4-2.5 6.5-2.5 17.9-2.5 17.9z" fill="#fff" opacity=".6"/><path d="M243.3 275.6c-.8-17.8-1.7-35 11.9-57.7 3.3-5.5 32.4-52 42.4-54.8 5-1.3-3.8 34.7-17.3 56.1-10 16.1-14.7 20.4-25.8 39.2a309.8 309.8 0 01-11.2 17.2z" fill="#fff2c3"/><path d="M243.3 275.6c-.8-17.8-1.7-35 11.9-57.7 3.3-5.5 32.4-52 42.4-54.8 5-1.3-3.8 34.7-17.3 56.1-10 16.1-14.7 20.4-25.8 39.2a309.8 309.8 0 01-11.2 17.2z" fill="#fff" opacity=".6"/><path d="M225.9 202c-11.9-11.4-23.5-19-32.2-22.8s14.1 24.7 25 37.1 21 23.1 25.2 34.2c-1.2-23.7-6.1-37-18-48.4z" fill="#fff2c3"/><path d="M225.9 202c-11.9-11.4-23.5-19-32.2-22.8s14.1 24.7 25 37.1 21 23.1 25.2 34.2c-1.2-23.7-6.1-37-18-48.4z" fill="#fff" opacity=".6"/><path d="M244 309.3c-2-13.4-6.4-28.7-13.2-39.3s-17-26.8-25.7-31.1c-2-1 9.3 31.7 14.8 40.7a98.8 98.8 0 0016.3 20.4c1.5 1.5 7.7 9.3 7.7 9.3z" fill="#fff2c3"/><path d="M244 309.3c-2-13.4-6.4-28.7-13.2-39.3s-17-26.8-25.7-31.1c-2-1 9.3 31.7 14.8 40.7a98.8 98.8 0 0016.3 20.4c1.5 1.5 7.7 9.3 7.7 9.3z" fill="#fff" opacity=".6"/><path fill="#fff2c3" d="M258.4 395H228l-2.2-32.5h34.8l-2.3 32.6z"/><path fill="#fff2c3" d="M263 368h-39.4l-1.1-8.5H264l-1 8.5z"/><g opacity=".4"><path d="M258.4 395H228l-2.2-32.5h34.8l-2.3 32.6z"/><path d="M263 368h-39.4l-1.1-8.5H264l-1 8.5z"/></g></g><g><path d="M291 273.3c-9.2 1.7-39.6-17.2-49.8-29.6a154 154 0 0020.1-21.1 97.9 97.9 0 01-23.7 18l-4.5-4s26-8.7 39.8-39.3c10.5-23.4 25.8-35.9 42-23.9 31.4 7.7-1.9 90.3-23.8 100z" fill="#263238"/><path d="M300.4 223l-.5.8-.6.8a40 40 0 01-3.6 4 50.4 50.4 0 01-5.4 4.5 48.9 48.9 0 01-6 3.6c-1 .5-2 1-3.2 1.4l-1.6.7-.4.2-.8.2a5.8 5.8 0 01-2 .1 5.3 5.3 0 01-2.3-.8 5.6 5.6 0 01-1.5-1.5 7.7 7.7 0 01-1-2.6 17 17 0 01-.4-4 44.4 44.4 0 01.7-6.9 104.3 104.3 0 013.3-12.9l3.8 1-.8 6.3-.6 6.3a49.1 49.1 0 000 6 10.7 10.7 0 00.4 2.5c0 .3.2.5.2.4a1 1 0 00-.4-.4 1.7 1.7 0 00-.8-.3 1.3 1.3 0 00-.4 0l.3-.1 1.4-.7 2.6-1.4a55.4 55.4 0 005-3.3 46.4 46.4 0 004.4-4l2-2 1-1.2.4-.5.3-.5z" fill="#e4897b"/><path d="M278.6 212.5l3.2-5.8-8 .5s-.5 3.7 1.7 6z" fill="#e4897b"/><path d="M302.5 213.4c-7.8.3-13.8 7.7-13.8 7.7l10 12.6s7.5-7.5 8.2-11.7c.7-4.3.3-8.8-4.4-8.6z" fill="#fff2c3"/><path d="M302.5 213.4c-7.8.3-13.8 7.7-13.8 7.7l10 12.6s7.5-7.5 8.2-11.7c.7-4.3.3-8.8-4.4-8.6z" opacity=".3"/><path fill="#e4897b" d="M280.3 203.2l-5.8 1.5-.7 2.5 8-.5-1.5-3.5z"/><path fill="#e4897b" d="M279.8 196.3l1 .5-.5 7.3-2.3.1 1.8-8z"/><path fill="#e4897b" d="M278 196l-1 .2-1 8.8 2.3-.6-.3-8.4z"/><path d="M295.2 215.8s-3 2.3 17.4 42.7L342 249c-4.3-11.8-6.7-19.2-8.7-45.6a91.3 91.3 0 00-13 2.3 98 98 0 00-13.4 4.2c-5.6 2.4-11.7 5.8-11.7 5.8z" fill="#fff2c3"/><path d="M295.2 215.8s-3 2.3 17.4 42.7L342 249c-4.3-11.8-6.7-19.2-8.7-45.6a91.3 91.3 0 00-13 2.3 98 98 0 00-13.4 4.2c-5.6 2.4-11.7 5.8-11.7 5.8z" opacity=".3"/><path fill="#e4897b" d="M364 408l-7.3.6-7.6-17.5 7.3-.7 7.7 17.5z"/><path fill="#ce6f64" d="M349 391.1l4 9h7.7l-4.3-9.7-7.3.8z"/><path fill="#e4897b" d="M430.4 371.8l-4.2 6.4-16-7.7 4.2-6.4 16 7.7z"/><path fill="#ce6f64" d="M414.4 364.1l-4.2 6.4 8.3 4 4.1-6.4-8.2-4z"/><path d="M312.6 258.5s-1.5 60.7 6 82.7c7.7 22.8 30.6 56.3 30.6 56.3l14.3-.6s-20.6-42.2-23-60.4c-3.1-25-6.4-84.9-6.4-84.9z" fill="#fff2c3"/><path d="M312.6 258.5s-1.5 60.7 6 82.7c7.7 22.8 30.6 56.3 30.6 56.3l14.3-.6s-20.6-42.2-23-60.4c-3.1-25-6.4-84.9-6.4-84.9z" opacity=".6"/><path d="M336.6 290.7l-10.5-24s1.2 27.7 11.3 34.8l-.8-10.8z" opacity=".3"/><path d="M320.3 256s20 48.5 33.3 75.2c10.7 21.5 61.8 43.6 61.8 43.6l5.3-9s-39-24.8-46.5-39.4c-23.6-46.8-18.6-67.1-32.2-77.3z" fill="#fff2c3"/><path d="M320.3 256s20 48.5 33.3 75.2c10.7 21.5 61.8 43.6 61.8 43.6l5.3-9s-39-24.8-46.5-39.4c-23.6-46.8-18.6-67.1-32.2-77.3z" opacity=".6"/><path d="M424.4 377.5l.6-8.5a.6.6 0 01.6-.6l6.8-.5a1.2 1.2 0 011.3 1.3c-.3 3-.6 4.4-.8 8.1-.1 2.4-.1 7.5-.3 10.7s-3.4 3.1-3.6 1.8c-1-6-2.6-8.9-4.2-11a2 2 0 01-.4-1.3zM355.8 406.4h9a.8.8 0 01.7.5l2 7.2a1.1 1.1 0 01-1.1 1.4l-8.7-.2-12.1.2c-3.3 0-4-3.3-2.6-3.6 6-1.4 9.6-3.2 11.5-5a1.9 1.9 0 011.3-.5z" fill="#263238"/><path d="M314.2 191.1c.5 4.6 2.2 12.8 6 14.7 0 0 .3 4.7-7.7 7.3-8.8 2.7-5.6-3-5.6-3 4.4-2.7 3.2-6.2 1.3-9.3z" fill="#e4897b"/><path d="M299.3 213.6c2.2-1.1 5-2.5 7.6-3.6a98.4 98.4 0 0113.4-4.2c2.6-.7 5.2-1.2 7.4-1.6.4 1.5 2 12-13.7 15.8-13.7 3.4-15.4-4.1-14.7-6.4z" fill="#e4897b"/><path d="M306.3 210.3a.5.5 0 01-.3-.1.5.5 0 01-.2-.4.5.5 0 01.2-.3.5.5 0 01.7 0 .5.5 0 01.1.3.5.5 0 01-.1.4.5.5 0 01-.4.1zM309.8 216.3a.5.5 0 01-.5-.6.5.5 0 01.6-.4.5.5 0 01.5.5.5.5 0 01-.5.5h-.1zm1.6-.5a.5.5 0 01.4-.6.5.5 0 01.5.5.5.5 0 01-.4.5.5.5 0 01-.5-.4zm2-.3a.5.5 0 01.3-.6.5.5 0 01.6.3.5.5 0 01-.3.7h-.2a.5.5 0 01-.5-.4zm-5.7.1a.5.5 0 01-.2-.7.5.5 0 01.7-.1.5.5 0 01.2.6.5.5 0 01-.4.3.5.5 0 01-.3 0zm7.6-.7a.5.5 0 01.2-.6.5.5 0 01.7.2.5.5 0 01-.3.7.5.5 0 01-.2 0 .5.5 0 01-.5-.3zm1.7-.9a.5.5 0 01.1-.7.5.5 0 01.7.1.5.5 0 01-.1.7.5.5 0 01-.3.1.5.5 0 01-.4-.2zm-10.8 0a.5.5 0 01.2-.7.5.5 0 01.7.3.5.5 0 01-.2.6.5.5 0 01-.3 0 .5.5 0 01-.4-.2zm12.4-1.2a.5.5 0 010-.7.5.5 0 01.7 0 .5.5 0 010 .8.5.5 0 01-.4.1.5.5 0 01-.3-.2zm-13-1a.5.5 0 01.5-.5.5.5 0 01.6.5.5.5 0 01-.5.5.5.5 0 01-.5-.5zm14.3-.5a.5.5 0 01-.2-.7.5.5 0 01.7-.2.5.5 0 01.2.7.5.5 0 01-.4.3.5.5 0 01-.3-.1zm1-1.8a.5.5 0 01-.3-.6.5.5 0 01.6-.3.5.5 0 01.3.6.5.5 0 01-.4.4.4.4 0 01-.2 0zm.6-1.9a.5.5 0 01-.4-.6.5.5 0 01.6-.3.5.5 0 01.4.5.5.5 0 01-.5.4zM321.9 205.6a.5.5 0 01-.5-.5.5.5 0 01.1-.3.6.6 0 01.2-.1.5.5 0 01.5 0 .5.5 0 01.2.4.6.6 0 01-.2.4.5.5 0 01-.1 0 .5.5 0 01-.2.1z" fill="#f0f0f0"/><path d="M311.8 195l-3.6 5.7a13.8 13.8 0 011.2 2.3c1.7-.9 4-3.4 3.6-5.4a8 8 0 00-1.3-2.5z" fill="#ce6f64"/><path d="M312.1 181c2.5 7.1 3.7 10 1.7 15.1-3 7.6-12.2 9.2-16.8 3-4.2-5.7-7.6-16.4-2-22a10.3 10.3 0 0117.1 3.9z" fill="#e4897b"/><path d="M301.7 173.4c-1.5 2.4 4.9 16.4 14.2 13.6 4.7-1.4 3.1-4.5.4-7.3a21.3 21.3 0 00-12.3-6z" fill="#263238"/><path d="M302.1 173.8c-2.8-.3-12 1.4-11.5 10.8 0 0 3.8-3.5 14.4-4z" fill="#263238"/><path d="M315.9 186.8a5.5 5.5 0 01-.5 4.1c-.9 1.7-2.7 1.2-3.6-.3-.9-1.5-1.3-4.1.1-5.3a2.5 2.5 0 014 1.4z" fill="#e4897b"/><path d="M342 247.3l2 2.2c.3.1 0 .4-.3.5l-30.9 9.8c-.2.1-.5 0-.6-.1l-1-2.6c-.1-.1 0-.4.3-.5l29.9-9.4a.6.6 0 01.5 0z" fill="#fff2c3"/><path d="M302.4 187.3c.3.6.1 1.2-.2 1.4s-.9-.2-1.1-.8-.2-1.1.2-1.3.9.2 1.1.8zM296 190c.2.6.1 1.2-.2 1.4s-.9-.2-1.1-.8-.2-1.1.2-1.3.9.2 1.1.8z" fill="#263238"/><path d="M295.1 189.3l-1.5.2s1.1.7 1.5-.2z" fill="#263238"/><path d="M298.1 190.3a16.7 16.7 0 01-.5 4.5 2.6 2.6 0 002.2-.5z" fill="#de5753"/><path d="M302.7 195.7a.2.2 0 01-.2-.1.2.2 0 01.1-.3 4.8 4.8 0 003-3.3.2.2 0 01.1 0 .2.2 0 01.2.1 5.2 5.2 0 01-3.2 3.6zM303.3 184.5a.3.3 0 01-.2 0 2.8 2.8 0 00-2.6-.3.4.4 0 11-.3-.6 3.6 3.6 0 013.3.2.4.4 0 01.1.5.3.3 0 01-.3.2zM291.7 188.4a.4.4 0 01-.3-.5 3.6 3.6 0 012-2.6.4.4 0 11.3.7 2.9 2.9 0 00-1.6 2 .4.4 0 01-.4.4z" fill="#263238"/><path d="M339 210.3l2.4 2.7 2.6 2.7a84.7 84.7 0 0011.3 9.7c.4.4 1 .7 1.5 1l1.5 1 1.5.9.7.3.7.3a17.9 17.9 0 003 .8 29.4 29.4 0 003.5.4 48.8 48.8 0 007.3-.4 71.3 71.3 0 007.5-1.3c2.4-.5 5-1.2 7.3-1.9l1.4 3.6a75.8 75.8 0 01-7.4 3 77.2 77.2 0 01-7.8 2.2 47.9 47.9 0 01-8.2 1.1 26.5 26.5 0 01-8.9-1l-1-.4-1.2-.5-1.9-1-1.8-1-1.8-1a66.8 66.8 0 01-6.7-4.8 87 87 0 01-6-5.5q-1.5-1.4-2.8-3l-2.8-3z" fill="#e4897b"/><path d="M424.4 381.9a1.6 1.6 0 01-.2 0 .6.6 0 01-.5-.4c-.4-1 1.3-3.1 1.4-3.4a.2.2 0 01.2 0 .2.2 0 01.2 0c.1 1 .3 2.9-.4 3.5a1 1 0 01-.7.3zm.8-3.3c-.6 1-1.4 2.2-1.2 2.7l.2.2a.7.7 0 00.7-.2c.4-.3.5-1.3.3-2.7z" fill="#fff2c3"/><path d="M422.6 380a.8.8 0 01-.2 0 .6.6 0 01-.5-.6 1 1 0 01.3-.8c.8-.8 3-.6 3.1-.6a.2.2 0 01.1 0 .2.2 0 010 .3 4.8 4.8 0 01-2.8 1.7zm2.3-1.7a4 4 0 00-2.4.6.6.6 0 00-.2.4c0 .3.1.3.2.3.5.2 1.8-.6 2.4-1.3zM351.8 407.9a3 3 0 01-1.8-.5 1 1 0 01-.5-.8.5.5 0 01.3-.5c.8-.6 3.9.8 4.5 1.1a.2.2 0 010 .2.2.2 0 010 .2 11.8 11.8 0 01-2.5.3zm-1.5-1.6a.7.7 0 00-.3 0 .2.2 0 00-.1.2.7.7 0 00.3.7c.7.5 2.4.3 3.4.1a11 11 0 00-3.3-1z" fill="#fff2c3"/><path d="M354.2 407.6c-1-.5-3.1-2.1-3-3 0-.2 0-.4.5-.4 1.8-.3 2.6 3 2.6 3.1a.2.2 0 01-.2.3zm-2.3-3.1c-.3 0-.4 0-.4.2 0 .5 1.4 1.8 2.4 2.3-.2-.8-.9-2.5-2-2.5z" fill="#fff2c3"/><path d="M391.7 225.1l-2.2-5.3-3.6 6.8s2.2 3.8 5.4 3.5l.4-1.4a5.1 5.1 0 000-3.6z" fill="#e4897b"/><path d="M301.5 186.6l-1.5.2s1.1.7 1.5-.2z" fill="#263238"/><path fill="#fff2c3" d="M364.5 397.3l-17 .9-2.5-4.7 18.5-.6 1 4.4z"/><path fill="#fff" opacity=".7" d="M364.5 397.3l-17 .9-2.5-4.7 18.5-.6 1 4.4z"/><path fill="#fff2c3" d="M422 364.7l-7 11.2-3.5-.7 6.4-13.2 4 2.7z"/><path fill="#fff" opacity=".7" d="M422 364.7l-7 11.2-3.5-.7 6.4-13.2 4 2.7z"/><path d="M339 251.9l.8-.3c.2 0 .3-.1.2-.2l-1.5-3.4c0-.1-.2-.1-.4 0l-.8.2-.2.2 1.5 3.3c0 .2.2.2.4.2zM315.2 259.4l.8-.3.2-.2-1.5-3.3c0-.1-.2-.2-.3-.1l-.8.2c-.2 0-.3.2-.3.3l1.5 3.3.4.1zM327 255.6l.9-.2.2-.3-1.5-3.3s-.2-.1-.4 0l-.7.2c-.2 0-.3.1-.3.2l1.5 3.3c0 .2.2.2.4.1z" fill="#fff2c3"/><path d="M339 251.9l.8-.3c.2 0 .3-.1.2-.2l-1.5-3.4c0-.1-.2-.1-.4 0l-.8.2-.2.2 1.5 3.3c0 .2.2.2.4.2zM315.2 259.4l.8-.3.2-.2-1.5-3.3c0-.1-.2-.2-.3-.1l-.8.2c-.2 0-.3.2-.3.3l1.5 3.3.4.1zM327 255.6l.9-.2.2-.3-1.5-3.3s-.2-.1-.4 0l-.7.2c-.2 0-.3.1-.3.2l1.5 3.3c0 .2.2.2.4.1z" opacity=".6"/><path d="M333.3 203.5c3.3 0 10 9 10 9l-8.8 11.8s-5.7-7.4-5.7-11.6c0-4.4.8-9.2 4.5-9.2z" fill="#fff2c3"/><path d="M333.3 203.5c3.3 0 10 9 10 9l-8.8 11.8s-5.7-7.4-5.7-11.6c0-4.4.8-9.2 4.5-9.2z" opacity=".3"/><path d="M386.5 219.5v5.4a1.2 1.2 0 00.2.7l2 2.7.8-8.5-1-1a1.2 1.2 0 00-2 .7z" fill="#e4897b"/></g><g><path d="M214.7 143v242h148.9V143zm136 232.2H218.8V152.6h131.8z" fill="#fff2c3"/><path d="M214.7 143v242h148.9V143zm136 232.2H218.8V152.6h131.8z" fill="#fff" opacity=".6"/><path fill="#fff" d="M217.4 152.6h1.4v222.6h-1.4z"/><path fill="#f0f0f0" d="M217.4 152.6h1.4v222.6h-1.4z"/><path d="M379.2 86.3H110.4a8.8 8.8 0 00-8.7 8.7v311.8a8.8 8.8 0 008.7 8.7h268.8a8.8 8.8 0 008.7-8.8V95a8.8 8.8 0 00-8.7-8.7zm-160.4 66.3h131.8v222.6H218.8z" fill="#fff2c3"/><path d="M379.2 86.3H110.4a8.8 8.8 0 00-8.7 8.7v311.8a8.8 8.8 0 008.7 8.7h268.8a8.8 8.8 0 008.7-8.8V95a8.8 8.8 0 00-8.7-8.7zm-160.4 66.3h131.8v222.6H218.8z" opacity=".5"/><path d="M376.9 86.3H108a8.8 8.8 0 00-8.8 8.7v311.8a8.8 8.8 0 008.8 8.7h268.8a8.8 8.8 0 008.7-8.8V95a8.8 8.8 0 00-8.8-8.7zm-158 66.3h131.7v222.6H218.8z" fill="#fff2c3"/><path d="M376.9 86.3H108a8.8 8.8 0 00-8.8 8.7v311.8a8.8 8.8 0 008.8 8.7h268.8a8.8 8.8 0 008.7-8.8V95a8.8 8.8 0 00-8.8-8.7zm-158 66.3h131.7v222.6H218.8z" opacity=".2"/><path d="M99.3 109v297.8a8.8 8.8 0 008.8 8.7h268.8a8.8 8.8 0 008.7-8.8V109zm119.5 43.6h131.8v222.6H218.8z" fill="#fff2c3"/><path d="M99.3 109v297.8a8.8 8.8 0 008.8 8.7h268.8a8.8 8.8 0 008.7-8.8V109zm119.5 43.6h131.8v222.6H218.8z" fill="#fff" opacity=".6"/><path d="M101 120.6v283.3h283V120.6zm249.7 254.6H218.8V152.6h131.8z" fill="#fff"/><circle cx="366.4" cy="97.7" r="4.7" fill="#fff2c3" opacity=".8"/><circle cx="349.9" cy="97.7" r="4.7" fill="#fff2c3" opacity=".8"/><path d="M328.7 97.7a4.7 4.7 0 104.7-4.7 4.7 4.7 0 00-4.7 4.7z" fill="#fff2c3" opacity=".8"/><path fill="#fff2c3" d="M385.6 109.6H99.3v-1.2h286.3zM391.4 143h-1v-7h1zm0-13.2h-1V107h1z"/><path d="M391.4 143h-1v-7h1zm0-13.2h-1V107h1z" opacity=".4"/><path fill="#fff2c3" d="M176.2 214.8H148v-14h28.2z"/><path fill="#fff" opacity=".6" d="M176.2 214.8H148v-14h28.2z"/><path fill="#fff2c3" d="M180 307.2h-52.2v-14H180z"/><path fill="#fff" opacity=".6" d="M180 307.2h-52.2v-14H180z"/><path fill="#fff2c3" d="M188.9 145.4h-108v-14h108z"/><path fill="#fff" opacity=".6" d="M188.9 145.4h-108v-14h108z"/><path fill="#fff2c3" d="M168.2 168.6H81v-14h87.2z"/><path fill="#fff" opacity=".6" d="M168.2 168.6H81v-14h87.2z"/><path fill="#fff2c3" d="M180 191.6H81v-14h99z"/><path fill="#fff" opacity=".6" d="M180 191.6H81v-14h99z"/><path fill="#fff2c3" d="M136.3 214.8H81v-14h55.3z"/><path fill="#fff" opacity=".6" d="M136.3 214.8H81v-14h55.3z"/><path fill="#fff2c3" d="M180 237.9H81v-14h99z"/><path fill="#fff" opacity=".6" d="M180 237.9H81v-14h99z"/><path fill="#fff2c3" d="M188.9 261h-108v-14h108z"/><path fill="#fff" opacity=".6" d="M188.9 261h-108v-14h108z"/><path fill="#fff2c3" d="M157 284.2H81v-14h76z"/><path fill="#fff" opacity=".6" d="M157 284.2H81v-14h76z"/><path fill="#fff2c3" d="M116.2 307.2H81v-14h35.2z"/><path fill="#fff" opacity=".6" d="M116.2 307.2H81v-14h35.2z"/><circle cx="101.6" cy="350.9" r="23.9" transform="rotate(-80.5 101.6 351)" fill="#fff2c3"/><circle cx="101.6" cy="350.9" r="23.9" transform="rotate(-80.5 101.6 351)" fill="#fff" opacity=".6"/><path d="M104 346.8c-5.7-1.7-9.2-8-9.2-8s-1.8 0-1.9 1.6a8 8 0 002.4 5.9l-2.7-.2a9 9 0 00-3 .3l-.8.3a3 3 0 00-2.2 3.6l1.4 5.3a6.6 6.6 0 007.4 5l7.8-1.2 2-.1.7-12z" fill="#fff"/><rect x="104.2" y="345.1" width="9.8" height="15.7" rx="1.1" fill="#fff2c3"/><circle cx="162.2" cy="350.9" r="23.9" transform="rotate(-45 162.2 351)" fill="#fff2c3"/><circle cx="162.2" cy="350.9" r="23.9" transform="rotate(-45 162.2 351)" fill="#fff" opacity=".6"/><path d="M174 342.4a8.4 8.4 0 00-11.8 0 8.4 8.4 0 00-12 12l12 11.8 11.9-11.9a8.4 8.4 0 000-11.9zM207.8 143v242h152.5V143zm142.8 232.2H218.8V152.6h131.8z" fill="#fff2c3"/><path d="M207.8 143v242h152.5V143zm142.8 232.2H218.8V152.6h131.8z" fill="#fff" opacity=".8"/></g></svg>