<svg width="440" height="400" viewBox="0 0 440 400" fill="none" xmlns="http://www.w3.org/2000/svg">
<g clip-path="url(#clip0)">
<path d="M179.863 56.535H0V158.663H179.863V56.535Z" fill="#FFF2C3"/>
<path d="M193.141 149.544H12.0714V46.2006H193.141V149.544ZM13.2785 148.328H191.934V47.4164H13.2785V148.328Z" fill="#3F3D56"/>
<path d="M426.722 10.3344H246.859V112.462H426.722V10.3344Z" fill="#F2F2F2"/>
<path d="M440 103.343H258.93V0H440V103.343ZM260.137 102.128H438.793V1.21581H260.137V102.128Z" fill="#3F3D56"/>
<path d="M309.095 400H79.1362C78.9761 400 78.8226 399.936 78.7094 399.822C78.5962 399.708 78.5326 399.553 78.5326 399.392C78.5326 399.231 78.5962 399.076 78.7094 398.962C78.8226 398.848 78.9761 398.784 79.1362 398.784H309.095C309.255 398.784 309.409 398.848 309.522 398.962C309.635 399.076 309.699 399.231 309.699 399.392C309.699 399.553 309.635 399.708 309.522 399.822C309.409 399.936 309.255 400 309.095 400Z" fill="#CCCCCC"/>
<path d="M223.097 256.372C223.149 255.273 223.439 254.199 223.948 253.225C224.456 252.251 225.17 251.402 226.04 250.736C226.91 250.07 227.914 249.605 228.982 249.372C230.05 249.14 231.155 249.146 232.22 249.39L242.102 235.364L252.029 239.333L237.798 258.943C237.272 260.718 236.118 262.237 234.554 263.213C232.99 264.188 231.126 264.551 229.314 264.234C227.502 263.917 225.868 262.942 224.722 261.493C223.576 260.044 222.998 258.222 223.097 256.372L223.097 256.372Z" fill="#A0616A"/>
<path d="M233.937 244.31L251.506 214.549L244.348 195.324L254.097 169.139L254.457 169.294C254.692 169.396 260.232 171.885 261.053 180.801L272.256 216.265L242.356 255.333L233.937 244.31Z" fill="#3F3D56"/>
<path d="M138.518 134.899C139.602 135.036 140.643 135.41 141.567 135.996C142.492 136.582 143.278 137.365 143.869 138.29C144.461 139.215 144.844 140.259 144.992 141.349C145.139 142.439 145.048 143.549 144.724 144.6L157.844 155.607L153.147 165.269L134.836 149.462C133.119 148.797 131.705 147.52 130.861 145.875C130.016 144.229 129.8 142.328 130.254 140.533C130.708 138.738 131.8 137.173 133.323 136.135C134.846 135.096 136.694 134.656 138.518 134.899Z" fill="#A0616A"/>
<path d="M149.62 146.716L177.722 166.66L197.306 160.958L222.473 172.773L222.291 173.122C222.172 173.35 219.28 178.72 210.39 178.856L174.419 187.364L138.058 154.318L149.62 146.716Z" fill="#3F3D56"/>
<path d="M201.041 389.238H191.272L186.624 351.284L201.043 351.285L201.041 389.238Z" fill="#A0616A"/>
<path d="M181.416 386.427H203.135V398.375H172.43V395.476C172.43 393.076 173.377 390.774 175.062 389.077C176.747 387.38 179.033 386.427 181.416 386.427Z" fill="#2F2E41"/>
<path d="M240.089 389.238H230.319L225.672 351.284L240.09 351.285L240.089 389.238Z" fill="#A0616A"/>
<path d="M220.463 386.427H242.182V398.375H211.478V395.476C211.478 393.076 212.424 390.774 214.109 389.077C215.794 387.38 218.08 386.427 220.463 386.427Z" fill="#2F2E41"/>
<path d="M243.563 250.703L242.767 306.886L241.97 380.726L224.438 379.121L215.672 277.19L204.516 379.121H186.417L184.594 276.387L190.969 253.914L243.563 250.703Z" fill="#2F2E41"/>
<path d="M189.222 254.257L186.551 254.14L198.956 185.309L193.877 164.505C193.613 163.422 193.752 162.28 194.269 161.294C194.785 160.308 195.643 159.548 196.679 159.156L205.818 155.704L209.046 146.761L234.521 149.526L235.147 156.515C237.908 157.407 260.64 165.032 259.072 173.72C257.524 182.296 248.383 209.276 247.919 210.643L246.318 249.335L246.121 249.435C245.884 249.554 228.325 258.25 209.25 258.248C202.533 258.248 195.623 257.169 189.222 254.257Z" fill="#3F3D56"/>
<path d="M236.879 132.723C241.738 123.771 238.472 112.546 229.583 107.653C220.695 102.759 209.55 106.049 204.691 115.001C199.833 123.954 203.099 135.178 211.988 140.072C220.876 144.966 232.02 141.675 236.879 132.723Z" fill="#A0616A"/>
<path d="M235.642 141.745C232.147 145.495 225.655 143.482 225.199 138.359C225.164 137.961 225.166 137.561 225.207 137.163C225.442 134.894 226.744 132.834 226.432 130.437C226.362 129.841 226.141 129.273 225.791 128.786C223.006 125.03 216.467 130.467 213.838 127.066C212.227 124.98 214.121 121.697 212.884 119.366C211.252 116.29 206.416 117.808 203.384 116.123C200.01 114.249 200.211 109.035 202.432 105.863C205.141 101.996 209.89 99.932 214.58 99.6346C219.27 99.3372 223.927 100.614 228.306 102.333C233.281 104.285 238.214 106.984 241.275 111.39C244.998 116.748 245.357 123.951 243.495 130.216C242.362 134.027 238.496 138.683 235.642 141.745Z" fill="#2F2E41"/>
</g>
<defs>
<clipPath id="clip0">
<rect width="440" height="400" fill="white"/>
</clipPath>
</defs>
</svg>
